<?xml version="1.0" encoding="UTF-8" standalone="no"?>
<!-- Created with Inkscape (http://www.inkscape.org/) -->

<svg
   xmlns:dc="http://purl.org/dc/elements/1.1/"
   xmlns:cc="http://creativecommons.org/ns#"
   xmlns:rdf="http://www.w3.org/1999/02/22-rdf-syntax-ns#"
   xmlns:svg="http://www.w3.org/2000/svg"
   xmlns="http://www.w3.org/2000/svg"
   xmlns:sodipodi="http://sodipodi.sourceforge.net/DTD/sodipodi-0.dtd"
   xmlns:inkscape="http://www.inkscape.org/namespaces/inkscape"
   width="141.24997mm"
   height="162.55566mm"
   viewBox="0 0 141.24997 162.55566"
   version="1.1"
   id="svg278"
   inkscape:version="0.92.4 (5da689c313, 2019-01-14)"
   sodipodi:docname="orc.svg">
  <defs
     id="defs272" />
  <sodipodi:namedview
     id="base"
     pagecolor="#ffffff"
     bordercolor="#666666"
     borderopacity="1.0"
     inkscape:pageopacity="0.0"
     inkscape:pageshadow="2"
     inkscape:zoom="0.98994949"
     inkscape:cx="338.86934"
     inkscape:cy="303.80743"
     inkscape:document-units="mm"
     inkscape:current-layer="layer1"
     showgrid="false"
     fit-margin-top="0"
     fit-margin-left="0"
     fit-margin-right="0"
     fit-margin-bottom="0"
     inkscape:window-width="1920"
     inkscape:window-height="991"
     inkscape:window-x="-9"
     inkscape:window-y="-9"
     inkscape:window-maximized="1" />
  <metadata
     id="metadata275">
    <rdf:RDF>
      <cc:Work
         rdf:about="">
        <dc:format>image/svg+xml</dc:format>
        <dc:type
           rdf:resource="http://purl.org/dc/dcmitype/StillImage" />
        <dc:title></dc:title>
      </cc:Work>
    </rdf:RDF>
  </metadata>
  <g
     inkscape:label="Layer 1"
     inkscape:groupmode="layer"
     id="layer1"
     transform="translate(-31.76081,-62.225472)">
    <path
       style="fill:#000000;stroke-width:0.26458332"
       d="m 157.43783,224.68802 c -0.75102,-0.29849 -1.29329,-0.93899 -1.46785,-1.73375 -0.16469,-0.74981 -0.23141,-0.78679 -1.13948,-0.63143 -0.5305,0.0908 -1.62309,0.23762 -2.42799,0.32636 l -1.46344,0.16133 -0.70265,-1.02383 c -1.06514,-1.55199 -1.1198,-2.17035 -0.38556,-4.36171 0.58555,-1.74762 1.1774,-6.31941 0.81809,-6.31941 -0.0758,0 -0.59983,0.26595 -1.16461,0.591 -1.04248,0.59997 -1.65211,0.51651 -1.09862,-0.15041 0.16704,-0.20127 0.47001,-0.91852 0.67327,-1.59389 0.35972,-1.19528 0.35441,-1.22784 -0.19986,-1.2239 -0.78846,0.006 -1.15221,0.28375 -1.47236,1.12582 -0.15103,0.39722 -0.3909,0.72222 -0.53307,0.72222 -0.38204,0 0.38629,-2.34387 0.98612,-3.00824 0.45652,-0.50564 1.11135,-2.02317 1.11135,-2.57547 0,-0.11719 -0.29225,0.0792 -0.64944,0.43636 -0.98644,0.98645 -1.2791,0.77821 -0.64717,-0.46048 1.28887,-2.5264 -0.024,-5.96861 -3.74647,-9.82282 -2.13801,-2.21367 -2.34658,-2.3654 -2.35548,-1.71357 -0.005,0.39333 0.13434,1.03145 0.31048,1.41804 0.27168,0.59627 0.25161,0.75309 -0.13229,1.03381 -0.2489,0.182 -0.45082,0.55591 -0.4487,0.83091 0.006,0.75648 0.77632,2.82074 1.24827,3.34427 0.24523,0.27204 0.29462,0.46302 0.11972,0.46302 -0.16371,0 -0.56413,-0.36042 -0.88982,-0.80093 -0.32568,-0.44051 -0.74596,-0.7419 -0.93396,-0.66976 -0.21805,0.0837 -0.34181,-0.0883 -0.34181,-0.47486 0,-0.64404 -0.64086,-2.81167 -1.12875,-3.81781 l -0.29287,-0.60399 -0.30178,0.73628 c -0.29986,0.73162 -0.30282,0.72866 -0.4673,-0.46613 -0.091,-0.66132 -0.34902,-1.55429 -0.57328,-1.98438 -0.22427,-0.43008 -0.41228,-1.07962 -0.4178,-1.44342 -0.01,-0.62831 -0.0289,-0.63659 -0.38575,-0.16531 -0.20664,0.27288 -0.45712,1.32234 -0.55662,2.33215 -0.21568,2.18879 -0.5689,2.04566 -0.80532,-0.32634 -0.0937,-0.93951 -0.2863,-1.85552 -0.42813,-2.03557 -0.14182,-0.18004 -0.18295,-0.52256 -0.0914,-0.76114 0.0915,-0.23858 0.0313,-0.59664 -0.13392,-0.79571 -0.16521,-0.19906 -0.23104,-0.62709 -0.14629,-0.95117 0.13394,-0.51217 0.0681,-0.48639 -0.50305,0.19703 -0.36142,0.43245 -0.88789,1.21807 -1.16992,1.74583 -0.28203,0.52775 -0.69645,1.03003 -0.92093,1.11617 -0.52269,0.20057 -0.51374,0.0549 0.0951,-1.54692 1.02622,-2.69998 1.02235,-5.14338 -0.006,-3.80595 l -0.48543,0.63131 -0.006,-0.90521 c -0.003,-0.49787 0.19116,-1.12294 0.432,-1.38906 0.24686,-0.27278 0.30863,-0.48386 0.1416,-0.48386 -0.48524,0 -0.94329,-1.06494 -0.604,-1.40424 0.3971,-0.39709 0.3624,-0.71243 -0.0784,-0.71243 -0.20211,0 -0.36195,0.14883 -0.35519,0.33073 0.0457,1.23144 -0.11139,2.31511 -0.33567,2.31511 -0.14552,0 -0.26637,-0.26789 -0.26856,-0.59531 -0.002,-0.32743 -0.17556,-1.07157 -0.38526,-1.65365 l -0.38128,-1.05833 -0.0269,1.4552 c -0.0148,0.80037 -0.11523,1.93146 -0.22323,2.51355 -0.19313,1.04093 -0.19918,1.03006 -0.36764,-0.66146 -0.0942,-0.94589 -0.36331,-2.25558 -0.59802,-2.91042 -0.23471,-0.65484 -0.36304,-1.51805 -0.28518,-1.91823 0.13395,-0.68853 -0.0537,-0.87565 -0.74701,-0.74497 -0.13219,0.0249 -0.34834,-0.10981 -0.48035,-0.29939 -0.15937,-0.22887 -0.18375,-0.14466 -0.0726,0.25061 0.0926,0.32919 0.0504,0.59531 -0.0944,0.59531 -0.60842,0 -1.02346,2.85222 -0.5451,3.74604 0.21921,0.40961 0.18861,0.63711 -0.13362,0.99316 -0.22987,0.25402 -0.41796,0.72717 -0.41796,1.05145 0,0.32429 -0.11096,1.08882 -0.24658,1.69896 -0.13562,0.61014 -0.39108,1.88326 -0.5677,2.82914 -0.43117,2.30928 -0.74818,2.84033 -0.78971,1.32292 -0.0492,-1.79886 0.0189,-3.49173 0.17173,-4.26675 0.0815,-0.41327 -0.0154,-0.84728 -0.23907,-1.07095 -0.20986,-0.20986 -0.3872,-0.93034 -0.40125,-1.63019 -0.0138,-0.68977 -0.11129,-1.39346 -0.21654,-1.56377 -0.10526,-0.1703 -0.21786,-0.89923 -0.25024,-1.61984 -0.0412,-0.9172 -0.19457,-1.38614 -0.51129,-1.56338 -0.35451,-0.1984 -0.37766,-0.2994 -0.10696,-0.4667 0.28339,-0.17514 0.28196,-0.29002 -0.008,-0.63936 -0.32114,-0.38695 -0.4111,-0.37168 -0.98473,0.16722 -0.40973,0.38493 -0.60473,0.82909 -0.5556,1.26558 0.0416,0.36989 -0.0301,0.69211 -0.15931,0.71606 -0.73825,0.13681 -0.89731,1.95921 -0.31373,3.59448 0.20682,0.57951 0.24671,0.99218 0.0959,0.99218 -0.14199,0 -0.32044,-0.23812 -0.39655,-0.52916 -0.0761,-0.29104 -0.24327,-0.52917 -0.37146,-0.52917 -0.23013,0 -0.2693,1.20097 -0.26754,8.20208 5.3e-4,1.96454 -0.0566,3.43713 -0.12688,3.27245 -0.0703,-0.16469 -0.3065,-1.35532 -0.52494,-2.64584 -0.78491,-4.63711 -1.34231,-8.96941 -1.53233,-11.90992 -0.039,-0.60327 -0.27041,-1.29638 -0.51428,-1.54025 -0.40519,-0.40519 -0.54681,-0.77135 -0.48154,-1.24508 0.0135,-0.0979 -0.3296,-0.0764 -0.76242,0.0477 -0.43282,0.12413 -0.78694,0.17211 -0.78694,0.10661 0,-0.0655 0.29765,-0.5906 0.66146,-1.1669 0.77107,-1.22145 0.79792,-1.40944 0.26458,-1.85208 -0.21828,-0.18116 -0.39688,-0.60543 -0.39688,-0.94282 0,-0.78693 -0.29427,-0.95402 -1.76505,-1.00223 l -1.19963,-0.0393 0.15437,1.12448 c 0.15717,1.14492 -0.008,1.37568 -0.57635,0.80697 -0.2287,-0.22869 -0.3175,-0.23306 -0.3175,-0.0156 0,0.16604 0.11906,0.37547 0.26458,0.46541 0.44418,0.27452 0.2949,0.96766 -0.23844,1.10713 -0.56873,0.14872 -0.875,1.34229 -0.84626,3.29792 0.0126,0.85609 -0.10132,1.27588 -0.37465,1.38076 -0.216,0.0829 -0.39273,0.39653 -0.39273,0.69698 0,0.57149 -1.15421,3.039 -1.53024,3.2714 -0.11956,0.0739 0.0791,-0.72135 0.44158,-1.76721 0.51993,-1.50038 0.65169,-2.37603 0.62453,-4.15052 -0.019,-1.23693 -0.0402,-2.8585 -0.0472,-3.60349 -0.008,-0.87714 -0.15467,-1.47232 -0.41545,-1.68875 -0.3079,-0.25554 -0.33152,-0.41999 -0.10036,-0.69852 0.42661,-0.51403 0.13228,-2.29688 -0.53356,-3.23196 -0.30581,-0.42947 -0.55602,-0.97083 -0.55602,-1.20302 0,-0.68907 -0.49995,-0.48286 -1.06123,0.43771 -0.62402,1.02347 -0.65706,0.78074 -0.13016,-0.95602 0.26187,-0.86317 0.30713,-1.4293 0.13747,-1.71979 -0.15121,-0.25892 -0.25614,-0.30006 -0.26095,-0.10231 -0.004,0.1819 -0.10117,0.33073 -0.215,0.33073 -0.11382,0 -0.21619,-0.63921 -0.22749,-1.42045 -0.0235,-1.6269 -0.33925,-2.42369 -0.63589,-1.6047 -0.15963,0.44075 -0.25224,0.37307 -0.66865,-0.48861 -0.29008,-0.60029 -0.62091,-0.94744 -0.82739,-0.8682 -0.18922,0.0726 -0.34404,0.0167 -0.34404,-0.12426 0,-0.14096 -0.24236,-0.25628 -0.53857,-0.25628 -0.38631,0 -0.68286,0.33661 -1.04893,1.19062 -0.5845,1.36358 -0.91769,1.5635 -0.66146,0.39688 0.0959,-0.43656 0.1024,-0.79375 0.0145,-0.79375 -0.18745,0 -0.7516,1.27732 -0.81801,1.85208 -0.0252,0.21828 -0.35936,0.85793 -0.74255,1.42144 -0.49514,0.72816 -0.64896,1.21477 -0.53168,1.68204 0.10077,0.40152 0.0366,0.73683 -0.16475,0.86129 -0.26207,0.16197 -0.26391,0.59417 -0.009,2.10555 0.17643,1.04595 0.26347,1.95904 0.19342,2.02909 -0.07,0.07 -0.21125,-0.32469 -0.31379,-0.87718 -0.10254,-0.55248 -0.37993,-1.22008 -0.61642,-1.48355 -0.35414,-0.39454 -0.42222,-1.06378 -0.38597,-3.79422 0.0332,-2.49986 -0.0345,-3.28219 -0.27523,-3.18107 -0.17559,0.0738 -1.45034,0.61063 -2.83279,1.19302 -3.26858,1.377 -5.8843,1.89567 -9.55996,1.89567 H 82.7329 l 0.64143,0.68449 c 0.35279,0.37647 0.96875,0.87833 1.3688,1.11525 0.46275,0.27403 0.67844,0.58494 0.59286,0.85458 -0.0763,0.2404 0.14356,0.68507 0.50801,1.02745 1.01676,0.9552 1.80904,3.0967 1.82635,4.93656 0.0126,1.33762 -0.12711,1.8686 -0.80986,3.07836 -1.29311,2.29126 -1.7176,4.1136 -1.61279,6.92365 0.0698,1.87246 0.2115,2.62058 0.60979,3.22031 0.28536,0.42968 0.54483,0.94453 0.57663,1.14412 0.0914,0.57389 1.46974,1.88607 1.98115,1.88607 0.57934,0 0.87138,0.42901 0.46361,0.68103 -0.20579,0.12719 -0.0997,0.35523 0.32641,0.70156 l 0.63131,0.51313 -0.83385,-0.14229 c -0.82046,-0.14 -3.41363,0.15689 -3.67782,0.42108 -0.0743,0.0743 0.16245,0.65727 0.52618,1.29542 1.63395,2.86668 1.99595,3.81007 1.99853,5.20831 0.004,1.88444 -0.56133,2.89151 -1.97151,3.5153 -0.98917,0.43755 -1.68903,0.49668 -5.20674,0.43987 -3.91301,-0.0632 -4.13767,-0.0375 -6.04834,0.69199 -4.71286,1.79932 -4.46433,1.74628 -6.75114,1.4407 -1.5156,-0.20252 -2.44192,-0.1996 -3.30031,0.0104 -1.48504,0.36329 -6.53302,0.39058 -6.75186,0.0365 -0.0887,-0.1435 -0.45188,-0.26091 -0.80709,-0.26091 -0.85266,0 -0.82316,-0.45972 0.0552,-0.85992 l 0.70101,-0.3194 -0.60734,-0.14338 c -0.56504,-0.13339 -0.52966,-0.19477 0.50799,-0.88147 0.61344,-0.40595 1.25589,-0.68912 1.42769,-0.62926 0.17178,0.0598 0.6489,-0.17111 1.06024,-0.51325 0.41135,-0.34214 1.02841,-0.62207 1.37124,-0.62207 0.38189,0 0.68566,-0.1964 0.78426,-0.50705 0.0885,-0.27888 0.50202,-0.62596 0.91891,-0.77129 0.41689,-0.14533 0.83893,-0.51929 0.93787,-0.83102 0.20068,-0.6323 1.11039,-1.06564 2.2371,-1.06564 0.53911,0 0.93832,-0.25331 1.44393,-0.91619 0.38435,-0.50391 1.59246,-1.54013 2.68468,-2.30273 1.85134,-1.2926 2.94803,-2.62044 2.61258,-3.16322 -0.2346,-0.37959 -1.49048,-0.26457 -1.98356,0.18167 -0.27852,0.25205 -0.52121,0.31115 -0.62018,0.15102 -0.0894,-0.1447 0.49406,-0.83 1.29665,-1.5229 1.72819,-1.49202 1.97173,-2.22835 0.47097,-1.424 -0.54355,0.29133 -1.22815,0.52959 -1.52135,0.52947 -0.35286,-1.3e-4 -0.16527,-0.18227 0.55489,-0.53875 0.63614,-0.31489 1.28482,-0.90405 1.56193,-1.41862 0.41255,-0.76605 0.43294,-1.04292 0.1574,-2.13719 -0.42935,-1.70511 -1.66328,-4.09932 -3.35174,-6.50343 -0.77227,-1.09959 -1.48681,-2.3287 -1.58787,-2.73135 -0.31555,-1.25726 -0.72566,-0.33639 -0.78092,1.75351 -0.0282,1.06685 -0.19213,2.2029 -0.36428,2.52455 -0.4106,0.76722 -0.60925,0.74505 -0.41075,-0.0458 0.0871,-0.34686 -0.0323,-1.19197 -0.26522,-1.87803 -0.29125,-0.85788 -0.36977,-1.65237 -0.25144,-2.54435 0.14492,-1.09248 0.1041,-1.29696 -0.25892,-1.29696 -0.50834,0 -0.56665,-0.55223 -0.10685,-1.01202 0.25575,-0.25575 0.25485,-0.43499 -0.004,-0.84987 -0.18445,-0.29535 -0.25405,-0.82177 -0.15881,-1.20124 0.13031,-0.5192 -0.001,-0.85378 -0.56883,-1.44616 -0.81273,-0.84831 -1.6861,-2.19561 -2.48528,-3.8339 -0.46261,-0.94833 -0.49751,-1.36073 -0.3135,-3.70416 0.20781,-2.64642 0.59409,-3.82611 1.53022,-4.6733 0.27198,-0.24614 1.62362,-1.08474 3.00365,-1.86355 2.718,-1.53389 2.33699,-1.1036 6.15223,-6.9481 0.94994,-1.4552 2.56226,-3.60882 3.58292,-4.7858 l 1.85574,-2.13998 -1.6966,0.9009 c -0.93314,0.4955 -1.69661,0.83122 -1.69661,0.74604 0,-0.29624 4.90997,-3.38315 7.27481,-4.57369 1.30901,-0.659 3.45214,-1.59282 4.7625,-2.07515 l 2.38248,-0.87697 -1.32291,-0.0408 -1.32292,-0.0408 0.92604,-0.26148 c 0.50932,-0.14381 1.56171,-0.48885 2.33865,-0.76674 0.77693,-0.27789 1.96756,-0.50467 2.64583,-0.50395 1.64593,0.002 5.86344,-1.37279 5.86344,-1.91097 0,-0.13298 -0.12084,-0.46758 -0.26854,-0.74355 -0.22077,-0.41253 -0.10412,-0.65137 0.65595,-1.34302 l 0.92448,-0.84126 -0.78824,-0.89775 c -0.8699,-0.99076 -0.94421,-1.5672 -0.39918,-3.09632 0.4719,-1.32393 0.13146,-3.6006 -0.71141,-4.75755 -1.448,-1.98757 -2.35561,-4.28782 -2.51301,-6.36895 -0.14209,-1.87885 -0.20765,-2.05733 -0.88411,-2.40714 -0.40185,-0.20781 -0.77787,-0.51954 -0.83561,-0.69275 -0.0622,-0.18671 -0.74453,0.20602 -1.67595,0.96467 -2.39681,1.95223 -4.01537,2.58757 -8.11482,3.18537 -1.2315,0.17959 -2.58748,1.28298 -2.58748,2.1055 0,0.54386 -0.0676,0.58112 -0.59946,0.33014 -0.3297,-0.15559 -0.78674,-0.65041 -1.01563,-1.09958 -0.26151,-0.51318 -1.44034,-1.51527 -3.17204,-2.69647 -3.32178,-2.2658 -3.85834,-2.48433 -4.02047,-1.63746 -0.0951,0.49697 -0.12422,0.46313 -0.16061,-0.18692 -0.0424,-0.75687 -0.0625,-0.76989 -0.43291,-0.28016 -0.23697,0.3133 -0.38846,1.10686 -0.38846,2.0349 0,0.83672 -0.11906,1.5949 -0.26459,1.68484 -0.15978,0.0988 -0.26458,-0.26184 -0.26458,-0.91043 0,-0.62712 -0.12542,-1.07395 -0.30144,-1.07395 -0.29375,0 -0.20651,-1.40251 0.20162,-3.24115 0.1312,-0.59106 0.0688,-0.72811 -0.33236,-0.73029 -0.32869,-0.002 -0.65074,-0.37586 -0.96291,-1.11844 l -0.46904,-1.11575 -0.49243,0.80976 c -0.27085,0.44536 -0.57883,1.21654 -0.68442,1.71374 -0.19904,0.93727 -1.40196,2.76696 -1.65366,2.51527 -0.0788,-0.0788 -0.0197,-0.29498 0.13145,-0.48039 0.24183,-0.29677 0.68397,-2.81009 0.82731,-4.70275 0.0276,-0.36381 0.0757,-1.00703 0.10705,-1.42938 0.0827,-1.11486 -0.42101,-1.11628 -1.65145,-0.005 -1.16861,1.05577 -1.66919,1.05849 -0.97912,0.005 0.48851,-0.74557 1.49656,-3.30266 1.49676,-3.79681 2.5e-4,-0.61011 -0.75154,-0.33899 -2.03429,0.73362 -0.70008,0.58539 -1.40956,1.17406 -1.57663,1.30815 -0.16706,0.1341 -0.35912,0.39928 -0.42679,0.58931 -0.0677,0.19001 -0.20708,0.26783 -0.30979,0.17291 -0.21013,-0.19418 2.42601,-4.39078 3.11131,-4.95305 0.97074,-0.79647 0.35884,-0.83076 -1.01263,-0.0567 -1.78815,1.00916 -1.88895,0.66697 -0.19844,-0.67366 0.69122,-0.54817 1.3571,-1.079142 1.47972,-1.179942 0.29157,-0.23967 -0.0812,-0.9091 -1.38391,-2.48563 -0.58484,-0.70773 -1.09866,-1.52165 -1.14182,-1.8087 -0.11309,-0.75216 -0.78429,-1.07386 -1.82122,-0.8729 -0.77086,0.1494 -0.99503,0.37662 -1.5311,1.55195 l -0.62803,1.37692 -0.86873,-1.03476 -0.86874,-1.03477 -1.08041,1.70318 c -0.59423,0.93675 -1.08155,1.852 -1.08293,2.03391 -0.005,0.62787 -0.40456,0.29703 -1.8546,-1.53476 -0.80036,-1.01108 -1.52794,-1.83841 -1.61683,-1.8385 -0.21648,-2.4e-4 -1.94663,3.81695 -2.36039,5.207682 l -0.32929,1.10681 -2.14622,-1.881272 c -1.18043,-1.0347 -2.33632,-2.16267 -2.56866,-2.50661 -0.41347,-0.61206 -0.43301,-0.57879 -0.92088,1.56821 -0.57344,2.523552 -0.65908,7.550372 -0.14956,8.778672 0.17438,0.42037 0.2609,0.82045 0.19227,0.88908 -0.58864,0.58863 -11.26711,-10.330442 -11.26711,-11.521002 0,-0.15603 0.34093,-0.85715 0.75761,-1.55804 0.41669,-0.7009 1.9711,-3.35795 3.45425,-5.904565 1.48315,-2.54662 2.91763,-4.922912 3.18772,-5.280658 l 0.49108,-0.650449 0.45083,1.57649 c 0.49052,1.715327 2.71824,7.545962 2.99904,7.849462 0.0954,0.10315 0.46052,-0.25403 0.81127,-0.79375 1.63439,-2.51487 1.9631,-2.977885 2.84807,-4.011785 l 0.94565,-1.10477 0.5771,1.00929 c 0.3174,0.55511 0.90521,1.52619 1.30624,2.157965 0.70441,1.10969 0.74651,1.13295 1.24073,0.68568 0.47509,-0.42994 2.09708,-4.920821 2.09708,-5.806268 0,-0.613159 0.44147,-0.470514 1.52059,0.491321 0.9955,0.887301 3.4719,2.440382 3.59716,2.255962 0.0367,-0.054 0.22647,-0.45547 0.42166,-0.89204 l 0.35489,-0.793745 0.51443,1.151955 c 0.5007,1.12123 0.52481,1.13712 0.90397,0.59579 0.21425,-0.30588 0.62664,-1.09215 0.91643,-1.747261 0.28978,-0.655108 0.59223,-1.191109 0.67209,-1.191109 0.0799,0 0.46554,0.228089 0.85705,0.506867 0.66782,0.475533 0.74612,0.479621 1.26664,0.06615 0.30515,-0.242398 0.69126,-0.707207 0.85801,-1.032909 0.16675,-0.325705 0.62717,-0.668753 1.02315,-0.762328 0.39599,-0.09358 0.9581,-0.37759 1.24914,-0.63114 0.68156,-0.593767 3.21384,-0.934817 3.73423,-0.50293 0.30665,0.254497 0.54264,0.124383 1.24222,-0.684904 0.70081,-0.810724 0.9775,-0.962948 1.46758,-0.807404 0.82888,0.263075 1.62358,1.660193 1.62477,2.856414 0.002,1.663991 0.78373,1.308926 2.07047,-0.94001 0.60804,-1.062708 1.10552,-2.073656 1.10552,-2.24655 0,-0.172894 0.33886,0.04023 0.75302,0.473617 0.41417,0.433383 0.83089,0.710111 0.92605,0.614953 0.0952,-0.09516 0.17507,-0.0043 0.17758,0.20181 0.005,0.415092 1.11629,1.565451 1.5122,1.565451 0.13835,0 0.39424,-0.47625 0.56864,-1.058333 0.1744,-0.582083 0.42362,-1.058333 0.55382,-1.058333 0.13021,0 0.56788,-0.125899 0.97261,-0.279775 0.58911,-0.223983 0.6585,-0.3287 0.34795,-0.525115 -0.31344,-0.19824 -0.28584,-0.246119 0.14375,-0.249392 0.29242,-0.0022 0.68688,-0.252583 0.87659,-0.556343 0.31942,-0.511487 0.29969,-0.538127 -0.26709,-0.360567 -1.3451,0.42139 -1.35195,0.373911 -0.0482,-0.334193 0.74666,-0.405528 1.88302,-1.061701 2.52524,-1.458161 0.78565,-0.484998 1.8131,-0.809966 3.14036,-0.993255 2.87467,-0.396978 3.45189,-0.546552 3.26654,-0.846453 -0.0955,-0.154575 -0.88246,-0.225088 -1.85439,-0.166162 -0.92864,0.0563 -1.68843,0.0082 -1.68843,-0.106818 0,-0.115051 0.32742,-0.210809 0.7276,-0.212796 1.20375,-0.006 1.89125,-0.288297 2.06947,-0.849825 0.14187,-0.446989 0.3323,-0.509786 1.19503,-0.39407 l 1.02626,0.137652 -1.24569,-1.627885 C 91.60822,69.766743 89.66356,67.9655 88.67826,67.9655 c -0.14236,0 -0.45159,0.192768 -0.6872,0.428374 -0.23561,0.235605 -0.49311,0.36364 -0.57223,0.284522 -0.32212,-0.322128 0.25734,-1.274126 1.01357,-1.665188 0.67486,-0.348985 1.00757,-0.366875 2.03177,-0.109253 1.81903,0.45755 3.9247,1.687757 5.82703,3.404369 l 1.69185,1.526684 1.05896,-2.0009 c 1.06448,-2.011325 3.41385,-4.832429 5.01522,-6.022221 0.76453,-0.568033 1.03851,-0.621091 2.44836,-0.474146 3.91039,0.407566 7.02663,2.215263 8.77805,5.092044 0.58083,0.954025 1.17039,1.631379 1.3846,1.590786 0.20518,-0.03888 0.86003,-0.894129 1.45521,-1.900548 2.09673,-3.545472 5.16095,-6.237521 6.66901,-5.859021 0.83167,0.208737 0.81049,0.677415 -0.0306,0.677415 -1.26669,0 -2.27953,1.647048 -3.31857,5.39654 -0.46516,1.678596 -0.47388,1.886461 -0.0966,2.303316 0.33685,0.372214 0.3556,0.56857 0.0999,1.046263 -0.17309,0.323431 -0.4124,0.928648 -0.53179,1.344927 l -0.21706,0.756871 1.37059,0.02597 1.37059,0.02598 -1.10607,0.304753 c -1.77706,0.489629 -1.57711,0.628642 0.97859,0.680352 2.97681,0.06023 4.42515,0.496913 1.84728,0.556963 l -1.7198,0.04006 1.78639,0.460179 c 1.9781,0.509563 2.82859,1.148484 3.37185,2.533054 0.19941,0.508206 0.5728,0.990741 0.82977,1.0723 0.35307,0.112059 0.41569,0.287575 0.25633,0.718387 -0.17295,0.467515 -0.0186,0.730742 0.8577,1.46288 0.73432,0.61351 1.25973,0.856244 1.67963,0.775975 0.33607,-0.06424 0.61104,-0.03816 0.61104,0.05796 0,0.09612 0.44649,0.138317 0.99219,0.09377 0.89759,-0.07327 0.93543,-0.05174 0.39688,0.225852 -0.74384,0.3834 -0.76871,0.75515 -0.0505,0.75515 0.29963,0 0.48146,0.102454 0.40407,0.227676 -0.0774,0.125225 0.39141,0.447117 1.04178,0.715317 0.75499,0.311343 1.09072,0.579411 0.92864,0.741487 -0.16207,0.162076 0.4483,0.931746 1.68832,2.128954 1.06819,1.03131 2.49513,2.733415 3.17097,3.782435 1.08664,1.68667 1.34292,1.92601 2.21523,2.06887 3.78849,0.62044 5.66352,1.69534 10.0003,5.73285 2.95356,2.749762 7.28227,6.033672 7.9533,6.033672 0.22354,0 0.36303,-0.29253 0.36303,-0.76136 0,-0.41874 0.17852,-0.90951 0.39671,-1.09059 0.34302,-0.28468 0.37364,-0.21386 0.22623,0.52316 -0.12919,0.64597 0.0284,1.27851 0.65079,2.61195 0.4517,0.96775 1.08022,2.50369 1.39672,3.41319 0.3165,0.90951 0.66798,1.65365 0.78106,1.65365 0.11309,0 0.52912,-0.38695 0.92451,-0.8599 2.361,-2.82405 3.27359,-3.53164 2.41603,-1.87329 -0.2149,0.41557 -0.5382,1.50515 -0.71844,2.42129 -0.41794,2.12437 -0.0673,2.64173 0.86274,1.27302 0.67297,-0.99037 2.46791,-2.54862 2.93573,-2.54862 0.15088,0 0.0117,0.27953 -0.30924,0.62118 -0.32097,0.34165 -0.92458,1.50251 -1.34137,2.57969 -0.87584,2.26354 -0.8981,2.20445 1.50197,3.98652 1.63724,1.21566 1.82853,1.76443 0.3456,0.99149 -1.04113,-0.54267 -1.04607,-0.54273 -2.21481,-0.0258 -1.46255,0.64696 -1.66088,0.96109 -1.12406,1.78037 0.49733,0.75903 0.28003,0.84673 -0.46286,0.1868 -0.51054,-0.45352 -0.51751,-0.44266 -0.33958,0.52917 0.14691,0.80237 0.10219,0.99219 -0.23375,0.99219 -0.22848,0 -0.53158,0.32742 -0.67356,0.7276 -0.14198,0.40018 -0.37986,0.93867 -0.52861,1.19663 -0.29969,0.51972 -0.11734,0.64403 1.13881,0.77637 0.40471,0.0426 0.70236,0.19578 0.66146,0.34031 -0.0409,0.14453 -0.22479,0.22825 -0.40864,0.18603 -0.18385,-0.0422 -0.40495,0.10741 -0.49133,0.33252 -0.0864,0.22511 -0.43858,0.40929 -0.78267,0.40929 -0.51257,0 -0.91382,0.48747 -2.22065,2.69781 -0.87727,1.4838 -1.59504,2.79428 -1.59504,2.91217 0,0.11789 0.29765,0.47316 0.66146,0.78948 0.83847,0.72905 0.83032,0.80495 -0.13229,1.23104 -0.56411,0.2497 -0.79375,0.53521 -0.79375,0.98684 0,0.71371 -0.41428,2.56175 -0.97452,4.34724 -0.36957,1.1778 -0.36577,1.19632 0.35262,1.71979 0.39941,0.29104 1.21138,0.96581 1.80438,1.49947 0.86124,0.77508 1.17339,0.91702 1.55141,0.70547 0.69094,-0.38667 1.23486,-0.0722 1.23486,0.71404 0,0.44489 0.67483,1.57053 1.91677,3.19724 1.57614,2.06447 2.01107,2.48084 2.44739,2.34303 1.47371,-0.46546 1.72125,-0.45827 1.72125,0.05 0,0.27562 -0.18641,0.76727 -0.41424,1.09254 -0.36217,0.51708 -0.3744,0.9152 -0.0973,3.16773 0.38202,3.10506 0.34497,4.68339 -0.16168,6.88712 -0.32864,1.42948 -0.33063,1.78978 -0.0141,2.54739 0.20278,0.48533 0.49991,0.96351 0.66027,1.06262 0.57103,0.35291 0.27772,0.67814 -0.61157,0.67814 -0.75464,0 -1.03744,0.18261 -1.71979,1.11046 -0.44915,0.61075 -0.81664,1.3171 -0.81664,1.56967 0,0.25257 -0.21975,0.52896 -0.48833,0.61421 -0.62967,0.19985 -2.68668,2.96999 -2.68668,3.61811 0,0.35003 -0.1909,0.49589 -0.64901,0.49589 -0.73882,0 -1.99682,0.51358 -1.99682,0.8152 0,0.1106 -0.38695,0.28334 -0.8599,0.38385 -0.47294,0.10052 -1.04417,0.34477 -1.2694,0.54277 -0.31985,0.28119 -0.92432,0.31487 -2.76113,0.15382 -1.2934,-0.1134 -2.39334,-0.3313 -2.44431,-0.48423 -0.051,-0.15291 -0.25245,-0.49654 -0.44774,-0.7636 -0.32585,-0.44563 -0.38997,-0.45066 -0.77948,-0.0611 -0.23343,0.23343 -0.57534,0.47473 -0.75979,0.53621 -0.4117,0.13723 0.92983,1.36223 1.97956,1.80761 0.95634,0.40576 0.93416,0.80176 -0.0341,0.60812 -1.36748,-0.2735 -1.12675,0.35412 0.81588,2.12712 1.88488,1.7203 2.02128,2.14537 0.42324,1.31899 -0.76112,-0.39359 -0.80707,-0.39206 -0.64831,0.0216 0.094,0.24488 0.17086,0.53376 0.17086,0.64195 0,0.10818 0.53578,0.88667 1.19062,1.72998 0.65484,0.84331 1.19063,1.58661 1.19063,1.65177 0,0.0652 -0.36936,-0.15753 -0.8208,-0.49486 -1.94014,-1.44975 -1.81236,-1.50009 -1.27294,0.50152 0.97653,3.62359 1.82888,7.14106 1.81889,7.50612 -0.006,0.20617 -0.41497,-0.45857 -0.90961,-1.47722 l -0.89935,-1.85208 0.13535,2.24896 c 0.30909,5.13594 0.8091,7.48617 1.85785,8.73253 1.05298,1.2514 2.07318,1.67218 3.57219,1.47333 0.7045,-0.0935 1.28092,-0.10533 1.28092,-0.0264 0,0.0789 -0.4947,0.34149 -1.09934,0.58341 l -1.09933,0.43987 0.76861,0.61957 c 0.42273,0.34076 1.21508,0.69286 1.76078,0.78243 1.17065,0.19216 1.28231,0.49486 0.26459,0.71725 -0.40018,0.0874 -1.00057,0.2366 -1.33419,0.33146 -0.41864,0.11903 -0.58259,0.0688 -0.52916,-0.16207 0.0732,-0.3164 -1.35333,-0.90407 -1.59878,-0.65862 -0.22545,0.22545 0.78462,1.47636 1.76641,2.18757 1.07691,0.78011 1.24451,1.20679 0.4957,1.26195 -0.25983,0.0192 -0.61218,0.17458 -0.78301,0.3454 -0.23773,0.23774 0.0367,0.66688 1.16993,1.82947 0.81429,0.83537 1.61313,1.77893 1.7752,2.09678 0.5528,1.08417 0.29367,1.27571 -0.5328,0.39385 -0.45846,-0.48918 -0.9258,-0.77954 -1.05185,-0.65349 -0.72783,0.72783 1.85142,5.02715 3.51398,5.8574 0.5832,0.29125 0.97601,0.73941 1.16759,1.33215 0.1588,0.49128 0.72991,1.4373 1.26916,2.10228 0.85594,1.05551 0.97046,1.36083 0.90191,2.40444 -0.0741,1.12782 -0.13836,1.21775 -1.13686,1.59077 -0.58209,0.21746 -1.19296,0.57268 -1.3575,0.78937 -0.18089,0.23822 -0.75551,0.39952 -1.45338,0.40799 -0.73059,0.009 -1.32481,0.18393 -1.61906,0.47701 -0.62278,0.62032 -1.92485,0.58498 -3.00325,-0.0815 l -0.88106,-0.54453 -0.73767,0.53662 c -0.76865,0.55917 -2.56575,0.91354 -3.25121,0.64112 z M 138.917,193.64308 c 0,-0.14552 -0.12609,-0.26458 -0.2802,-0.26458 -0.15411,0 -0.20661,0.11906 -0.11668,0.26458 0.0899,0.14553 0.21603,0.26459 0.2802,0.26459 0.0642,0 0.11668,-0.11906 0.11668,-0.26459 z m -52.72374,-1.74735 c -0.0879,-0.0879 -0.31613,-0.0973 -0.50712,-0.0209 -0.21107,0.0845 -0.14837,0.14715 0.15985,0.15985 0.27891,0.0115 0.43519,-0.0511 0.34727,-0.13897 z m 34.64272,-13.40004 c -0.0734,-0.1819 -0.13346,-0.0331 -0.13346,0.33073 0,0.3638 0.0601,0.51263 0.13346,0.33073 0.0734,-0.1819 0.0734,-0.47956 0,-0.66146 z m 33.77487,-6.98465 c 0.0944,-0.0944 -0.24294,-0.63053 -0.74965,-1.19139 -1.06702,-1.18107 -1.16797,-2.04531 -0.36984,-3.16619 0.64775,-0.90968 2.30488,-1.82079 3.31164,-1.82079 0.89139,0 3.05833,1.06219 2.93506,1.43871 -0.0506,0.15459 -0.49957,0.31933 -0.99769,0.36609 -1.21111,0.11368 -1.47674,0.41803 -1.05408,1.20777 0.66496,1.2425 3.12124,1.01118 4.71248,-0.44381 0.32742,-0.29938 0.59665,-0.43429 0.59828,-0.29978 0.005,0.41562 2.36409,-3.43392 2.3714,-3.86971 0.004,-0.22556 -0.14195,-0.56786 -0.32385,-0.76068 -0.26183,-0.27754 -0.26256,-0.37559 -0.004,-0.47066 0.90746,-0.33306 1.41238,-1.09596 1.67236,-2.52682 0.33839,-1.86237 0.007,-4.54671 -0.78619,-6.37695 -0.58069,-1.33914 -0.72226,-1.38983 -2.24712,-0.80469 -0.67781,0.2601 -0.50456,-0.58486 0.24001,-1.17053 0.89943,-0.70749 0.83078,-1.51837 -0.21726,-2.56641 -1.208,-1.20799 -2.62305,-1.46742 -3.5017,-0.64197 -0.79654,0.74831 -0.85795,0.23222 -0.0992,-0.8334 0.8138,-1.14288 0.5844,-1.84761 -0.8539,-2.62319 -0.67784,-0.36552 -1.48411,-0.89234 -1.79172,-1.17073 -0.53259,-0.48198 -0.60366,-0.48499 -1.48853,-0.063 -1.24888,0.59556 -2.2101,0.55799 -2.92577,-0.11434 -0.55503,-0.52143 -0.63262,-0.52998 -1.2004,-0.13229 -0.87964,0.61613 -2.52584,0.56516 -2.73206,-0.0846 -0.11247,-0.35435 -0.56774,-0.59681 -1.49336,-0.79532 -2.26981,-0.48679 -2.79429,-1.07319 -2.10756,-2.35637 0.20835,-0.38929 0.10169,-0.45164 -0.77261,-0.45164 -1.17355,0 -1.93035,-0.57433 -2.67225,-2.02795 -0.59577,-1.1673 -0.62544,-2.00659 -0.0957,-2.70695 0.21365,-0.28247 0.38846,-0.95949 0.38846,-1.50448 0,-0.81959 0.24573,-1.27266 1.42143,-2.62074 1.68492,-1.93195 2.47114,-2.49102 4.34197,-3.08747 0.97306,-0.31023 1.35521,-0.55654 1.25772,-0.81061 -0.077,-0.20074 -0.0211,-0.58726 0.12429,-0.85892 0.15754,-0.29437 0.16646,-0.55445 0.0221,-0.64368 -0.13325,-0.0824 -0.32398,-0.63329 -0.42383,-1.22431 -0.13151,-0.77842 -0.35741,-1.1547 -0.81966,-1.36532 -0.62295,-0.28383 -0.62625,-0.3018 -0.13888,-0.75586 0.56127,-0.52289 0.47924,-1.7765 -0.13158,-2.01089 -0.4516,-0.1733 -0.46555,-0.66652 -0.0312,-1.10081 0.18191,-0.18185 0.34933,-0.59261 0.37205,-0.91281 0.0227,-0.3202 0.12592,-1.01835 0.22934,-1.55146 l 0.18802,-0.96929 -2.09459,0.14357 c -3.21051,0.22005 -5.81685,-0.66657 -8.8831,-3.02186 -1.02102,-0.78427 -1.55767,-1.0554 -1.62779,-0.8224 -0.0575,0.19118 -0.25793,0.94291 -0.44531,1.67052 -0.18738,0.7276 -0.7348,2.30346 -1.21648,3.5019 -1.0588,2.63433 -1.13895,4.27663 -0.29364,6.01653 0.51727,1.06471 0.54481,1.30141 0.24715,2.12457 -0.29916,0.82732 -0.27653,1.00844 0.21162,1.69398 0.30062,0.42219 0.55033,1.10643 0.5549,1.52053 0.011,0.99722 1.05136,1.77881 2.06995,1.55509 0.61516,-0.13511 0.78928,-0.0484 1.04943,0.52255 0.41404,0.90873 0.38135,1.73618 -0.0934,2.36385 -0.53193,0.70328 -0.48746,1.54626 0.10096,1.91373 0.26917,0.1681 0.74831,0.85643 1.06475,1.52961 0.31643,0.67319 0.75756,1.29391 0.98029,1.37938 0.23276,0.0893 0.37243,0.40356 0.32847,0.73902 -0.0527,0.4019 0.39211,1.10143 1.42848,2.24665 1.80913,1.99915 3.49991,5.3082 3.91494,7.66197 0.16452,0.93305 0.28539,2.71898 0.2686,3.96875 -0.0168,1.24977 0.0749,4.41543 0.20374,7.0348 0.1953,3.97041 0.33596,5.02653 0.84574,6.35 0.80875,2.09967 1.23857,2.72244 2.22268,3.22043 0.45133,0.22839 1.04217,0.60926 1.31297,0.84638 0.27081,0.23711 0.80659,0.43111 1.19063,0.43111 0.56504,0 0.71422,0.13881 0.78197,0.7276 0.0688,0.59827 0.21385,0.72761 0.8158,0.72761 0.40264,0 0.80931,-0.0772 0.90371,-0.17163 z m -15.95843,-5.5013 c 0,-0.0642 -0.11907,-0.19026 -0.26459,-0.2802 -0.14552,-0.0899 -0.26458,-0.0374 -0.26458,0.11668 0,0.15411 0.11906,0.2802 0.26458,0.2802 0.14552,0 0.26459,-0.0525 0.26459,-0.11668 z m -33.60209,-7.24109 c 0,-0.1177 -0.18052,-0.44512 -0.40117,-0.7276 -0.37201,-0.47625 -0.37854,-0.46068 -0.0898,0.21401 0.31152,0.728 0.49099,0.91574 0.49099,0.51359 z m 26.03835,-1.30734 c -0.21183,-1.17166 -0.10811,-1.01774 -0.83678,-1.24173 -0.66722,-0.20509 -0.85092,0.30036 -0.19996,0.55016 0.21744,0.0834 0.331,0.25584 0.25235,0.3831 -0.18579,0.3006 0.34975,1.30066 0.69651,1.30066 0.16434,0 0.19818,-0.3821 0.0879,-0.99219 z M 103.992,156.866 c -0.15576,-0.29104 -0.34273,-0.52916 -0.41549,-0.52916 -0.0728,0 -0.005,0.23812 0.15091,0.52916 0.15576,0.29104 0.34273,0.52917 0.41549,0.52917 0.0728,0 0.005,-0.23813 -0.15091,-0.52917 z m 37.17396,0.26459 c 0.0899,-0.14553 -0.0887,-0.26459 -0.39688,-0.26459 -0.30822,0 -0.48681,0.11906 -0.39687,0.26459 0.0899,0.14552 0.26853,0.26458 0.39687,0.26458 0.12835,0 0.30694,-0.11906 0.39688,-0.26458 z m -31.47454,-1.04074 c -0.0959,-0.1552 -0.30102,-0.28218 -0.45576,-0.28218 -0.17545,0 -0.15538,0.15181 0.0533,0.40327 0.36289,0.43725 0.68721,0.33967 0.40245,-0.12109 z m -1.85954,-1.81235 -1.02846,-0.98337 0.9094,1.07867 c 0.50016,0.59327 0.96297,1.03578 1.02845,0.98337 0.0655,-0.0524 -0.34374,-0.53782 -0.90939,-1.07867 z m 25.70796,-0.65264 c -0.0539,-0.47295 -0.36721,-1.44717 -0.6963,-2.16495 -0.50338,-1.09794 -0.63911,-1.23221 -0.85522,-0.84605 -0.16199,0.28947 -0.16436,0.57606 -0.006,0.77589 0.13776,0.17428 0.45439,0.94195 0.70362,1.70594 0.50453,1.54657 1.00555,1.85691 0.85429,0.52917 z m -27.92804,-1.17079 c -0.3119,-0.53636 -0.38722,-0.36468 -0.13191,0.30066 0.0907,0.23646 0.22072,0.37419 0.28884,0.30607 0.0681,-0.0681 -0.002,-0.34115 -0.15693,-0.60673 z m 1.5552,0.1786 c 0.21828,-0.14107 0.27781,-0.25648 0.13229,-0.25648 -0.14552,0 -0.44318,0.11541 -0.66146,0.25648 -0.21828,0.14106 -0.27781,0.25648 -0.13229,0.25648 0.14552,0 0.44318,-0.11542 0.66146,-0.25648 z m -5.90468,-1.63711 c -0.0845,-0.21107 -0.14715,-0.14837 -0.15985,0.15985 -0.0115,0.27892 0.0511,0.43519 0.13897,0.34727 0.0879,-0.0879 0.0973,-0.31613 0.0209,-0.50712 z m 36.17962,-1.23917 c -0.57204,-0.556 -0.78412,-0.52257 -0.55031,0.0867 0.0862,0.22456 0.35984,0.40829 0.60815,0.40829 0.40496,0 0.399,-0.051 -0.0578,-0.49503 z m -30.24211,-1.95678 c -0.26131,-0.25936 -0.2917,-0.22897 -0.14811,0.14812 0.0994,0.26093 0.2473,0.40778 0.32876,0.32631 0.0815,-0.0815 1.7e-4,-0.29495 -0.18065,-0.47443 z m 11.01785,-2.47299 c -0.17328,-0.38031 -0.36057,-0.5549 -0.41621,-0.38798 -0.0556,0.16692 0.0437,0.47808 0.22083,0.69147 0.47989,0.57823 0.54854,0.4716 0.19538,-0.30349 z m -2.49271,-0.51057 c -0.0862,-0.22456 -0.21342,-0.35154 -0.28277,-0.28219 -0.0694,0.0694 -0.0476,0.25309 0.0483,0.40829 0.2609,0.42213 0.41338,0.34012 0.23448,-0.1261 z m -23.97531,-0.73226 c -0.16759,-0.50277 -0.60885,-0.46726 -0.60885,0.049 0,0.30883 0.13531,0.45033 0.35136,0.36743 0.19325,-0.0742 0.30912,-0.26155 0.25749,-0.41643 z m 1.29477,-0.81576 -0.15056,-0.82182 0.39814,0.7276 c 0.44014,0.80437 0.9777,0.99446 0.74821,0.26459 -0.13799,-0.43885 -0.12583,-0.43907 0.2329,-0.004 0.5713,0.69267 0.73564,0.2683 0.23613,-0.60973 -0.42249,-0.74264 -0.836,-1.01626 -0.836,-0.55319 0,0.12213 -0.35719,0.2008 -0.79375,0.17483 -0.88816,-0.0528 -0.90195,-0.0351 -0.52305,0.6729 0.21842,0.40812 0.19287,0.47595 -0.13229,0.35117 -0.47089,-0.1807 -0.53476,0.19354 -0.10617,0.62213 0.54961,0.54961 1.09006,0.0687 0.92644,-0.82438 z m 22.15137,0.48969 c -0.0862,-0.22456 -0.21342,-0.35155 -0.28277,-0.28219 -0.0694,0.0693 -0.0476,0.25308 0.0483,0.40829 0.26089,0.42213 0.41338,0.34012 0.23447,-0.1261 z m 1.79995,-1.08743 c -0.2898,-0.55981 -0.7175,-1.25595 -0.95045,-1.547 -0.23295,-0.29104 -0.0339,0.20483 0.44231,1.10194 0.47621,0.89711 0.90392,1.59326 0.95045,1.547 0.0465,-0.0463 -0.1525,-0.54214 -0.44231,-1.10194 z m -20.68547,0.63582 c -0.0118,-0.4446 -0.92869,-1.52136 -1.29542,-1.52136 -0.26563,0 -0.15763,1.07715 0.16579,1.65365 0.18654,0.33251 1.13903,0.22096 1.12963,-0.13229 z m 18.14144,-0.97541 c -0.22099,-0.42734 -0.53358,-0.85843 -0.69465,-0.95797 -0.30578,-0.18899 0.11773,0.76838 0.62118,1.40421 0.45481,0.57439 0.49017,0.35958 0.0735,-0.44624 z m 32.18815,-6.03605 c -0.44484,-0.35393 -1.75164,-0.46357 -1.57685,-0.13229 0.0576,0.10914 0.33256,0.68873 0.61105,1.28797 l 0.50633,1.08955 0.43758,-0.95725 c 0.39712,-0.86875 0.39914,-0.98783 0.0219,-1.28798 z m -34.80215,-0.51123 c -0.34957,-0.67084 -2.02489,-1.94131 -2.02489,-1.53557 0,0.0913 0.50286,0.76229 1.11748,1.49118 1.1433,1.3559 1.60254,1.37836 0.90741,0.0444 z m 10.14595,-1.24231 c 0,-0.0549 -0.20836,-0.2633 -0.46302,-0.46302 -0.41965,-0.32911 -0.42901,-0.31975 -0.0999,0.0999 0.34564,0.44073 0.56292,0.58089 0.56292,0.36313 z m 30.69166,-0.29698 c 0,-0.21828 -0.11906,-0.39688 -0.26458,-0.39688 -0.14552,0 -0.26458,0.1786 -0.26458,0.39688 0,0.21828 0.11906,0.39687 0.26458,0.39687 0.14552,0 0.26458,-0.17859 0.26458,-0.39687 z m -31.94843,-0.57211 c -0.18191,-0.0734 -0.47956,-0.0734 -0.66146,0 -0.1819,0.0734 -0.0331,0.13346 0.33073,0.13346 0.3638,0 0.51263,-0.0601 0.33073,-0.13346 z m -6.35,-4.90362 c 0.25466,0.0104 0.46302,-0.0886 0.46302,-0.21995 0,-0.38269 -0.83007,-0.70649 -2.18282,-0.85149 -0.96581,-0.10352 -1.25677,-0.0488 -1.25677,0.23628 0,0.20405 0.35719,0.44243 0.79375,0.52974 0.43657,0.0873 0.79375,0.27567 0.79375,0.41857 0,0.1457 0.20338,0.17376 0.46302,0.0639 0.25467,-0.10776 0.67138,-0.18743 0.92605,-0.17704 z m 10.412,-0.8175 c 0.94609,-0.54655 2.22185,-1.72645 2.22185,-2.05491 0,-0.20458 -0.2513,-0.25546 -0.7276,-0.14732 -0.40019,0.0909 -1.04838,0.2173 -1.44043,0.28099 -0.92554,0.15035 -2.32989,0.87956 -2.32989,1.2098 0,0.14179 -0.007,0.34709 -0.0156,0.45623 -0.0145,0.18478 0.86894,0.5209 1.47083,0.55956 0.14552,0.009 0.5149,-0.12761 0.82086,-0.30435 z m -13.12398,-10.87384 c 0,-0.20132 -0.32694,-0.42853 -0.72653,-0.50492 l -0.72652,-0.13888 0.62354,0.50491 c 0.74388,0.60235 0.82951,0.61669 0.82951,0.13889 z m 15.74992,-1.17016 c -0.0855,-0.0855 -0.47936,0.18344 -0.87513,0.59775 l -0.71959,0.75329 0.87513,-0.59775 c 0.48132,-0.32876 0.80514,-0.66774 0.71959,-0.75329 z m -8.55336,-0.28855 c 1.75211,-0.60282 3.44838,-1.64091 4.70755,-2.88097 l 0.92818,-0.91409 -0.9416,0.68605 c -1.43641,1.04656 -5.77476,3.01882 -7.26049,3.30067 l -1.32291,0.25098 1.21535,0.0296 c 0.66844,0.0163 1.8717,-0.19623 2.67392,-0.47223 z m 41.35448,-0.29193 c -0.29104,-0.12507 -0.88636,-0.22009 -1.32292,-0.21116 -0.77506,0.0159 -0.77195,0.0208 0.13229,0.21116 1.29887,0.2734 1.82687,0.2734 1.19063,0 z m -56.75313,-0.78444 c 0,-0.3399 -1.05602,-0.89356 -1.27901,-0.67057 -0.0965,0.0965 0.0556,0.34422 0.33781,0.5506 0.59745,0.43687 0.9412,0.48068 0.9412,0.11997 z m 23.5466,-1.66296 c 8e-4,-0.10914 -0.17309,-0.19843 -0.38625,-0.19843 -0.44641,0 -0.93975,0.80139 -0.92583,1.50396 0.008,0.38286 0.14163,0.31924 0.66014,-0.31334 0.35785,-0.43656 0.65122,-0.88305 0.65194,-0.99219 z m -1.68246,-1.97041 c -0.10839,-0.10839 -0.30784,-0.0219 -0.44322,0.19214 -0.40737,0.64414 -0.28518,0.93041 0.19302,0.45221 0.246,-0.246 0.35859,-0.53596 0.2502,-0.64435 z m 34.94962,-0.23996 c -0.0879,-0.0879 -0.31612,-0.0973 -0.50712,-0.0209 -0.21106,0.0845 -0.14837,0.14716 0.15986,0.15985 0.27891,0.0115 0.43518,-0.051 0.34726,-0.13896 z m -5.39618,-2.02296 c -0.32793,-1.73054 -1.14674,-2.47743 -1.14674,-1.046 0,0.69978 0.7022,1.8948 1.11786,1.90239 0.1055,0.002 0.1185,-0.38345 0.0289,-0.85639 z m -37.13008,0.34573 c 0,-0.49294 -1.11992,-1.05899 -1.59361,-0.80548 -0.24941,0.13348 -0.52866,0.16751 -0.62056,0.0756 -0.0919,-0.0919 -0.16708,-0.0282 -0.16708,0.1416 0,0.32395 0.0328,0.33835 1.00056,0.43902 0.33203,0.0345 0.6793,0.13841 0.77171,0.23082 0.25078,0.25078 0.60898,0.20281 0.60898,-0.0816 z m -15.11918,-0.46698 c 0.18371,-0.32828 0.133,-0.54569 -0.18529,-0.7944 -0.40316,-0.31501 -0.40117,-0.32951 0.0248,-0.18117 0.3638,0.12669 0.46302,0.0134 0.46302,-0.52852 0,-0.37937 0.0298,-0.77906 0.0661,-0.8882 0.11425,-0.34274 -1.13509,-0.38671 -1.53591,-0.0541 -0.48657,0.40381 -0.49568,1.04625 -0.0148,1.04625 0.20211,0 0.36195,0.14882 0.35519,0.33073 -0.0549,1.47816 0.32394,1.96809 0.82689,1.06937 z m 55.4367,-0.27562 c -0.0956,-0.40019 -0.27852,-0.86135 -0.40648,-1.0248 -0.12797,-0.16346 -0.15834,-0.49088 -0.0675,-0.72761 0.10716,-0.27926 0.0262,-0.43041 -0.23058,-0.43041 -0.24279,0 -0.46287,-0.3579 -0.56946,-0.92604 -0.17124,-0.91281 -0.9435,-1.34593 -0.9435,-0.52917 0,0.21829 0.15875,0.39688 0.35278,0.39688 0.32996,0 0.42681,0.2864 0.4625,1.36768 0.008,0.2429 0.17581,0.50351 0.37286,0.57913 0.20889,0.0802 0.30068,0.35776 0.22014,0.66575 -0.13137,0.50238 0.34481,1.32462 0.77957,1.34612 0.11192,0.006 0.12527,-0.31735 0.0297,-0.71753 z m -17.43106,-0.71941 c -0.83309,-0.68288 -1.47967,-0.91964 -0.87879,-0.32179 0.3624,0.36058 1.30875,0.95391 1.54025,0.96569 0.0728,0.004 -0.2249,-0.28605 -0.66146,-0.6439 z m 3.74757,-0.31775 c 0.29782,-0.1199 0.37838,-0.0771 0.24897,0.1323 -0.10522,0.17025 -0.0577,0.30954 0.10552,0.30954 0.16325,0 0.26255,-0.20836 0.22066,-0.46302 -0.0419,-0.25466 0.0172,-0.61185 0.13127,-0.79375 0.14216,-0.22664 0.0271,-0.33073 -0.36564,-0.33073 -0.40698,0 -0.52783,-0.11794 -0.41695,-0.40689 0.0879,-0.22894 -0.0111,-0.47106 -0.2262,-0.55361 -0.21029,-0.0807 -0.45717,-0.38245 -0.54861,-0.67057 -0.0915,-0.28813 -0.31931,-0.46514 -0.50636,-0.39336 -0.19937,0.0765 -0.32632,-0.0524 -0.30682,-0.31159 0.0194,-0.25786 -0.12637,-0.40727 -0.3498,-0.35852 -0.78501,0.1713 -2.39507,0.19017 -2.39507,0.0281 0,-0.0924 -0.33712,-0.15532 -0.74916,-0.13983 -0.41204,0.0155 -0.74938,0.17701 -0.74965,0.35891 -2.7e-4,0.1819 0.0987,0.33073 0.21999,0.33073 0.12127,0 0.22049,0.16845 0.22049,0.37434 0,0.39611 2.37753,2.27149 2.87972,2.27149 0.1624,0 0.54261,0.24733 0.8449,0.54962 0.3023,0.3023 0.71901,0.48089 0.92604,0.39688 0.20703,-0.084 0.57455,-0.23251 0.8167,-0.33001 z m -25.31111,-1.18249 c 0,-0.13464 0.26789,-0.3472 0.59531,-0.47236 0.58688,-0.22433 0.58504,-0.23023 -0.13046,-0.41657 -0.93971,-0.24474 -0.72003,-0.57134 0.52872,-0.78606 0.54494,-0.0937 1.60012,-0.37808 2.34484,-0.63196 l 1.35404,-0.46161 -2.80924,-0.86379 c -2.29834,-0.7067 -2.92955,-0.81113 -3.47071,-0.57422 -0.47351,0.2073 -0.50873,0.2612 -0.12393,0.18971 0.4665,-0.0867 0.52414,0.0148 0.43624,0.7677 -0.0645,0.55212 -0.22009,0.82199 -0.42802,0.7422 -0.34945,-0.13409 -0.39186,0.61367 -0.0648,1.14284 0.132,0.21359 -0.008,0.27336 -0.45228,0.19283 -0.45878,-0.0832 -0.62713,-0.005 -0.58631,0.27347 0.0721,0.49151 0.42536,0.86485 0.42536,0.44958 0,-0.16977 0.12708,-0.30868 0.28241,-0.30868 0.15856,0 0.21136,0.22387 0.12041,0.51045 -0.13005,0.40974 -0.0161,0.52877 0.57748,0.60332 0.88206,0.11077 1.40095,-0.0214 1.40095,-0.35685 z m 19.23599,-0.43734 c -0.53886,-0.55184 -0.97974,-1.13442 -0.97974,-1.29461 0,-0.1602 -0.19362,-0.36557 -0.43026,-0.45637 -0.37648,-0.14447 -0.37063,-0.0736 0.0468,0.567 0.50309,0.77207 1.91679,2.18732 2.18493,2.18732 0.0869,0 -0.28288,-0.4515 -0.82173,-1.00334 z m -34.9011,-2.47565 c -0.98607,-0.62556 -1.75415,0.24133 -0.93749,1.0581 0.2646,0.26463 0.42559,0.21362 0.8052,-0.25512 0.37471,-0.46271 0.40252,-0.63154 0.13229,-0.80298 z m 43.97553,0.007 c 0,-0.14507 -0.11049,-0.19547 -0.24554,-0.11201 -0.13504,0.0835 -0.31918,-0.0803 -0.40919,-0.36389 -0.09,-0.2836 -0.36647,-0.50304 -0.61436,-0.48765 -0.24789,0.0154 -0.70858,-0.0568 -1.02375,-0.16043 -0.35082,-0.11534 -0.64982,-0.0642 -0.77101,0.1319 -0.13492,0.2183 -0.062,0.26815 0.22884,0.15653 0.28582,-0.10968 0.38254,-0.0484 0.29278,0.18548 -0.18895,0.49241 0.62212,0.73715 1.27859,0.38581 0.44475,-0.23802 0.52267,-0.22286 0.40678,0.0791 -0.0901,0.23479 0.0424,0.38753 0.35676,0.41121 0.27505,0.0207 0.5001,-0.081 0.5001,-0.22608 z m 5.8865,-0.96013 c -0.29946,-0.25466 -0.91971,-0.76068 -1.37833,-1.12448 -0.45862,-0.3638 -1.24386,-1.00122 -1.74497,-1.416472 -0.50112,-0.41526 -0.91112,-0.68394 -0.91112,-0.59706 0,0.0869 -0.52923,-0.22822 -1.17607,-0.7002 -0.64683,-0.47198 -1.59501,-1.11769 -2.10706,-1.4349 l -0.93101,-0.57676 0.0976,1.23822 c 0.0537,0.68101 0.22021,1.23821 0.37012,1.23821 0.36879,0 3.32705,1.536832 3.43777,1.785942 0.0485,0.10914 0.2345,0.19844 0.41332,0.19844 0.34537,0 2.23226,0.82504 3.33494,1.45819 0.91701,0.52655 1.24981,0.48787 0.59484,-0.0691 z m -28.9147,-0.44609 c -0.52681,-0.51663 -4.41489,-2.515862 -4.57719,-2.353572 -0.0715,0.0715 -0.42409,-0.0628 -0.78359,-0.29832 -0.35949,-0.23555 -0.77814,-0.39389 -0.93032,-0.35187 -0.15218,0.042 -0.43746,-0.13897 -0.63396,-0.40222 -0.29825,-0.39958 -0.48089,-0.43163 -1.10576,-0.19405 -0.64161,0.24394 -0.69929,0.34387 -0.40388,0.69981 0.18954,0.22838 0.88709,0.65941 1.55011,0.95784 0.66302,0.298432 1.82444,0.824562 2.58093,1.169182 1.45502,0.66284 2.9599,1.08258 4.03907,1.12657 0.57003,0.0232 0.60329,-0.0212 0.26459,-0.35337 z m -20.62805,-0.75777 c 0,-0.38125 -0.51694,-0.978952 -0.84667,-0.978952 -0.34483,0 -0.24083,1.002472 0.11906,1.147682 0.56199,0.22677 0.72761,0.18837 0.72761,-0.16873 z M 84.02853,97.908228 c 0.47982,-0.98461 0.34979,-1.35873 -0.28821,-0.82924 -0.52085,0.43227 -1.04755,1.45759 -1.28649,2.50437 l -0.18117,0.793752 0.66318,-0.793752 c 0.36475,-0.43656 0.85646,-1.19037 1.09269,-1.67513 z m -2.26742,0.66733 -0.006,-0.84428 -0.50465,0.65679 c -0.36223,0.47144 -0.42678,0.75064 -0.22872,0.98928 0.41629,0.5016 0.74585,0.14416 0.73926,-0.80179 z m -0.17106,-2.27095 c -0.0593,-0.23398 0.0548,-1.27699 0.25349,-2.31781 0.32145,-1.684 0.31677,-1.87532 -0.0425,-1.73747 -0.28195,0.10819 -0.22081,-0.10193 0.20269,-0.69669 0.58608,-0.82307 0.602,-1.62657 0.0322,-1.62657 -0.36165,0 -1.26515,1.49583 -1.4718,2.43671 -0.21057,0.95868 -0.43875,0.93118 -1.55768,-0.18775 -0.50933,-0.50932 -1.01931,-0.92031 -1.1333,-0.91331 -0.11399,0.007 -0.71076,0.68092 -1.32614,1.4976 -0.88451,1.17385 -1.08391,1.6284 -0.95194,2.17008 0.27206,1.11676 1.37827,2.22628 2.96447,2.97334 l 1.4876,0.70063 0.82529,-0.93667 c 0.45391,-0.51518 0.77681,-1.12812 0.71755,-1.36209 z m -1.67514,-2.37856 c 0,-0.14552 0.11907,-0.33817 0.26459,-0.42811 0.14552,-0.0899 0.26458,-0.0444 0.26458,0.10107 0,0.14552 -0.11906,0.33816 -0.26458,0.4281 -0.14552,0.0899 -0.26459,0.0445 -0.26459,-0.10106 z m 34.66042,3.68124 c 0,-0.14095 -0.17859,-0.18775 -0.39687,-0.10399 -0.21828,0.0838 -0.39688,0.19909 -0.39688,0.25629 0,0.0572 0.1786,0.10398 0.39688,0.10398 0.21828,0 0.39687,-0.11533 0.39687,-0.25628 z m 0.30612,-1.94399 c 0.18883,-0.33744 0.0953,-0.46755 -0.43109,-0.59966 -0.88157,-0.22126 -2.38713,0.071 -2.77535,0.53881 -0.24946,0.30059 -0.16691,0.39188 0.43644,0.48262 1.33872,0.20136 2.52211,0.0212 2.77,-0.42177 z m 20.48196,-0.47514 c 0.1,-0.1618 0.0748,-0.37016 -0.0559,-0.46302 -0.13075,-0.0929 -0.38368,-0.50091 -0.56207,-0.90674 -0.43346,-0.98609 -2.58813,-3.26482 -3.53257,-3.73596 -1.61039,-0.803375 -3.14044,-0.824925 -2.68402,-0.0378 0.76448,1.31838 3.74527,4.49588 3.98895,4.2522 0.0737,-0.0737 0.30515,0.11023 0.51427,0.4088 0.30003,0.42835 0.54919,0.50573 1.18131,0.36689 0.55453,-0.12179 0.74538,-0.0858 0.62008,0.11693 -0.0996,0.16109 -0.0619,0.29288 0.0836,0.29288 0.14552,0 0.3464,-0.13237 0.44639,-0.29416 z m -91.15936,-0.48486 c -0.15142,-0.28293 -0.41213,-0.59898 -0.57935,-0.70233 -0.20374,-0.12592 -0.23332,-0.0653 -0.0897,0.1837 0.56747,0.98372 1.16642,1.44803 0.66902,0.51863 z m 93.61208,-1.70425 c 0.0781,-0.40966 -0.0279,-0.47538 -0.59261,-0.36742 -0.69008,0.13192 -0.9771,-0.18284 -0.35704,-0.39153 0.2583,-0.0869 0.25173,-0.20701 -0.03,-0.5483 -0.19839,-0.24034 -0.46628,-0.37174 -0.59531,-0.29199 -0.12904,0.0797 -0.23461,-0.002 -0.23461,-0.18257 0,-0.6378 -2.72334,-2.878675 -3.49845,-2.878675 -0.69025,0 -0.57295,0.64939 0.19116,1.05833 0.3638,0.1947 0.66146,0.470695 0.66146,0.613305 0,0.14261 0.41672,0.664 0.92604,1.15865 0.50932,0.49465 0.92604,1.01269 0.92604,1.15121 0,0.22817 0.18496,0.28829 0.71451,0.23222 0.10193,-0.0108 0.27979,0.23571 0.39523,0.54778 0.26159,0.70714 1.3535,0.63329 1.49356,-0.10101 z m -18.74288,-1.2209 c 0,-0.14552 -0.11204,-0.26458 -0.24897,-0.26458 -0.13693,0 -0.32255,0.11906 -0.41249,0.26458 -0.0899,0.14552 0.0221,0.26459 0.24897,0.26459 0.22687,0 0.41249,-0.11907 0.41249,-0.26459 z m 5.92298,-5.960784 c 0.45689,-0.456888 0.29562,-1.182968 -0.26275,-1.182968 -0.20271,0 -0.37741,0.0893 -0.38823,0.198438 -0.0108,0.10914 -0.0696,0.466328 -0.13063,0.79375 -0.12857,0.689776 0.20194,0.77045 0.78161,0.19078 z m -1.42506,-1.511969 c 0,0.155199 0.17514,0.256471 0.38921,0.225054 1.03339,-0.151669 0.75229,-0.841475 -0.78609,-1.92904 -1.77282,-1.253305 -2.4784,-1.547566 -2.8411,-1.184871 -0.2461,0.2461 -0.20605,0.52263 0.1793,1.238196 0.27289,0.506731 0.65327,0.921329 0.84528,0.921329 0.19201,0 0.54664,0.301461 0.78806,0.669914 0.41524,0.633743 0.46557,0.645814 0.93214,0.223576 0.27126,-0.245486 0.4932,-0.319358 0.4932,-0.164158 z m -11.37709,-0.625173 c 0,-0.218976 -0.51375,-0.342808 -0.63153,-0.152222 -0.0764,0.123642 0.0344,0.224803 0.2463,0.224803 0.21188,0 0.38523,-0.03266 0.38523,-0.07258 z m 1.32187,-0.1055 c 0.13491,0.218279 0.25542,0.232267 0.37226,0.04322 0.095,-0.153757 -0.0687,-0.408783 -0.3638,-0.566725 -0.4678,-0.250359 -0.5339,-0.20967 -0.51569,0.317454 0.0119,0.344208 0.0827,0.44928 0.16432,0.243955 0.10976,-0.276002 0.19026,-0.284899 0.34291,-0.0379 z m 1.32397,-0.247278 c 0,-0.136932 -0.11907,-0.322553 -0.26459,-0.41249 -0.14552,-0.08994 -0.26458,0.0221 -0.26458,0.248969 0,0.226869 0.11906,0.41249 0.26458,0.41249 0.14552,0 0.26459,-0.112036 0.26459,-0.248969 z m 0.52916,-0.516474 c 0,-0.275472 -0.16276,-0.563316 -0.36169,-0.639653 -0.29215,-0.112108 -0.30487,-0.01621 -0.0661,0.498795 0.35713,0.770454 0.42783,0.793732 0.42783,0.140858 z m 0.97014,-0.413543 c 0,-0.211881 -0.10116,-0.322716 -0.2248,-0.246302 -0.12364,0.07641 -0.1563,0.249771 -0.0726,0.385237 0.21395,0.346176 0.29738,0.307196 0.29738,-0.138935 z m -3.86535,-1.703025 c -0.16412,-0.306665 -0.48739,-0.557572 -0.71837,-0.557572 -0.33768,0 -0.35732,0.07548 -0.1002,0.385284 0.17586,0.211907 0.24923,0.499394 0.16304,0.638861 -0.1964,0.317779 0.42885,0.569343 0.73098,0.294104 0.12262,-0.111708 0.0887,-0.454013 -0.0754,-0.760677 z m -4.7777,-0.02841 c 0,-0.145521 -0.0525,-0.264583 -0.11668,-0.264583 -0.0642,0 -0.19026,0.119062 -0.2802,0.264583 -0.0899,0.145521 -0.0374,0.264584 0.11668,0.264584 0.15411,0 0.2802,-0.119063 0.2802,-0.264584 z m 3.57,-1.055303 c 0.0927,-0.149981 -0.0135,-0.194338 -0.24897,-0.103984 -0.45837,0.175893 -0.54223,0.365537 -0.16165,0.365537 0.13693,0 0.32171,-0.117699 0.41062,-0.261553 z m 1.85249,-0.269236 c -0.2642,-0.291933 -0.55036,-0.460792 -0.63591,-0.375242 -0.0855,0.08555 0.0754,0.324406 0.35763,0.530789 0.72493,0.530081 0.84037,0.465556 0.27828,-0.155547 z m -6.21624,-0.896112 c 0,-0.05719 -0.18478,-0.17489 -0.41062,-0.261552 -0.23546,-0.09036 -0.34166,-0.046 -0.24897,0.103984 0.15538,0.251408 0.65959,0.371858 0.65959,0.157568 z m 10.12855,-0.945635 c 0.11696,-0.447289 0.0623,-0.488044 -0.35509,-0.264671 -0.28438,0.152199 -0.42974,0.429774 -0.34318,0.655349 0.18758,0.488816 0.51638,0.304851 0.69827,-0.390678 z m 10.77353,0.25587 c 0,-0.145521 -0.0525,-0.264584 -0.11668,-0.264584 -0.0642,0 -0.19026,0.119063 -0.2802,0.264584 -0.0899,0.14552 -0.0374,0.264583 0.11668,0.264583 0.15411,0 0.2802,-0.119063 0.2802,-0.264583 z m -12.17083,-1.354143 c 0,-0.145521 -0.11907,-0.190999 -0.26459,-0.101062 -0.14552,0.08994 -0.26458,0.282584 -0.26458,0.428105 0,0.145521 0.11906,0.190999 0.26458,0.101062 0.14552,-0.08994 0.26459,-0.282584 0.26459,-0.428105 z m -5.76792,-1.08002 c -0.24694,-0.246944 -0.3175,-0.176389 -0.3175,0.3175 0,0.493889 0.0706,0.564444 0.3175,0.3175 0.24694,-0.246944 0.24694,-0.388056 0,-0.635 z m -1.74239,-0.25852 c -0.21237,-1.061861 -0.22513,-1.072276 -1.05743,-0.863382 -0.87527,0.219679 -0.88955,0.58616 -0.0312,0.801586 0.3638,0.09131 0.66146,0.331702 0.66146,0.534207 0,0.202506 0.13394,0.368192 0.29765,0.368192 0.19331,0 0.23872,-0.294696 0.12954,-0.840603 z m 2.79631,0.25411 c -0.18985,-0.189855 -0.31309,-0.205476 -0.31309,-0.03969 0,0.35316 0.3129,0.666059 0.48948,0.489479 0.0752,-0.07519 -0.004,-0.277592 -0.17639,-0.449792 z m 2.67878,-1.069021 c -0.0632,-0.110169 0.0747,-0.273078 0.30643,-0.362021 0.37602,-0.144293 0.3707,-0.203213 -0.0494,-0.546919 -0.25893,-0.211862 -0.32196,-0.309817 -0.14006,-0.217676 0.1819,0.09214 0.33073,0.05418 0.33073,-0.08436 0,-0.550505 -0.76335,-0.498301 -1.27227,0.08701 -0.51239,0.589294 -0.61551,1.24449 -0.25293,1.607068 0.0912,0.0912 0.0986,0.362537 0.0164,0.602971 -0.0974,0.284915 0.0814,0.206801 0.51333,-0.224305 0.36448,-0.363802 0.61096,-0.751596 0.54772,-0.861764 z m -13.76469,0.630254 c -0.13529,-0.09095 -0.32286,-0.373724 -0.41682,-0.628386 -0.20189,-0.547182 -0.98119,-0.62535 -0.98119,-0.09842 0,0.431935 1.09127,1.223494 1.41731,1.028052 0.12467,-0.07474 0.11599,-0.210299 -0.0193,-0.301249 z m 9.44991,-1.885156 c 0,-0.145521 -0.1786,-0.264584 -0.39688,-0.264584 -0.21828,0 -0.39687,0.119063 -0.39687,0.264584 0,0.145521 0.17859,0.264583 0.39687,0.264583 0.21828,0 0.39688,-0.119062 0.39688,-0.264583 z m 3.57187,-1.5875 c 0.54935,-0.436563 0.91151,-0.79375 0.80481,-0.79375 -0.37546,0 -1.71581,0.902085 -1.84654,1.242769 -0.1877,0.489134 -0.0808,0.443058 1.04173,-0.449019 z m -3.76149,0.242598 c -0.39188,-0.375086 -1.78783,-0.394905 -1.55743,-0.02211 0.075,0.121268 0.50266,0.220486 0.95048,0.220486 0.44781,0 0.72094,-0.08927 0.60695,-0.198373 z m -0.68706,-1.702819 c -0.0282,-0.366559 -0.14011,-0.664215 -0.24874,-0.661458 -0.10862,0.0028 -0.30333,0.005 -0.43269,0.005 -0.31296,0 -0.23271,0.87386 0.1029,1.120428 0.47018,0.345439 0.63084,0.216594 0.57853,-0.463982 z m 4.05168,-0.146444 0.92604,-0.526151 -0.92604,0.17148 c -1.0885,0.201564 -1.32292,0.317458 -1.32292,0.654034 0,0.357946 0.27593,0.295506 1.32292,-0.299363 z m -11.77396,96.327505 c 0.0899,-0.14552 0.21602,-0.26459 0.28019,-0.26459 0.0642,0 0.11668,0.11907 0.11668,0.26459 0,0.14552 -0.12609,0.26458 -0.2802,0.26458 -0.15411,0 -0.20661,-0.11906 -0.11667,-0.26458 z M 62.45241,98.978868 c 0,-0.5522 1.93537,-0.82861 2.24896,-0.3212 0.095,0.15376 -0.16643,0.26458 -0.6242,0.26458 -0.43325,0 -0.97606,0.0723 -1.20624,0.1606 -0.23018,0.0883 -0.41852,0.0415 -0.41852,-0.10398 z m 68.26251,-18.039985 c 0,-0.140953 0.17859,-0.187746 0.39687,-0.103984 0.21828,0.08376 0.39688,0.199088 0.39688,0.25628 0,0.05719 -0.1786,0.103984 -0.39688,0.103984 -0.21828,0 -0.39687,-0.115326 -0.39687,-0.25628 z M 88.60734,76.101075 c 0.1333,-0.133309 0.524,-0.198079 0.8682,-0.143933 0.52962,0.08331 0.49235,0.120576 -0.24238,0.24238 -0.52578,0.08717 -0.77261,0.04834 -0.62582,-0.09845 z m 38.93258,-0.370357 c -0.36458,-0.192133 -0.48333,-0.34852 -0.26459,-0.348436 0.45618,1.73e-4 1.23675,0.442012 1.05067,0.594733 -0.0685,0.05626 -0.42228,-0.05457 -0.78608,-0.246297 z m -3.63802,-2.126272 c 0.25466,-0.06655 0.67138,-0.06655 0.92604,0 0.25466,0.06655 0.0463,0.121 -0.46302,0.121 -0.50933,0 -0.71769,-0.05445 -0.46302,-0.121 z"
       id="path291"
       inkscape:connector-curvature="0" />
  </g>
</svg>
