<?xml version="1.0" encoding="UTF-8" standalone="no"?>
<!-- Created with Inkscape (http://www.inkscape.org/) -->

<svg
   xmlns:dc="http://purl.org/dc/elements/1.1/"
   xmlns:cc="http://creativecommons.org/ns#"
   xmlns:rdf="http://www.w3.org/1999/02/22-rdf-syntax-ns#"
   xmlns:svg="http://www.w3.org/2000/svg"
   xmlns="http://www.w3.org/2000/svg"
   xmlns:sodipodi="http://sodipodi.sourceforge.net/DTD/sodipodi-0.dtd"
   xmlns:inkscape="http://www.inkscape.org/namespaces/inkscape"
   width="41.094299mm"
   height="48.921803mm"
   viewBox="0 0 41.094299 48.921803"
   version="1.1"
   id="svg136"
   inkscape:version="0.92.4 (5da689c313, 2019-01-14)"
   sodipodi:docname="wyvern-corner.svg">
  <defs
     id="defs130" />
  <sodipodi:namedview
     id="base"
     pagecolor="#ffffff"
     bordercolor="#666666"
     borderopacity="1.0"
     inkscape:pageopacity="0.0"
     inkscape:pageshadow="2"
     inkscape:zoom="0.35"
     inkscape:cx="77.658519"
     inkscape:cy="92.450652"
     inkscape:document-units="mm"
     inkscape:current-layer="layer1"
     showgrid="false"
     fit-margin-top="0"
     fit-margin-left="0"
     fit-margin-right="0"
     fit-margin-bottom="0"
     inkscape:window-width="1920"
     inkscape:window-height="991"
     inkscape:window-x="-9"
     inkscape:window-y="-9"
     inkscape:window-maximized="1" />
  <metadata
     id="metadata133">
    <rdf:RDF>
      <cc:Work
         rdf:about="">
        <dc:format>image/svg+xml</dc:format>
        <dc:type
           rdf:resource="http://purl.org/dc/dcmitype/StillImage" />
        <dc:title></dc:title>
      </cc:Work>
    </rdf:RDF>
  </metadata>
  <g
     inkscape:label="Layer 1"
     inkscape:groupmode="layer"
     id="layer1"
     transform="translate(-85.286184,-124.37243)">
    <g
       transform="translate(-85.881486,37.751345)"
       id="g117">
      <path
         sodipodi:nodetypes="cccccccsccccscccccccccccsssccsccscssssscscccsccsccscsccscccccsccccccccsccccccscccscccccccccccsscccccsccccscccccccccscscccccccscccccscccccscccsccccccccccccccsc"
         inkscape:connector-curvature="0"
         id="path21"
         d="m 199.29739,104.75774 c 0.80492,-1.79598 -0.27702,-4.10313 -1.5612,-5.263303 -1.96882,-1.778712 -3.72542,-1.283462 -8.08035,2.278123 -0.71281,0.58295 -1.81871,1.69981 -2.45756,2.48191 -0.63884,0.78209 -1.31698,1.56115 -1.50696,1.73125 -0.53266,0.47689 -0.12627,0.37796 2.08906,-0.50856 1.60356,-0.64171 2.25075,-1.00708 3.00521,-1.69662 0.52884,-0.48333 0.96153,-0.82787 0.96153,-0.76565 0,0.0623 -0.16235,0.43137 -0.36078,0.82033 -0.53138,1.0416 -1.52886,1.95268 -3.00936,2.74872 -1.30725,0.70288 -2.04223,1.50162 -1.49288,1.62238 0.3633,0.0799 3.61326,-1.65925 4.2529,-2.2758 0.29622,-0.28553 0.59578,-0.51916 0.66569,-0.51916 0.36137,0 -0.93617,1.95467 -1.86807,2.81412 -1.78136,1.64289 -2.5003,2.39734 -2.8707,3.01252 -0.22934,0.38091 -0.81885,0.84627 -1.67889,1.32533 -1.17033,0.65192 -1.38163,0.85053 -1.80575,1.69728 -0.26418,0.52743 -0.48287,1.25536 -0.48599,1.61761 -0.005,0.5036 -0.10949,0.72667 -0.4467,0.94762 -0.52475,0.34382 -1.4497,0.22713 -2.04952,-0.25857 l -0.39508,-0.31992 0.55561,-0.11112 c 0.36782,-0.0736 0.52465,-0.19182 0.46401,-0.34987 -0.0535,-0.13946 0.095,-0.32375 0.35702,-0.44315 0.24675,-0.11243 0.44864,-0.33652 0.44864,-0.49799 0,-0.16146 0.1074,-0.38187 0.23867,-0.48978 0.13127,-0.10791 0.41964,-0.65546 0.64084,-1.21677 0.36927,-0.93705 0.38174,-1.07443 0.15239,-1.67888 -0.1691,-0.44566 -0.37611,-0.67657 -0.64084,-0.7148 -0.21509,-0.0311 -0.39106,0.0333 -0.39106,0.14298 0,0.10969 -0.0651,0.15924 -0.14455,0.1101 -0.23034,-0.14235 -1.12625,0.78604 -1.02163,1.05868 0.0546,0.14229 -0.0152,0.24687 -0.1648,0.24687 -0.23426,0 -0.33771,0.21186 -0.28047,0.57436 0.0115,0.0729 -0.0445,0.13254 -0.12441,0.13254 -0.16591,0 -1.09173,1.36226 -1.09173,1.60638 0,0.0885 -0.0795,0.16087 -0.17673,0.16087 -0.0972,0 -0.17672,0.11928 -0.17672,0.26508 0,0.1458 -0.1168,0.26509 -0.25954,0.26509 -0.1581,0 -0.21979,0.10361 -0.15782,0.26508 0.0644,0.16787 -0.003,0.26509 -0.18227,0.26509 -0.37725,0 -0.3778,0.84779 -6.7e-4,1.3859 0.15571,0.22232 0.24679,0.44053 0.20238,0.48494 -0.14942,0.14941 -1.78073,-1.06965 -2.29821,-1.71743 -0.54418,-0.68121 -0.88197,-2.09738 -0.50027,-2.09738 0.11422,0 0.64162,-0.43741 1.17197,-0.97202 l 0.96429,-0.97203 v -1.15107 c 0,-0.63308 -0.0961,-1.30495 -0.21355,-1.49303 -0.17725,-0.28381 -0.13311,-0.5163 0.25958,-1.36721 0.29838,-0.64656 0.73803,-2.36342 1.19028,-4.64811 1.27175,-6.424645 1.23473,-6.375865 1.1735,-1.54634 -0.0297,2.33971 0.0156,4.19721 0.10235,4.19721 0.31599,0 1.89523,-1.76729 4.5007,-5.03665 1.47175,-1.846773 2.63963,-3.394425 2.59528,-3.439225 -0.0919,-0.0928 -0.11319,-0.068 -2.98096,3.463205 -1.16638,1.43621 -2.40689,2.92612 -2.75667,3.31091 l -0.63597,0.69962 0.31978,-1.57544 c 0.17587,-0.8665 0.31571,-1.77426 0.31076,-2.01726 -0.01,-0.4842 -0.0631,-0.30917 -0.61731,2.03234 -0.36306,1.53372 -0.5969,1.8355 -0.5969,0.77033 0,-0.96945 0.36329,-2.24365 0.8332,-2.92241 0.18993,-0.27434 0.48445,-0.85667 0.65451,-1.294063 0.17005,-0.43739 0.43187,-0.93193 0.58182,-1.09898 0.22815,-0.254161 0.23989,-0.433802 0.072,-1.100762 -0.2208,-0.87687 -0.0527,-2.000099 0.44713,-2.987489 0.30375,-0.60007 0.75948,-1.17567 0.92909,-1.17351 0.0579,6.7e-4 0.11266,0.53922 0.12185,1.19661 0.0181,1.296949 0.46667,2.554039 0.8578,2.403949 0.43455,-0.16675 0.86355,-1.372559 1.24157,-3.489739 0.28604,-1.60202 0.91129,-2.99517 1.67081,-3.72284 l 0.52943,-0.50723 -0.0998,1.4846 c -0.11207,1.66763 0.0983,2.51832 0.59972,2.42457 0.30673,-0.0574 0.61423,-0.58889 1.62048,-2.80107 0.58141,-1.27822 1.8159,-2.65243 2.86229,-3.18625 0.3695,-0.188512 0.71552,-0.342746 0.76893,-0.342746 0.0534,0 -0.10097,0.378796 -0.34305,0.841766 -0.47683,0.91191 -0.85281,2.52704 -0.68816,2.95612 0.20541,0.53527 0.7581,0.25729 1.55971,-0.78445 1.48751,-1.93314 3.41289,-3.12032 5.3918,-3.32458 l 0.96669,-0.09978 -0.67122,0.589336 c -0.76967,0.675774 -1.69985,2.195794 -1.7023,2.781724 -0.002,0.55179 0.69159,0.52863 1.56956,-0.0524 1.68375,-1.11425 3.65108,-1.49012 5.62824,-1.0753 1.45391,0.30503 2.06634,0.56697 1.63677,0.70005 -0.1458,0.0452 -0.75682,0.25705 -1.35783,0.47084 -1.85967,0.66152 -3.22025,2.16882 -2.13248,2.36244 3.96989,0.70664 5.12676,1.19402 6.80389,2.86645 1.07978,1.076759 1.40413,1.640409 0.81357,1.413779 -1.31394,-0.5042 -3.68814,-0.39502 -4.34545,0.19983 -0.4905,0.44389 -0.37753,0.70403 0.58818,1.35438 2.20791,1.486902 3.87923,4.337965 4.30522,7.344225 l 0.11104,0.78362 -0.88468,-0.88468 c -0.48657,-0.48658 -1.27618,-1.09777 -1.75468,-1.3582 -0.84469,-0.45974 -0.88139,-0.4643 -1.26129,-0.15667 l -0.3913,0.31685 0.57142,1.58317 c 0.78621,2.17826 0.92668,4.81731 0.36533,6.86347 -0.20789,0.75774 -0.52123,1.65694 -0.69632,1.99822 l -0.31834,0.62052 -0.23108,-1.29866 c -0.24574,-1.38109 -0.9337,-3.15426 -1.2238,-3.15426 -0.0959,0 -0.55759,0.65609 -1.02589,1.45798 -0.96828,1.658 -6.11395,5.67156 -6.11395,5.67156 0,0 0,-5.42728 0,-13.26162 z m -21.67181,9.00946 c 0.22904,-0.62044 -0.14634,-0.65303 -0.46323,-0.0402 -0.26582,0.51403 -0.26469,0.54728 0.0167,0.49177 0.16599,-0.0327 0.36692,-0.23595 0.44651,-0.45155 z m 21.67181,-5.36795 c 6.18422,-5.7573 4.59744,-14.142684 -2.35456,-15.085544 -1.13785,-0.15432 -3.52474,0.38429 -4.97196,1.12194 -1.07508,0.54796 -3.50148,2.455169 -3.33515,2.621499 0.0537,0.0537 0.42244,-0.19568 0.81934,-0.55426 1.74004,-1.572009 4.17988,-2.717719 5.95831,-2.797919 0.9988,-0.045 1.02154,-0.0353 1.34003,0.57272 l 0.32399,0.61854 -0.0748,-0.59296 c -0.0741,-0.58757 -0.0692,-0.59205 0.53464,-0.49406 0.73514,0.1193 1.99012,0.7393 2.29497,1.13379 0.12149,0.15723 0.2209,0.62853 0.2209,1.047349 0,0.87428 0.3101,1.02244 0.4697,0.22441 0.13206,-0.660279 0.36998,-0.603369 0.79563,0.19029 0.42448,0.79149 0.41145,1.42653 -0.0411,2.00183 -0.43574,0.553952 -0.21724,0.609132 0.42172,0.106511 l 0.45658,-0.359141 0.11422,0.608862 c 0.14876,0.79298 0.0191,1.16161 -0.64909,1.845013 -0.61702,0.63112 -0.44838,0.75599 0.26409,0.19555 0.49578,-0.38999 0.52285,-0.36434 0.46765,0.44295 -0.0579,0.84654 -0.31215,1.31503 -0.9254,1.70503 l -0.57876,0.36806 0.57435,-0.0723 c 0.68159,-0.0858 0.73151,0.12972 0.22356,0.96497 -0.1947,0.32016 -0.60755,0.66995 -0.9278,0.78609 -0.5745,0.20833 -0.57489,0.2093 -0.091,0.22269 0.26729,0.007 0.48599,0.10534 0.48599,0.21767 0,0.34338 -0.86034,1.35508 -1.2603,1.48203 -0.27118,0.0861 -0.31415,0.15843 -0.15316,0.25792 -0.40259,0.60651 -0.40259,1.7512 -0.40259,1.22047 z m -19.33037,1.08735 c 0.28573,-0.10863 0.47902,-0.35766 0.5585,-0.71954 0.17259,-0.78579 6.7e-4,-0.83746 -0.56754,-0.17081 -0.90948,1.06653 -0.90773,1.23891 0.009,0.89035 z m 4.48969,-5.6216 c 0.67442,-1.14209 1.60712,-2.79225 2.07267,-3.66705 0.46556,-0.874773 1.00146,-1.848975 1.19089,-2.164865 0.18943,-0.3159 0.27829,-0.57406 0.19747,-0.57371 -0.12048,5.4e-4 -1.7071,2.678805 -3.88597,6.559635 -0.20968,0.37347 -0.55415,0.95881 -0.76549,1.30077 -0.21134,0.34195 -0.30585,0.62173 -0.21002,0.62173 0.0958,0 0.72603,-0.93443 1.40045,-2.07651 z"
         style="fill:#000000;stroke-width:0.17672454" />
      <path
         sodipodi:nodetypes="cccscccccsccscccsccccc"
         inkscape:connector-curvature="0"
         id="path21-4-7"
         d="m 175.06205,134.83599 c -0.16814,-0.38879 -0.50829,-1.58168 -0.75589,-2.65086 -0.42176,-1.8213 -0.77495,-2.65692 -2.06877,-4.89474 -0.53553,-0.92625 -1.18704,-2.65501 -1.05162,-2.79043 0.0483,-0.0483 0.16821,0.056 0.26652,0.23164 0.37661,0.67295 2.32047,1.88034 4.17217,2.59146 1.04296,0.40054 2.30686,0.99847 2.80866,1.32873 0.9031,0.59439 1.96854,1.77168 1.77684,1.96337 -0.0546,0.0546 -0.71042,-0.0271 -1.45734,-0.18152 -1.64806,-0.34083 -1.8504,-0.34616 -1.8504,-0.0488 0,0.33502 0.84654,1.07838 1.76725,1.55181 0.58596,0.30133 1.10137,0.41108 1.95839,0.41709 1.50216,0.0105 2.45142,-0.54604 2.97361,-1.8488 0.32583,-0.81289 0.34505,-1.18463 0.34505,-1.18463 h 3.13584 c 0,0 -0.0544,2.12672 -0.68093,2.94798 -0.82912,1.08676 -3.23232,2.12589 -4.91655,2.12589 -1.75605,0 -3.13376,-0.74402 -4.51306,-2.43725 -0.82149,-1.00847 -0.84903,-1.00007 -1.03567,0.31656 -0.062,0.43739 -0.21519,1.35194 -0.34041,2.03233 l -0.22769,1.23707 z"
         style="fill:#000000;stroke-width:0.17672454" />
    </g>
  </g>
</svg>
