<svg
   xmlns="http://www.w3.org/2000/svg"
   width="55.35128mm"
   height="72.916969mm"
   viewBox="0 0 55.35128 72.916969"
   version="1.1"
   fill="currentColor">
  <g transform="translate(-28.31743,-138.40744)">
    <path d="m 63.627304,211.00722 c -2.50435,-0.79634 -4.565658,-2.57743 -5.197046,-4.49056 -0.962509,-2.91643 0.803418,-7.93128 3.993965,-11.34199 2.063213,-2.20558 3.904803,-3.53051 8.222623,-5.91578 6.498508,-3.58992 8.161195,-5.27404 8.161195,-8.26641 0,-2.98599 -1.273935,-4.82198 -3.586446,-5.16876 -2.431645,-0.36465 -4.650137,0.0707 -16.014931,3.14261 -6.032849,1.63068 -8.985136,2.11129 -13.074666,2.12844 -5.389645,0.0226 -8.600459,-1.13965 -11.641667,-4.21401 -4.361474,-4.40902 -4.622523,-9.71582 -0.73823,-15.00729 1.824068,-2.48487 4.060854,-4.0597 8.868204,-6.24372 3.110339,-1.41305 5.870578,-3.36949 8.213093,-5.82137 2.586696,-2.70746 3.619,-4.89292 2.869684,-6.0753 -0.183417,-0.28942 -0.499552,-0.29987 -1.677096,-0.0554 -3.276568,0.68021 -7.286334,2.64169 -9.431155,4.61349 -1.692286,1.55576 -3.677605,2.59738 -5.802418,3.0443 -1.600448,0.33662 -3.902902,0.35872 -4.683332,0.045 -0.585461,-0.23538 -1.212299,0.0166 -2.308129,0.92776 -0.44844,0.37287 -0.92523,0.5457 -1.2623,0.45755 -0.44642,-0.11674 -0.26881,-0.30305 1.01019,-1.05968 l 1.551851,-0.91803 -0.125934,-1.31062 c -0.1224,-1.27384 -0.09181,-1.34331 1.089989,-2.47568 1.424783,-1.36518 3.42396,-2.08819 6.595837,-2.38542 1.902233,-0.17825 2.17102,-0.28246 3.702931,-1.43563 4.792803,-3.60782 7.088162,-4.76305 9.484043,-4.7732 1.793285,-0.008 2.801181,0.58544 4.27177,2.51349 2.482363,3.25456 2.912914,5.34053 1.79542,8.6986 -1.093804,3.28688 -2.736951,4.67262 -14.270419,12.03492 -4.413531,2.81734 -6.640457,5.15942 -6.640457,6.98383 0,2.0765 1.808985,4.76541 3.852055,5.72576 3.130148,1.47135 6.699118,1.02427 18.902112,-2.36781 13.272186,-3.68928 19.368011,-2.59446 22.611292,4.06106 1.625582,3.33584 1.729923,6.58435 0.290389,9.04073 -1.477153,2.52056 -4.079817,4.51844 -10.333972,7.93263 -9.093542,4.96423 -11.262556,7.14918 -11.468283,11.55249 -0.162777,3.4841 0.876792,4.75852 4.52796,5.55088 1.148721,0.24928 2.15827,0.52294 2.243445,0.60811 0.613285,0.61329 -2.299658,0.80624 -4.001567,0.26506 z"/>
  </g>
</svg>
