<svg xmlns="http://www.w3.org/2000/svg" width="139.22214mm" height="49.701111mm" viewBox="0 0 139.22214 49.701111" fill="currentColor">
  <g transform="translate(-36.196605,-123.96251)">
    <path d="M 66.01354,173.52694 C 64.641461,173.13499 57.922513,169.88692 55.12045,168.261 47.269385,163.70536 39.727959,156.57936 36.948448,151.09002 l -0.751843,-1.48484 0.885551,-1.46696 c 4.117914,-6.82152 14.040439,-16.76066 22.372752,-22.41022 1.194941,-0.81021 2.608043,-1.55479 3.140226,-1.65463 3.091336,-0.57994 11.665051,1.64736 25.246531,6.55861 7.933,2.86868 11.926938,4.00929 15.604555,4.45645 4.59391,0.55856 9.13487,-0.3985 19.38113,-4.0848 13.06427,-4.70014 21.30439,-7.04112 24.78436,-7.04112 1.80756,0 2.77034,0.43653 5.91593,2.68236 7.87441,5.622 15.91985,13.67005 20.4066,20.41323 0.81648,1.22709 1.48451,2.40341 1.48451,2.61404 0,0.21062 -0.42537,1.09032 -0.94527,1.95489 -4.84925,8.06407 -13.59472,15.12584 -25.27184,20.40643 -2.98428,1.34954 -3.48914,1.49551 -5.53289,1.59973 -1.9442,0.0991 -2.738,-0.0117 -5.85779,-0.81806 -4.85005,-1.25356 -8.49832,-2.73786 -16.57957,-6.74545 -3.73951,-1.85446 -7.98972,-3.77938 -9.44493,-4.27761 -2.45772,-0.84146 -2.88098,-0.90596 -5.95313,-0.90731 -3.05218,-0.001 -3.50117,0.0655 -5.82083,0.86632 -1.382449,0.47728 -5.906824,2.52453 -10.054168,4.54945 -8.196339,4.00181 -10.95008,5.13638 -15.447875,6.36473 -2.874307,0.78497 -7.222009,1.22587 -8.496917,0.86168 z m 14.816667,-17.93087 c 2.790722,-0.83213 6.720467,-2.63773 9.074124,-4.16927 l 1.665792,-1.08394 -0.739751,-0.77941 c -1.235249,-1.30149 -4.697547,-3.7994 -7.015993,-5.06176 -2.82503,-1.5382 -6.356339,-2.70943 -9.247579,-3.06716 -5.442686,-0.6734 -12.238101,1.17471 -17.98216,4.89053 l -1.937009,1.25304 1.449622,1.33602 c 3.330276,3.06929 8.671798,5.98767 12.958996,7.08026 2.988609,0.76164 8.510296,0.57484 11.773958,-0.39831 z m 62.123463,0.26896 c 4.09608,-1.03905 9.03063,-3.76787 12.60879,-6.97269 l 1.42865,-1.27959 -1.70024,-1.11492 c -4.1442,-2.71751 -9.05903,-4.57144 -13.43821,-5.06903 -5.53331,-0.62874 -11.45579,1.0781 -17.03633,4.90981 -2.24788,1.54343 -4.69516,3.56943 -4.69537,3.88708 -2.6e-4,0.58594 5.80804,3.68868 8.99571,4.80533 4.71437,1.65147 9.48175,1.93882 13.837,0.83401 z"/>
  </g>
</svg>
