<svg xmlns="http://www.w3.org/2000/svg" width="119.40681mm" height="81.850945mm" viewBox="0 0 119.40682 81.850945" fill="currentColor">
  <g transform="translate(-44.440545,-116.16702)">
    <path d="m 47.948062,197.60997 c -1.962552,-0.96759 -3.51047,-3.40365 -3.507513,-5.52001 0.0018,-1.29134 1.153659,-3.40745 2.440104,-4.48279 l 1.180893,-0.9871 0.156984,-4.40881 c 0.336086,-9.4388 2.693014,-18.00696 6.37129,-23.16161 3.969979,-5.56342 10.287828,-8.74467 18.633638,-9.38264 l 2.288773,-0.17497 0.343072,-3.43958 c 0.639021,-6.40676 1.936464,-10.38242 4.804621,-14.72245 5.206156,-7.87784 11.931525,-12.49792 21.191146,-14.55753 2.39334,-0.53235 3.47439,-0.61607 7.80521,-0.60447 4.5925,0.0123 5.25208,0.0744 7.62984,0.71822 5.08755,1.37756 11.31649,4.94277 14.40598,8.24545 2.06347,2.20586 3.44301,4.33746 5.53205,8.54789 1.68095,3.38792 1.7602,3.49576 2.4307,3.30729 1.66747,-0.4687 4.00034,0.0555 5.36783,1.20617 1.05445,0.88726 2.06789,3.05772 2.06374,4.41985 -0.004,1.19171 -0.79223,3.12322 -1.66167,4.06991 -0.80185,0.8731 -3.03297,1.87752 -4.17743,1.88063 -3.85799,0.0105 -6.66685,-3.68177 -5.73456,-7.53804 0.18058,-0.74695 0.0883,-0.87016 -1.56515,-2.0897 -6.97605,-5.14539 -13.38889,-6.04469 -17.08933,-2.39651 -2.3157,2.28298 -2.56458,4.52913 -0.82342,7.43127 1.1601,1.93363 2.17431,3.0084 4.20475,4.45579 2.88172,2.05423 2.99477,2.08589 5.75459,1.61182 3.13731,-0.53891 8.66838,-0.53296 11.85972,0.0128 14.07638,2.40711 20.70329,12.28764 21.61592,32.22873 l 0.19268,4.21018 0.92605,0.5102 c 2.17089,1.19604 3.25879,2.93944 3.25879,5.22232 0,3.47229 -2.76892,5.99791 -6.3273,5.77133 -2.02598,-0.12901 -3.48031,-1.01236 -4.48268,-2.72278 -1.45374,-2.48062 -1.10897,-4.9464 0.99714,-7.13145 l 1.28583,-1.33402 -0.9755,-2.38477 c -2.31632,-5.66261 -5.25678,-11.00138 -7.27635,-13.21111 -2.68314,-2.93578 -5.92479,-3.73751 -8.88696,-2.19793 -2.9571,1.53694 -3.54856,3.59089 -2.37907,8.26177 0.36435,1.45521 0.74062,3.24894 0.83614,3.98606 0.22263,1.718 -0.53918,9.072 -1.07974,10.42299 -0.57562,1.43861 -1.20475,1.59299 -4.73593,1.16212 -7.73296,-0.94357 -12.53209,-1.20602 -24.51908,-1.34089 -13.217828,-0.14873 -19.392544,0.0775 -27.603831,1.01139 -6.321145,0.71891 -6.457387,0.71555 -7.226062,-0.17809 l -0.629679,-0.73205 0.123777,-5.71055 c 0.102135,-4.71205 0.220094,-6.05568 0.674624,-7.68431 1.16237,-4.16493 1.003181,-6.12152 -0.646633,-7.94766 -3.341566,-3.69872 -8.515536,-2.39798 -12.133213,3.05029 -1.320944,1.98936 -4.472929,8.13296 -5.561411,10.83987 -0.89743,2.23178 -0.927524,2.39786 -0.479467,2.64583 0.262936,0.14552 1.027675,0.8132 1.699421,1.48374 1.539289,1.53651 2.044391,3.2305 1.562366,5.2398 -0.383022,1.59662 -1.822287,3.35187 -3.298123,4.02221 -1.329371,0.60382 -3.681537,0.63588 -4.837567,0.0659 z m 3.877556,-4.23278 c 0.691782,-0.87945 0.691782,-1.43043 0,-2.30988 -0.397725,-0.50563 -0.792216,-0.69714 -1.436005,-0.69714 -0.950807,0 -1.984375,0.96466 -1.984375,1.85208 0,0.88742 1.033568,1.85208 1.984375,1.85208 0.643789,0 1.03828,-0.19151 1.436005,-0.69714 z m 107.510702,0.23412 c 1.19641,-1.32759 0.45175,-3.24114 -1.2613,-3.24114 -0.9508,0 -1.98437,0.96466 -1.98437,1.85208 0,0.25179 0.24677,0.77152 0.54837,1.15494 0.65529,0.83307 2.04855,0.954 2.6973,0.23412 z m -74.418583,-5.67119 c 2.724157,-0.23122 8.764682,-0.34808 17.991663,-0.34808 13.69128,0 17.36585,0.15124 25.78649,1.06128 1.88606,0.20383 3.46337,0.33643 3.50513,0.29467 0.0418,-0.0418 0.10597,-0.83991 0.14268,-1.77367 l 0.0667,-1.69773 -2.91041,-0.30981 c -10.5924,-1.12754 -13.9026,-1.27696 -28.31042,-1.27794 -13.054702,-7.9e-4 -18.228364,0.17505 -24.540102,0.83448 l -1.521354,0.15895 v 2.02456 2.02456 l 2.84427,-0.3216 c 1.564349,-0.17688 4.68974,-0.47824 6.945313,-0.66967 z m 47.624993,-6.70088 c 0,-0.21982 -0.25456,-1.49974 -0.56569,-2.84427 -0.3251,-1.40488 -0.57427,-3.40694 -0.58586,-4.70728 -0.0175,-1.96195 0.0777,-2.46268 0.71607,-3.76751 1.52209,-3.11104 4.84645,-5.4057 8.22424,-5.67684 5.15152,-0.41351 9.77813,2.86355 13.35306,9.45808 1.22658,2.26261 1.28712,2.10773 0.55914,-1.43033 -1.23086,-5.98204 -3.07452,-9.84268 -6.21673,-13.01781 -3.36433,-3.39958 -7.36049,-5.06642 -13.55324,-5.65318 -6.93891,-0.65747 -13.19136,1.04638 -18.01814,4.9101 -5.85772,4.68897 -8.93776,10.79226 -9.96954,19.75528 l -0.17513,1.52135 h 2.10635 c 5.22658,0 19.33317,1.07291 23.92704,1.81982 0.10914,0.0178 0.19843,-0.14759 0.19843,-0.36741 z m -50.138535,-0.93879 c 1.891771,-0.14214 6.922161,-0.33411 11.178645,-0.4266 l 7.73906,-0.16817 v -0.59459 c 0,-1.1812 -1.04749,-6.63898 -1.596843,-8.32009 -2.095462,-6.41245 -6.847979,-12.15413 -12.344719,-14.91409 -3.601768,-1.80848 -9.623321,-2.75812 -14.388308,-2.26914 -11.184466,1.14774 -17.22278,6.77406 -19.555579,18.2213 -0.822746,4.03728 -0.721999,4.14756 1.050396,1.14977 2.758428,-4.66554 5.878359,-7.46311 9.380201,-8.41102 4.62547,-1.25205 9.568947,1.01405 11.706034,5.36608 0.649963,1.3236 0.742511,1.80729 0.720895,3.76752 -0.01487,1.34731 -0.252789,3.1506 -0.593461,4.49791 -0.312761,1.23693 -0.569489,2.35225 -0.570508,2.47849 -0.0011,0.12623 0.861349,0.15111 1.916375,0.0553 1.055026,-0.0958 3.466041,-0.29053 5.357812,-0.43266 z m 22.208765,-11.62611 c 2.01784,-6.02458 6.58754,-11.71775 12.24361,-15.25376 l 1.90863,-1.19322 -1.92862,-1.5326 c -3.72979,-2.96393 -5.84025,-6.65571 -5.84185,-10.21904 -7.9e-4,-1.57679 0.13422,-2.14692 0.85418,-3.60937 1.45755,-2.96069 3.98469,-5.06476 7.29351,-6.07249 3.46046,-1.0539 8.18638,-0.32729 12.2752,1.88731 0.81396,0.44085 1.51568,0.7658 1.55938,0.72209 0.25532,-0.25532 -2.68791,-4.07395 -4.5256,-5.87163 -3.06588,-2.99915 -7.24787,-5.36373 -12.04602,-6.81105 -2.20473,-0.66504 -8.2094,-0.91942 -11.46777,-0.48582 -8.682124,1.15538 -16.009473,5.71894 -20.732261,12.91231 -2.481112,3.77903 -3.73775,7.61191 -4.346887,13.25849 -0.353693,3.27865 -0.294122,3.4688 1.090525,3.48116 1.546307,0.0138 5.350764,1.16916 7.84171,2.38141 6.737066,3.27867 12.585603,10.11475 14.665923,17.1423 0.38733,1.30848 0.49436,1.24035 1.15634,-0.73609 z m 37.86367,-24.72652 c 1.04213,-1.04212 0.74211,-2.56682 -0.60592,-3.07935 -1.53488,-0.58355 -3.09974,1.00385 -2.43274,2.46777 0.59502,1.30593 2.05123,1.59901 3.03866,0.61158 z"/>
  </g>
</svg>
