<svg xmlns="http://www.w3.org/2000/svg" width="89.793015mm" height="90.186546mm" viewBox="0 0 89.793024 90.186547" fill="currentColor">
  <g transform="translate(-68.265246,-87.138648)">
    <path d="m 119.7145,176.96 c -9.59214,-1.24008 -19.26074,-3.77386 -29.236457,-7.66181 -5.599764,-2.18245 -21.214483,-10.42431 -22.022511,-11.62405 -0.343052,-0.50935 -0.216824,-1.47222 0.334736,-2.55337 0.627581,-1.23016 1.909262,-6.42287 2.514349,-10.18685 0.484974,-3.01681 1.596441,-8.60178 1.945009,-9.7734 0.129881,-0.43656 1.074761,-2.93687 2.099732,-5.55625 1.983266,-5.06835 7.534239,-19.41313 8.694337,-22.46783 0.793997,-2.09071 2.016291,-3.57857 3.766384,-4.58471 1.075484,-0.61831 7.110209,-5.163904 14.955531,-11.265104 4.73605,-3.683168 5.55919,-4.147978 7.34576,-4.147978 0.92198,0 1.9058,0.176875 2.40637,0.432628 1.508,0.770471 10.99782,8.575768 11.58842,9.531371 0.7302,1.181497 0.92865,2.935983 0.50374,4.453613 l -0.33278,1.18857 1.489,2.19216 c 0.81896,1.2057 1.489,2.37248 1.489,2.59287 0,0.22038 -0.50601,0.88403 -1.12447,1.47478 -1.79968,1.71901 -10.06891,8.72006 -10.64948,9.01625 -0.38187,0.19482 -2.14946,0.0598 -6.35,-0.48502 -3.20146,-0.41525 -5.96966,-0.7012 -6.15157,-0.63545 -0.47944,0.17329 -0.42958,5.79507 0.093,10.48696 0.37774,3.39129 0.42234,10.03604 0.0761,11.33409 -0.0788,0.29549 0.30014,0.43276 1.61684,0.58568 1.67997,0.19509 5.57728,1.2927 6.33207,1.7833 0.28089,0.18258 0.82856,-0.16626 2.11666,-1.34819 3.26511,-2.99599 7.92429,-5.13147 12.67208,-5.80808 2.73872,-0.39029 7.6296,-0.11931 10.03082,0.55578 l 1.91517,0.53843 1.52441,-1.15639 c 4.66944,-3.54216 10.9087,-5.08914 16.21552,-4.0205 1.23323,0.24833 2.33219,0.53904 2.44214,0.64601 0.10994,0.10697 0.006,0.76445 -0.23166,1.46106 -0.39473,1.15846 -0.49083,1.25371 -1.12595,1.11596 -3.98172,-0.86363 -6.9663,-0.75303 -10.26012,0.38022 -2.40898,0.82881 -5.84483,2.91063 -5.35478,3.24453 0.0571,0.0389 0.61269,0.39678 1.23459,0.79525 1.13566,0.72765 4.29322,3.79222 4.29322,4.16679 0,0.11016 -0.50328,0.57042 -1.1184,1.02278 l -1.11841,0.82248 -1.1967,-1.29513 c -2.76565,-2.99312 -6.47832,-4.79085 -11.08013,-5.36515 -2.37718,-0.29668 -3.12748,-0.2844 -5.72974,0.0938 -4.3032,0.62533 -8.35911,2.43323 -11.06895,4.93395 -1.14049,1.05248 -3.07563,3.67606 -3.81897,5.1776 -0.36433,0.73594 -0.69737,1.37998 -0.74008,1.43118 -0.0427,0.0512 -0.68521,-0.10869 -1.42775,-0.35532 -1.54154,-0.51201 -1.54764,-0.57837 -0.27312,-2.97104 l 0.73572,-1.38117 -1.37137,-0.51309 c -1.74687,-0.65359 -4.31981,-1.1624 -5.29525,-1.04716 -0.65359,0.0772 -0.86668,0.33923 -1.57882,1.94135 -1.27851,2.87632 -2.470337,4.78611 -4.054982,6.49771 -0.800505,0.86464 -1.531937,1.562 -1.625401,1.54968 -0.09347,-0.0123 -0.568794,-0.48645 -1.056283,-1.05364 l -0.886344,-1.03124 1.457852,-1.61098 c 2.828631,-3.12573 4.827628,-8.33866 5.118318,-13.34737 0.10154,-1.74955 -0.007,-4.1247 -0.32035,-7.01145 -0.644113,-5.93365 -0.598459,-10.73058 0.13598,-14.2875 0.3155,-1.52797 0.66955,-2.87559 0.78676,-2.99471 0.33629,-0.34175 2.81159,0.49638 2.70525,0.916 -0.35821,1.41344 -0.35388,2.07871 0.0135,2.07871 0.21377,0 2.67462,0.30183 5.46855,0.67073 l 5.07986,0.67074 4.42181,-3.7552 c 2.43199,-2.06535 4.52902,-3.84957 4.66006,-3.96493 0.13525,-0.11907 -0.0963,-0.72403 -0.53551,-1.39926 l -0.77377,-1.18952 -2.5072,2.24206 c -3.15994,2.82578 -4.10312,3.33871 -6.13919,3.33871 -2.19082,0 -3.76947,-0.97527 -4.76852,-2.94592 -1.23541,-2.43687 -0.7865,-4.80249 1.25077,-6.59124 l 1.00311,-0.88074 0.79688,1.22505 0.79688,1.22505 -0.66134,0.71629 c -0.90043,0.97527 -1.06866,1.56922 -0.73273,2.58709 0.35267,1.06863 1.27483,1.70109 2.48025,1.70109 0.78898,0 1.39272,-0.41273 4.30879,-2.94556 1.86518,-1.62006 3.53585,-3.19764 3.71259,-3.50573 0.90972,-1.585785 0.32463,-2.337901 -5.32707,-6.847801 -4.61715,-3.684361 -5.13886,-4.028434 -6.10678,-4.027498 -1.11761,0.0011 -1.58566,0.337357 -15.960851,11.467289 -2.134122,1.65234 -4.320412,3.22882 -4.85842,3.50329 -1.353178,0.69034 -2.146368,1.8449 -3.072742,4.47267 -0.436057,1.23693 -1.585287,4.27302 -2.553843,6.74688 -8.264509,21.10892 -7.877896,19.96264 -9.136576,27.08923 -1.009039,5.71312 -1.711912,8.93447 -2.420581,11.09381 -0.301539,0.9188 -0.506249,1.70308 -0.454911,1.74284 0.812088,0.62892 7.231017,4.22156 10.676675,5.97568 12.495136,6.36106 27.277569,10.76419 40.084369,11.93962 5.95216,0.54631 14.50246,-0.009 21.12369,-1.37102 4.27512,-0.87964 9.2464,-2.77981 11.13017,-4.2543 0.60862,-0.47638 0.65851,-0.47772 1.15303,-0.0308 0.28429,0.25689 0.73952,0.77939 1.01162,1.16112 l 0.49474,0.69404 -1.39481,0.92611 c -4.11993,2.73548 -11.75354,4.87389 -20.51574,5.74711 -3.67774,0.36652 -12.508,0.29461 -15.78082,-0.1285 z"/>
  </g>
</svg>
