<svg xmlns="http://www.w3.org/2000/svg" width="107.28381mm" height="135.85112mm" viewBox="0 0 107.28382 135.85112" fill="currentColor">
  <g transform="translate(-72.085748,-79.88489)">
    <path d="m 126.1471,215.56558 c -1.14625,-0.12907 -4.11397,-0.61761 -6.59493,-1.08564 -4.92865,-0.92977 -4.10257,-0.93345 -11.29704,0.0502 -8.0592,1.10192 -16.665977,-1.01063 -22.886458,-5.61753 -2.342727,-1.73502 -5.880013,-5.30344 -7.234836,-7.2985 -5.223293,-7.69164 -7.245244,-18.30647 -5.349705,-28.08486 1.17317,-6.05194 3.330665,-10.79331 8.269993,-18.17434 6.898196,-10.30824 12.58229,-16.56792 20.189546,-22.23401 1.45521,-1.08387 3.27091,-2.4409 4.0349,-3.01561 l 1.38906,-1.04492 v -2.39113 c 0,-2.57172 0.29496,-3.60758 1.46348,-5.1396 0.38326,-0.50247 0.65671,-1.12759 0.60768,-1.38916 -0.0567,-0.30245 -1.28458,-1.10169 -3.37283,-2.19538 -1.83769,-0.96247 -3.77853,-2.19961 -4.40742,-2.8094 -2.149633,-2.08433 -3.034662,-4.90724 -2.500384,-7.97528 0.618461,-3.55148 2.114794,-5.49561 5.491324,-7.13471 1.96529,-0.954026 2.12336,-1.099724 3.55687,-3.278393 2.36671,-3.596989 4.56323,-5.060508 9.91521,-6.606421 3.74646,-1.082159 4.68535,-1.582028 8.77447,-4.671544 3.95931,-2.991442 6.49789,-4.348326 9.60539,-5.134149 5.41689,-1.369817 12.71261,0.50279 15.69312,4.027982 1.21114,1.432472 2.24606,3.915582 2.51084,6.024279 0.29745,2.368897 0.65165,2.923148 2.5543,3.996933 4.46646,2.520715 6.92471,6.654193 6.67365,11.221563 -0.16666,3.03187 -0.95541,4.57396 -3.66229,7.16009 -2.57914,2.4641 -4.98159,4.0598 -9.77166,6.49032 -2.00595,1.01784 -3.72059,2.0419 -3.8103,2.27568 -0.26983,0.70316 -0.16754,1.79647 0.23376,2.49846 0.52222,0.91353 0.48853,1.48844 -0.18204,3.10631 l -0.57892,1.39673 0.53159,0.72505 c 0.29237,0.39877 1.53515,1.41185 2.76173,2.25128 4.83961,3.3121 13.94752,12.16606 18.36146,17.8495 7.16056,9.22002 10.96486,18.27033 12.04142,28.64613 1.49563,14.41484 -5.05027,27.32823 -16.20735,31.97293 -1.961,0.81637 -5.51139,1.59356 -9.77913,2.1407 -1.27141,0.163 -3.83125,0.77067 -5.68854,1.35037 -5.60993,1.751 -8.21424,2.16763 -14.09251,2.25449 -2.83766,0.0419 -6.09721,-0.0294 -7.24345,-0.15846 z m 12.93199,-5.67317 c 4.37161,-0.71633 8.44494,-2.02264 10.31158,-3.30693 2.24513,-1.54469 6.42482,-6.56282 7.93765,-9.52993 0.33388,-0.65484 0.93353,-2.11212 1.33256,-3.2384 0.89403,-2.52347 1.66992,-3.37618 3.07199,-3.37618 0.75135,0 1.24445,0.20242 1.88215,0.77261 0.76834,0.68703 0.85983,0.91624 0.82582,2.06906 -0.0509,1.72428 -1.21369,4.55603 -3.51344,8.55606 -1.84137,3.20273 -2.1429,3.9481 -1.59715,3.9481 0.48493,0 2.45234,-1.08713 4.22279,-2.33338 7.26328,-5.11273 10.1636,-11.35831 10.15879,-21.87599 -0.002,-4.69081 -0.38021,-7.23557 -1.72812,-11.63196 -1.69261,-5.52071 -4.61087,-11.02528 -8.91222,-16.81075 -4.02178,-5.40942 -16.69077,-17.46454 -19.75907,-18.80163 -1.40712,-0.61319 -3.95129,-1.1562 -4.47521,-0.95515 -0.49614,0.19039 -0.54546,1.85836 -0.14607,4.94011 0.39285,3.03129 1.18798,5.08023 2.79428,7.20047 1.67454,2.21032 1.87474,3.35502 0.79122,4.52416 -1.36581,1.47372 -2.82722,1.26208 -4.7227,-0.68393 -2.4815,-2.54766 -4.1658,-7.25184 -4.5688,-12.76049 -0.0958,-1.30968 -0.28276,-2.81381 -0.41544,-3.34249 -0.21407,-0.85306 -0.37332,-0.99451 -1.41485,-1.25678 -0.6455,-0.16253 -2.63895,-0.29533 -4.4299,-0.29511 -4.23383,5.3e-4 -4.85902,0.27536 -5.71708,2.51313 -2.25504,5.88107 -4.18444,9.03996 -7.68806,12.58721 -2.40412,2.43406 -4.31023,3.6004 -5.42626,3.32029 -0.74977,-0.18818 -1.95858,-1.46972 -2.02718,-2.14916 -0.12205,-1.20882 0.10588,-1.60156 2.20081,-3.79206 3.21597,-3.36269 6.83173,-8.31763 7.20768,-9.8772 0.38897,-1.61356 -1.62639,-2.29318 -3.88894,-1.31142 -3.30241,1.43297 -9.93554,6.55957 -13.97209,10.79872 -9.138107,9.59676 -15.156336,18.86295 -17.965589,27.66139 -2.307754,7.22777 -2.233631,14.69707 0.208476,21.00816 3.345992,8.64696 10.109478,14.51096 18.892273,16.37975 1.78866,0.38059 7.93973,0.53727 8.75846,0.2231 0.837,-0.32119 0.36083,-1.06329 -2.69034,-4.1928 -3.43922,-3.52751 -6.828596,-7.2697 -7.538883,-8.32362 -0.254682,-0.3779 -0.462057,-1.17947 -0.463021,-1.78972 -0.0013,-0.88008 0.140291,-1.217 0.695397,-1.65364 1.691976,-1.33091 3.314457,-0.46827 7.179587,3.81725 8.28546,9.18664 12.18437,11.63993 20.56598,12.94066 3.26073,0.50603 11.01244,0.52177 14.02292,0.0285 z m 1.99096,-83.10105 c 0.17765,-0.46725 0.16275,-0.85891 -0.0478,-1.25677 -0.61758,-1.16704 -1.65296,-2.33936 -2.41338,-2.73259 -1.88135,-0.97288 -12.64719,-1.48696 -18.44749,-0.88088 -3.48234,0.36387 -4.91423,0.84369 -6.68073,2.23869 -1.23002,0.97133 -1.52135,1.34924 -1.52135,1.97345 0,1.01417 0.41412,1.11765 3.175,0.79334 1.23692,-0.1453 5.64224,-0.33277 9.78958,-0.4166 6.07581,-0.12281 8.15278,-0.0704 10.69191,0.2699 1.7332,0.23227 3.21156,0.4826 3.28524,0.55628 0.0737,0.0737 0.53378,0.13396 1.02245,0.13396 0.71032,0 0.94025,-0.13612 1.14657,-0.67878 z m 3.79104,-11.15006 c 7.29563,-3.71238 10.46451,-5.83041 12.09901,-8.08678 1.73366,-2.39324 0.5217,-6.16457 -2.62167,-8.158041 -2.17757,-1.380974 -2.25433,-1.333934 -6.52105,3.996101 -3.00514,3.75405 -5.66683,7.35313 -7.66175,10.36004 -1.32707,2.00027 -1.48061,2.36178 -1.2144,2.8592 0.27245,0.50908 1.0693,1.00611 1.68653,1.05196 0.12416,0.009 2.02916,-0.90089 4.23333,-2.02248 z m -28.67362,-0.35507 c -1.20251,-3.05082 -3.23313,-6.07633 -6.03428,-8.99077 -1.9775,-2.05748 -2.14333,-2.0998 -4.26224,-1.08764 -1.43287,0.68445 -2.00145,1.67163 -2.00145,3.47499 0,1.7767 0.39252,2.34502 2.59637,3.75923 1.23525,0.79265 9.2048,4.14934 9.90134,4.17033 0.23194,0.007 0.17394,-0.37813 -0.19974,-1.32614 z m 15.96124,0.8263 c 0.44294,-0.16841 1.07229,-1.04539 2.01106,-2.80235 2.31057,-4.32437 4.95795,-8.02444 10.97647,-15.341083 3.30247,-4.014772 3.87216,-5.303803 3.33451,-7.544983 -0.40244,-1.677553 -1.94341,-3.446742 -3.63654,-4.175109 -4.72102,-2.030925 -9.34408,-1.050671 -14.76089,3.129844 -5.32461,4.109357 -6.81987,4.946451 -10.17652,5.697135 -3.47319,0.776745 -6.90733,2.633702 -7.43441,4.020034 -0.30601,0.804852 -0.0259,1.330392 1.86741,3.503292 4.02612,4.62073 5.98331,7.78895 7.97883,12.91579 0.18271,0.46941 0.40809,0.59314 0.96384,0.52917 l 0.72537,-0.0835 -0.0815,-7.14375 c -0.092,-8.06357 0.13736,-10.715373 1.00699,-11.641044 0.69688,-0.741794 1.62618,-0.946539 2.81116,-0.619352 1.61254,0.445246 1.68734,0.859774 1.68734,9.351976 0,8.09414 0.17823,9.66745 1.14839,10.1368 0.73606,0.3561 0.8102,0.35925 1.57852,0.0671 z"/>
  </g>
</svg>
