<svg fill="currentColor" xmlns="http://www.w3.org/2000/svg" width="50.31131mm" height="39.414833mm" viewBox="0 0 50.311313 39.414833">
  <g transform="translate(-121.10815,-123.88724)">
    <path d="m 121.27555,163.05811 c -0.39566,-0.25028 -0.21171,-1.73359 1.89914,-15.31353 l 0.54824,-3.52704 2.01184,-0.96913 c 1.10651,-0.53302 2.04766,-0.98589 2.09145,-1.00638 0.0438,-0.0205 0.6853,-2.40254 1.42561,-5.29342 0.74031,-2.89089 1.4302,-5.35085 1.53309,-5.46657 0.1029,-0.11572 1.62411,-0.60844 3.38047,-1.09492 1.75637,-0.48649 3.35237,-0.97773 3.54668,-1.09165 0.19431,-0.11392 2.03576,-1.37738 4.09211,-2.80768 2.05635,-1.4303 3.82487,-2.60055 3.93006,-2.60055 0.10518,0 2.97077,1.45851 6.36797,3.24114 l 6.17673,3.24115 2.7255,5.84677 2.7255,5.84678 2.70367,1.78997 c 1.48701,0.98448 2.75919,1.98484 2.82706,2.22301 0.0679,0.23818 0.62972,4.10317 1.24854,8.58887 0.96227,6.97522 1.07008,8.19065 0.74481,8.39647 -0.51047,0.323 -49.46773,0.31978 -49.97847,-0.003 z m 15.07152,-1.66619 c 8.2e-4,-0.0364 0.58418,-2.29979 1.29634,-5.02981 l 1.29483,-4.96368 2.38719,-2.57695 c 3.80237,-4.10465 5.52057,-5.70809 5.94293,-5.54601 0.21038,0.0807 1.26186,1.52392 2.33663,3.20708 l 1.95412,3.06031 1.93562,0.004 c 3.14144,0.007 2.95917,-0.37654 2.95917,6.23151 v 5.67923 h 6.61459 6.61458 l -0.0193,-0.59531 c -0.0106,-0.32742 -0.45741,-3.63141 -0.9929,-7.34219 l -0.97361,-6.74688 -2.63881,-1.76814 -2.63881,-1.76815 -2.45004,-5.24331 c -1.34753,-2.88382 -2.48708,-5.34946 -2.53234,-5.47919 -0.0453,-0.12973 -1.11562,0.45179 -2.37858,1.29227 -1.36713,0.90981 -2.22606,1.64762 -2.12271,1.82338 0.0955,0.16238 0.92606,1.26484 1.84575,2.44992 0.9197,1.18507 1.67182,2.31617 1.6714,2.51354 -8e-4,0.32402 -4.00724,4.01492 -4.93579,4.54694 -0.4142,0.23732 -1.14325,-0.21304 -1.15707,-0.71475 -0.005,-0.16409 0.90692,-1.14152 2.02544,-2.17208 l 2.03366,-1.87375 -1.91273,-2.42479 c -1.10269,-1.3979 -1.87583,-2.62129 -1.82559,-2.88876 0.0479,-0.25518 1.25321,-1.25527 2.6784,-2.22244 l 2.59125,-1.75848 -5.0406,-2.65313 -5.0406,-2.65312 -3.76978,2.60928 c -3.44656,2.38557 -3.99217,2.67049 -6.36364,3.32311 l -2.59386,0.71382 2.53914,2.58442 c 2.12935,2.16733 2.51324,2.6846 2.37868,3.20517 -1.58217,6.12051 -1.88277,6.97121 -2.4947,7.06004 -0.33832,0.0491 -0.70483,-0.0558 -0.81447,-0.23323 -0.10963,-0.17739 0.20136,-1.82491 0.69108,-3.66117 l 0.89041,-3.33864 -2.16229,-2.17469 c -1.18925,-1.19608 -2.20314,-2.13383 -2.25308,-2.08389 -0.0499,0.0499 -0.65152,2.21918 -1.33684,4.82052 l -1.24604,4.72972 -1.92343,0.9533 c -1.05789,0.52431 -1.98323,1.01308 -2.0563,1.08616 -0.10916,0.10916 -2.48985,15.23966 -2.49957,15.88606 -0.002,0.10914 3.0331,0.19844 6.74388,0.19844 3.71079,0 6.74756,-0.0298 6.74838,-0.0661 z m 18.51933,-4.9498 v -5.01596 l -2.05052,-0.0773 -2.05052,-0.0773 -1.85208,-2.83162 c -1.01865,-1.55738 -1.92635,-2.83731 -2.01712,-2.84427 -0.0908,-0.007 -1.58434,1.50736 -3.31906,3.36515 l -3.15403,3.37781 -1.11271,4.36879 c -0.61199,2.40283 -1.11271,4.45469 -1.11271,4.55969 0,0.105 3.75047,0.19091 8.33438,0.19091 h 8.33437 z"/>
  </g>
</svg>
