<svg fill="currentColor" xmlns="http://www.w3.org/2000/svg" width="233.32642mm" height="137.28555mm" viewBox="0 0 233.32643 137.28555">
  <g transform="translate(-21.402111,-61.962901)">
    <path d="m 67.660193,198.78945 c -2.271189,-1.14524 -2.848666,-3.20465 -3.691324,-13.16408 -0.84297,-9.96313 -1.459582,-13.20003 -3.679327,-19.31459 -1.327201,-3.65593 -0.985976,-5.83435 1.195551,-7.63255 1.247992,-1.0287 5.893977,-3.51979 10.217917,-5.47865 2.277848,-1.03193 3.371342,-1.66444 3.366984,-1.94759 -0.008,-0.52071 -0.833157,-3.3536 -2.626791,-9.01829 -2.576928,-8.1385 -2.094891,-11.40158 1.968508,-13.3255 0.803211,-0.38031 1.936208,-0.76755 2.51777,-0.86055 0.581559,-0.093 1.050136,-0.24316 1.041281,-0.3337 -0.0089,-0.0905 -1.638139,-1.47431 -3.620625,-3.07504 C 62.237319,114.8586 48.75922,101.62032 39.196509,90.110787 32.126328,81.601221 26.335858,73.281904 22.134548,65.597422 21.376543,64.210979 21.284253,63.85911 21.510146,63.216786 c 0.145789,-0.414549 0.58635,-0.907711 0.979023,-1.095915 0.644854,-0.30907 1.002754,-0.229084 3.698012,0.826474 26.164506,10.246942 58.177223,31.462355 80.398699,53.281695 l 4.65423,4.57 1.16661,-0.38067 c 0.64163,-0.20937 5.81004,-1.82458 11.48535,-3.58936 24.87752,-7.73584 32.34153,-9.46475 41.93646,-9.7139 5.80936,-0.15085 7.91851,0.0791 11.38775,1.24137 7.11653,2.38426 11.20712,7.40211 12.96672,15.90605 0.45218,2.18535 0.61725,4.26759 0.79543,10.03367 0.12366,4.00183 0.34551,8.04995 0.49301,8.99584 0.78021,5.0036 1.91355,9.33365 3.90813,14.93139 1.55218,4.35617 1.78166,4.78607 2.76611,5.18185 6.94042,2.79028 39.73263,18.06598 46.19668,21.51996 7.10896,3.79857 10.38617,6.4378 10.38617,8.36429 0,1.23563 -0.79278,2.34587 -2.00594,2.80918 -0.97872,0.37377 -1.82737,0.42189 -5.33367,0.30244 -6.47648,-0.22064 -14.38076,-1.69939 -45.57706,-8.52666 -30.9243,-6.76775 -53.90935,-9.7852 -70.77604,-9.29142 -23.1789,0.67857 -40.437827,6.18091 -56.340298,17.96191 -3.714682,2.75193 -5.132152,3.20415 -7.035329,2.24447 z m 6.019493,-6.04303 c 22.690068,-16.25894 48.840964,-21.02518 87.614374,-15.9685 11.71319,1.52758 25.20087,4.06413 50.57197,9.51075 22.61639,4.85525 29.58084,6.14443 35.8183,6.63026 1.82131,0.14186 2.32384,0.1089 2.2386,-0.14682 -0.196,-0.58798 -5.34679,-3.63809 -10.45194,-6.18924 -9.81791,-4.90622 -32.25854,-15.29505 -43.21636,-20.00691 -27.40164,-11.7827 -48.83252,-17.77889 -69.08572,-19.32966 -5.37214,-0.41133 -17.39567,-0.19322 -22.19341,0.40261 -12.480799,1.54999 -24.118997,5.06392 -35.480673,10.71274 -4.050348,2.01375 -5.708804,2.98106 -6.122141,3.57076 -0.401209,0.57241 -0.172127,1.80621 0.831416,4.47793 1.875076,4.99199 2.558891,8.69581 3.327736,18.0244 0.534175,6.4813 0.901438,9.31381 1.348256,10.39841 0.441018,1.07053 0.320164,1.12308 4.799592,-2.08673 z M 192.28686,160.68387 c 0,-0.0389 -0.53255,-1.65123 -1.18345,-3.58303 -2.7148,-8.0573 -3.54949,-13.04247 -3.84047,-22.93693 -0.14708,-5.00159 -0.34473,-7.77846 -0.65913,-9.26042 -1.62989,-7.68264 -5.5409,-11.95828 -12.5132,-13.67982 -1.8905,-0.46679 -3.10015,-0.57048 -6.67458,-0.57217 -8.98178,-0.004 -17.74406,1.98351 -41.60499,9.43815 -6.2206,1.94345 -11.36623,3.58957 -11.43472,3.65806 -0.0685,0.0685 1.0758,1.48766 2.54287,3.1537 3.5777,4.06294 8.5733,10.31142 11.09739,13.88058 l 2.0607,2.91392 4.82582,0.60748 c 15.8992,2.00142 35.15164,7.40275 53.81189,15.09708 3.02649,1.24793 3.57187,1.44389 3.57187,1.2834 z m -16.35227,-30.02569 c -0.29475,-0.25466 -0.73274,-1.17739 -0.97332,-2.05052 -1.48215,-5.37911 -6.05394,-7.92493 -13.9488,-7.76745 -2.95838,0.059 -3.42573,0.008 -3.90261,-0.42324 -0.68326,-0.61835 -0.69999,-1.83753 -0.0343,-2.50318 0.67352,-0.67352 2.83185,-0.92437 6.34613,-0.73757 7.62357,0.40522 13.08726,3.96386 14.85179,9.67337 0.65965,2.13444 0.65518,2.96805 -0.0198,3.69256 -0.65041,0.69814 -1.59086,0.74519 -2.31904,0.11603 z m -93.052934,18.18061 c 4.575161,-1.53287 11.042038,-3.17203 15.590432,-3.95172 1.735262,-0.29746 3.187162,-0.57298 3.226462,-0.61227 0.0393,-0.0393 -1.43715,-1.02063 -3.280969,-2.18075 -3.69312,-2.32368 -10.041689,-6.6638 -13.581964,-9.28513 -2.075231,-1.53656 -2.395133,-1.6873 -3.571875,-1.68312 -2.056442,0.007 -4.832379,0.70194 -5.822188,1.4569 -0.832223,0.63477 -0.894273,0.78709 -0.894273,2.19531 0,1.68042 0.473451,3.56586 2.375828,9.46131 0.708131,2.1945 1.369481,4.42692 1.469663,4.96094 0.100182,0.53402 0.258196,0.97033 0.351142,0.96958 0.09295,-7.9e-4 1.954929,-0.59972 4.137742,-1.33105 z m 36.049474,-5.67401 c 3.38336,-0.002 6.15157,-0.0529 6.15157,-0.11346 0,-0.20358 -4.57699,-6.22026 -6.45889,-8.49053 -4.74867,-5.72868 -11.73112,-13.17816 -16.86529,-17.99336 C 83.64591,99.580108 62.032111,84.385063 40.475904,73.484207 35.082106,70.756591 27.451449,67.250705 27.451449,67.500152 c 0,0.16378 1.651487,2.744343 4.056624,6.33876 16.100035,24.061102 44.565676,50.475868 73.014507,67.753988 l 3.22991,1.96166 2.51354,-0.19318 c 1.38245,-0.10625 5.28174,-0.19472 8.6651,-0.1966 z M 104.17066,134.4046 C 96.25684,126.07487 86.417478,116.70649 77.722281,109.22222 67.847131,100.72233 55.242654,91.205839 47.485203,86.392976 45.032151,84.871058 44.623801,84.295349 45.079091,83.00074 c 0.395295,-1.124016 1.487757,-1.329042 2.94995,-0.553625 2.579495,1.36793 13.792488,9.158356 18.051573,12.541644 10.025833,7.964221 13.854417,11.177451 21.563541,18.097711 5.01945,4.50582 24.027905,23.53092 24.583185,24.60472 0.66978,1.2952 -0.13365,2.69043 -1.54925,2.69043 -0.73669,0 -1.46018,-0.66452 -6.50743,-5.97702 z"/>
  </g>
</svg>
