<svg xmlns="http://www.w3.org/2000/svg" width="135.35945mm" height="123.10503mm" viewBox="0 0 135.35946 123.10502" fill="currentColor">
  <g transform="translate(-104.05973,-87.263749)">
    <path d="m 164.05977,210.24198 c -30.68253,-1.67113 -54.38839,-11.94639 -59.15002,-25.63845 -3.20754,-9.22327 2.77719,-18.76618 16.01451,-25.53581 3.38067,-1.72888 5.84696,-2.73537 10.73517,-4.38099 l 3.70416,-1.24701 2.12993,-6.19286 c 4.45879,-12.9642 9.3737,-24.39903 15.39878,-35.82619 6.63124,-12.576802 9.2213,-16.138818 14.18985,-19.514775 4.76294,-3.23625 11.45385,-5.025749 17.09707,-4.572642 1.23692,0.09932 8.97366,1.42696 17.19275,2.950321 16.50242,3.05863 16.49615,3.056791 18.08566,5.303989 1.09531,1.54852 1.45398,2.571774 1.47854,4.218102 0.0351,2.354385 -1.15542,4.680155 -3.0657,5.988995 -1.36745,0.93692 -29.86865,12.37288 -30.83623,12.37288 -3.08248,0 -4.28697,-4.27261 -1.59377,-5.65347 0.39772,-0.20392 7.03343,-2.90308 14.74604,-5.99813 7.7126,-3.09505 14.18398,-5.77444 14.38084,-5.95421 0.49353,-0.45068 0.14288,-1.411621 -0.574,-1.573002 -0.31772,-0.07152 -7.0649,-1.327289 -14.99373,-2.790586 -12.45402,-2.29844 -14.79466,-2.659984 -17.19791,-2.65645 -3.31256,0.0049 -6.01075,0.618711 -8.73973,1.988291 -4.22523,2.120495 -6.35364,4.367447 -9.70017,10.240407 -8.21418,14.4154 -14.60767,28.75592 -20.07249,45.02237 -1.23045,3.66252 -2.23719,6.68061 -2.23719,6.70684 0,0.31754 -2.38507,1.32462 -4.62995,1.95497 -10.14858,2.84967 -19.40675,7.96054 -23.09439,12.749 -4.21495,5.47319 -3.72861,10.56919 1.5112,15.83483 7.67634,7.71416 22.56939,13.07308 42.35273,15.23965 5.47751,0.59987 22.99571,0.68395 28.4427,0.13651 19.96671,-2.0067 35.70047,-7.46375 43.37102,-15.04267 5.01141,-4.95154 5.91104,-9.79447 2.73289,-14.71169 -1.9317,-2.98872 -6.02737,-6.34281 -10.75073,-8.80416 -1.51129,-0.78754 -2.03497,-1.21375 -2.31511,-1.88421 -0.58591,-1.40229 -0.45915,-2.41453 0.41137,-3.28506 0.63113,-0.63113 0.99778,-0.7734 1.99317,-0.7734 1.47479,0 2.78796,0.63136 6.52911,3.13913 15.71491,10.53399 15.75405,24.69432 0.097,35.09497 -10.15078,6.74296 -25.92753,11.31865 -44.18541,12.81498 -4.74502,0.38888 -14.79855,0.5333 -19.45799,0.27953 z m -0.25347,-18.52104 c -21.13741,-1.45562 -34.38813,-6.97112 -35.08949,-14.60569 -0.17523,-1.9074 1.60581,-7.8223 2.69893,-8.96328 1.37604,-1.43627 3.67945,-1.17584 4.68708,0.52994 0.66057,1.11825 0.56842,1.94647 -0.60531,5.44017 -0.98917,2.94435 -1.03035,3.18561 -0.64432,3.77477 0.98338,1.50083 5.04741,3.50843 10.0182,4.94891 16.83365,4.8782 43.22086,4.19301 57.61781,-1.49614 2.5947,-1.02533 5.29065,-2.79935 5.60274,-3.68678 0.19049,-0.54164 -0.91884,-3.91694 -5.99642,-18.24503 -6.59211,-18.60183 -7.26208,-20.67981 -8.10575,-25.14096 -0.63126,-3.33799 -1.17023,-9.52248 -0.92961,-10.66716 0.39323,-1.87076 2.40023,-2.91056 4.18141,-2.16633 1.51281,0.63209 1.77841,1.31876 2.03039,5.24935 0.24568,3.83246 0.7174,6.68618 1.72751,10.45088 0.62997,2.34793 13.02229,37.40588 13.66213,38.65027 0.48631,0.9458 -0.12465,3.33667 -1.28212,5.01726 -3.63754,5.28154 -14.7627,9.19426 -30.2586,10.64192 -4.17732,0.39026 -15.29793,0.54451 -19.31458,0.2679 z m -3.08763,-18.70723 c -0.46127,-0.22985 -1.04485,-0.80076 -1.29685,-1.26869 -0.44319,-0.82296 -0.43019,-1.02523 0.39747,-6.18469 l 0.85565,-5.3339 -3.10524,-3.23622 c -1.70788,-1.77991 -3.3246,-3.5934 -3.5927,-4.02996 -0.92963,-1.51373 -0.41358,-3.55663 1.10351,-4.36855 0.27148,-0.14529 2.59567,-0.55311 5.16486,-0.90627 2.56919,-0.35316 4.7027,-0.68002 4.74113,-0.72635 0.0384,-0.0463 1.05329,-2.19343 2.25525,-4.77133 1.4049,-3.01315 2.40675,-4.83213 2.80523,-5.09322 0.7967,-0.52202 2.59694,-0.52202 3.39364,0 0.39848,0.26109 1.40033,2.08007 2.80523,5.09322 1.20196,2.5779 2.21048,4.71865 2.24116,4.75724 0.0307,0.0386 2.18718,0.3665 4.79222,0.7287 5.18018,0.72024 5.71996,0.93393 6.54365,2.59055 0.78811,1.58509 0.4872,2.13149 -3.4291,6.22653 l -3.5825,3.74601 0.83714,5.1902 c 0.46043,2.85461 0.76928,5.46061 0.68633,5.79111 -0.083,0.3305 -0.57274,0.97136 -1.08842,1.42414 -1.5295,1.34291 -2.28975,1.19021 -7.09859,-1.42573 -2.27382,-1.23693 -4.23883,-2.24896 -4.36669,-2.24896 -0.12786,0 -2.12331,1.01126 -4.43434,2.24725 -4.4181,2.3629 -5.11605,2.55233 -6.62804,1.79892 z m 7.99631,-9.47013 c 1.31662,-0.71769 2.52523,-1.19062 3.04271,-1.19062 0.52004,0 1.73729,0.47904 3.0877,1.21515 1.22607,0.66833 2.26817,1.17434 2.31577,1.12447 0.0476,-0.0499 -0.088,-0.98363 -0.30127,-2.07504 -0.21329,-1.09141 -0.3413,-2.60047 -0.28444,-3.35347 0.0961,-1.27281 0.23936,-1.51995 2.03713,-3.51418 1.06357,-1.17979 1.88796,-2.18707 1.83197,-2.2384 -0.056,-0.0513 -1.10521,-0.22642 -2.3316,-0.38909 -3.48946,-0.46286 -3.92741,-0.77325 -5.17515,-3.66788 -0.58022,-1.34607 -1.12408,-2.4474 -1.20856,-2.4474 -0.0845,0 -0.54106,0.93844 -1.01462,2.08542 -1.32636,3.21254 -2.02756,3.69186 -6.04842,4.1345 -0.90951,0.10012 -1.65365,0.23598 -1.65365,0.3019 0,0.0659 0.87938,1.10826 1.95417,2.31629 1.0748,1.20804 2.03269,2.44381 2.12865,2.74616 0.14849,0.46783 -0.38542,4.21375 -0.80953,5.6798 -0.19005,0.65694 -0.0143,0.60429 2.42914,-0.72761 z"/>
  </g>
</svg>
