<svg fill="currentColor" xmlns="http://www.w3.org/2000/svg" width="135.33356mm" height="92.063385mm" viewBox="0 0 135.33357 92.06338">
  <g transform="translate(-131.38908,-91.638596)">
    <path d="m 172.33294,183.52269 c -0.92652,-0.34815 -1.89913,-1.24533 -2.38724,-2.20209 -0.45068,-0.88343 -0.52317,-1.56244 -0.52317,-4.90082 0,-3.58253 -0.035,-3.86179 -0.46302,-3.69641 -1.67601,0.64754 -3.84242,1.28476 -5.0906,1.49734 -2.33499,0.39767 -6.81359,0.32329 -8.86617,-0.14724 -2.58856,-0.59339 -6.74946,-2.72563 -9.29299,-4.76216 -5.00013,-4.00345 -9.91362,-11.09751 -13.17661,-19.02428 -1.30399,-3.16775 -1.43673,-4.30385 -0.68444,-5.85788 0.69477,-1.43519 1.07177,-1.71179 3.97962,-2.91987 3.79058,-1.57481 6.40363,-3.39545 10.05842,-7.00819 4.13261,-4.08507 6.37031,-7.07968 13.30574,-17.80642 7.73019,-11.95596 9.29722,-14.08092 13.36298,-18.120781 3.95342,-3.928235 8.93294,-6.935293 11.48444,-6.935293 2.24697,0 3.33785,0.885928 4.72167,3.834578 1.99757,4.25643 5.79926,6.748756 10.29429,6.748756 4.49503,0 8.29672,-2.492326 10.29429,-6.748756 1.38382,-2.94865 2.4747,-3.834578 4.72167,-3.834578 2.5515,0 7.53102,3.007058 11.48444,6.935293 4.06576,4.039861 5.63279,6.164821 13.36298,18.120781 6.93543,10.72674 9.17313,13.72135 13.30574,17.80642 3.65479,3.61274 6.26784,5.43338 10.05842,7.00819 2.90785,1.20808 3.28485,1.48468 3.97962,2.91987 0.75229,1.55403 0.61954,2.69013 -0.68444,5.85788 -3.26299,7.92677 -8.17648,15.02083 -13.17661,19.02428 -2.54353,2.03653 -6.70443,4.16877 -9.29299,4.76216 -2.05258,0.47053 -6.53118,0.54491 -8.86617,0.14724 -1.24818,-0.21258 -3.41459,-0.8498 -5.0906,-1.49734 -0.42804,-0.16538 -0.46302,0.11388 -0.46302,3.69641 0,3.33838 -0.0725,4.01739 -0.52317,4.90082 -0.75437,1.47869 -1.9199,2.21227 -3.72198,2.34262 -1.79423,0.12978 -1.88228,0.0871 -5.50767,-2.66822 -5.94069,-4.51501 -11.52183,-6.27724 -19.88051,-6.27724 -8.37969,0 -13.86848,1.74195 -19.97042,6.33791 -1.59764,1.20333 -3.18297,2.29364 -3.52296,2.4229 -0.67377,0.25617 -2.59534,0.28242 -3.22954,0.0441 z m 8.4646,-14.22785 c 5.70311,-2.87204 14.10876,-4.24884 22.02863,-3.60818 5.93965,0.48048 10.56428,1.63222 14.48801,3.60818 1.01024,0.50875 1.95884,0.925 2.10799,0.925 0.16076,0 0.27119,-0.79719 0.27119,-1.95777 v -1.95777 l -2.31511,-1.71901 c -1.2733,-0.94546 -3.08901,-2.13766 -4.03489,-2.64934 -7.61326,-4.11842 -20.96174,-4.11842 -28.575,0 -0.94588,0.51168 -2.76159,1.70388 -4.03489,2.64934 l -2.31511,1.71901 v 1.95777 c 0,1.16058 0.11043,1.95777 0.27119,1.95777 0.14915,0 1.09775,-0.41625 2.10799,-0.925 z m -17.60656,-4.24188 c 2.43156,-0.63334 4.73966,-2.00536 8.74509,-5.19839 5.8318,-4.64897 9.22004,-6.63928 13.89062,-8.15956 7.79036,-2.53579 18.66798,-2.53579 26.45834,0 4.68125,1.52376 8.07795,3.52107 13.89062,8.16792 5.71856,4.57161 8.6212,5.79867 13.06299,5.52222 1.92396,-0.11974 2.51511,-0.28637 4.49792,-1.26783 3.89631,-1.9286 7.88825,-6.39636 11.11543,-12.44032 0.74463,-1.39455 1.35387,-2.60969 1.35387,-2.70031 0,-0.0906 -0.81824,-0.64263 -1.81831,-1.22671 -5.08444,-2.96946 -10.52764,-8.10075 -15.06949,-14.20593 -1.50292,-2.02024 -4.99602,-7.18551 -7.76244,-11.47837 -2.76643,-4.29287 -6.00161,-9.17384 -7.18929,-10.8466 -2.1804,-3.07093 -7.49107,-8.73257 -8.19122,-8.73257 -0.2082,0 -0.71396,0.48403 -1.12394,1.07562 -1.56793,2.26252 -4.75353,4.72406 -7.94081,6.13592 -4.86531,2.15518 -11.24369,2.15518 -16.109,0 -3.18728,-1.41186 -6.37288,-3.8734 -7.94081,-6.13592 -0.40998,-0.59159 -0.91574,-1.07562 -1.12394,-1.07562 -0.70015,0 -6.01082,5.66164 -8.19122,8.73257 -1.18768,1.67276 -4.42286,6.55373 -7.18929,10.8466 -2.76642,4.29286 -6.25952,9.45813 -7.76244,11.47837 -4.54185,6.10518 -9.98505,11.23647 -15.06949,14.20593 -1.00007,0.58408 -1.81831,1.1361 -1.81831,1.22671 0,0.38863 2.82096,5.40165 4.06301,7.22024 0.74541,1.0914 2.43059,3.06908 3.74484,4.39484 1.9794,1.99672 2.77463,2.59519 4.63304,3.48666 1.23392,0.59191 2.54114,1.1281 2.90495,1.19152 1.53351,0.26737 4.49509,0.15917 5.93928,-0.21699 z m 25.80014,-22.69447 c -1.32371,-0.69999 -2.37068,-2.38105 -2.37068,-3.80647 0,-1.55979 0.73329,-2.74059 3.36606,-5.42031 l 2.5654,-2.61115 -2.55821,-2.57379 c -2.57478,-2.59047 -3.37325,-3.8573 -3.37325,-5.35193 0,-2.03884 1.76591,-4.06895 3.80546,-4.3748 1.95386,-0.293 2.90837,0.21298 5.90881,3.13218 l 2.72115,2.64747 2.72115,-2.64747 c 3.00044,-2.9192 3.95495,-3.42518 5.90881,-3.13218 2.03955,0.30585 3.80546,2.33596 3.80546,4.3748 0,1.49463 -0.79847,2.76146 -3.37325,5.35193 l -2.55821,2.57379 2.5654,2.61115 c 3.47716,3.53917 4.03466,5.04888 2.75679,7.46538 -1.0757,2.03417 -3.81478,2.95045 -5.82002,1.9469 -0.46572,-0.23307 -2.00761,-1.57029 -3.42644,-2.9716 l -2.57969,-2.54783 -2.57969,2.54783 c -1.41883,1.40131 -2.96072,2.73853 -3.42644,2.9716 -1.1914,0.59625 -2.71171,0.52677 -4.05861,-0.1855 z"/>
  </g>
</svg>
