<svg xmlns="http://www.w3.org/2000/svg" width="135.28055mm" height="125.67033mm" viewBox="0 0 135.28056 125.67033" fill="currentColor">
  <g transform="translate(-116.59794,-42.464981)">
    <path d="m 145.98636,167.9354 c -0.31185,-0.12585 -0.75833,-0.50198 -0.99218,-0.83585 -0.38559,-0.5505 -0.42519,-4.03926 -0.42519,-37.45754 0,-20.26778 -0.0432,-36.850501 -0.096,-36.850501 -0.0528,0 -1.82478,0.823018 -3.93779,1.828932 -7.98792,3.8027 -8.33315,3.897511 -9.45233,2.59583 -0.75632,-0.879666 -14.23713,-21.816781 -14.42177,-22.398542 -0.0876,-0.276127 -0.0836,-0.803921 0.009,-1.172874 0.11287,-0.449707 4.86481,-4.87707 14.41646,-13.431741 7.83645,-7.018506 14.42536,-12.860121 14.64202,-12.981369 0.21666,-0.121247 4.89384,-1.293449 10.39374,-2.604893 8.28673,-1.975958 10.11402,-2.335245 10.66645,-2.097262 0.36664,0.15795 1.14288,0.94025 1.72496,1.738446 2.22046,3.044855 6.32329,5.745165 10.45104,6.878442 2.17039,0.595881 7.91157,0.674539 10.05417,0.137748 4.4401,-1.112388 8.43066,-3.645294 10.85701,-6.891215 0.65125,-0.871234 1.51272,-1.700904 1.91947,-1.848614 0.60698,-0.220423 2.50661,0.153755 10.70402,2.108418 5.48135,1.30702 10.20943,2.538991 10.50686,2.737713 0.51128,0.341614 26.78996,23.821473 28.18371,25.181997 1.39775,1.364433 1.2806,1.611929 -6.31456,13.339818 -3.81679,5.893593 -7.16723,10.980361 -7.44542,11.303928 -1.11918,1.301681 -1.46442,1.20687 -9.45233,-2.59583 -2.11301,-1.005914 -3.88502,-1.828932 -3.93779,-1.828932 -0.0528,0 -0.096,16.593161 -0.096,36.873691 0,36.37509 -0.007,36.88272 -0.52498,37.5411 -0.6569,0.83511 -1.67251,1.10624 -2.49794,0.66687 -0.34809,-0.18528 -3.07865,-2.63511 -6.06792,-5.44406 -2.98926,-2.80896 -5.53022,-5.08785 -5.64657,-5.06422 -0.11636,0.0236 -2.63327,2.32187 -5.59315,5.10719 -2.95989,2.78532 -5.66658,5.21581 -6.01488,5.40109 -0.3537,0.18816 -0.933,0.26165 -1.31223,0.16646 -0.37344,-0.0937 -3.1827,-2.53727 -6.24282,-5.4301 -3.06012,-2.89283 -5.66427,-5.25969 -5.78701,-5.25969 -0.12274,0 -2.72689,2.36686 -5.78701,5.25969 -3.06012,2.89283 -5.86938,5.33638 -6.24282,5.4301 -0.37923,0.0952 -0.95853,0.0217 -1.31223,-0.16646 -0.3483,-0.18528 -3.07731,-2.63675 -6.06446,-5.44771 -2.98716,-2.81096 -5.47979,-5.13268 -5.53919,-5.15938 -0.0594,-0.0267 -2.5759,2.27319 -5.59223,5.11084 -6.41222,6.03239 -6.46457,6.07003 -7.73219,5.55848 z m 31.45431,-10.33121 c 3.08804,-2.91605 5.88489,-5.36974 6.21522,-5.45264 0.33033,-0.0829 0.87087,-0.0829 1.2012,0 0.33033,0.0829 3.13687,2.54575 6.23677,5.47299 l 5.63618,5.32225 1.50228,-1.40299 c 0.82626,-0.77164 3.1394,-2.94592 5.14031,-4.83174 l 3.63803,-3.42877 v -2.43519 -2.4352 l -0.88972,-0.16692 c -1.16468,-0.21849 -1.86195,-1.02024 -1.86195,-2.14093 0,-1.1207 0.69727,-1.92245 1.86195,-2.14094 l 0.88972,-0.16691 v -1.82264 c 0,-1.8099 -0.005,-1.82269 -0.72761,-1.83105 -0.90668,-0.0105 -1.55322,-0.48676 -1.9004,-1.39991 -0.47308,-1.24428 0.57909,-2.82501 1.88038,-2.82501 h 0.74763 v -3.05585 c 0,-3.43996 0.30313,-4.39427 1.53188,-4.82261 1.09789,-0.38273 2.28597,0.18577 2.6659,1.27564 0.16507,0.47352 0.30013,2.15287 0.30013,3.73188 v 2.87094 h 0.74763 c 1.30129,0 2.35345,1.58073 1.88038,2.82501 -0.34718,0.91315 -0.99373,1.38942 -1.9004,1.39991 -0.72253,0.008 -0.72761,0.0211 -0.72761,1.83105 v 1.82264 l 0.88972,0.16691 c 1.10661,0.2076 1.78333,0.92742 1.81176,1.92713 0.0334,1.17579 -0.48945,1.88379 -1.64746,2.23073 l -1.05402,0.3158 v 2.42408 2.42409 l 3.94632,3.75174 c 2.17047,2.06346 4.01594,3.75174 4.10104,3.75174 0.0851,0 0.15472,-17.46475 0.15472,-38.81055 V 83.168323 l 0.57529,-0.612365 c 0.714,-0.760016 2.03398,-0.808638 2.90113,-0.106871 0.5624,0.455136 0.63363,0.75451 0.71503,3.005008 l 0.0904,2.499513 5.44785,2.556005 c 3.07447,1.442466 5.54779,2.456074 5.67724,2.326626 0.12616,-0.126156 2.83773,-4.26572 6.02571,-9.199032 l 5.79633,-8.969655 -0.58376,-0.576215 c -0.32107,-0.316921 -6.21935,-5.624732 -13.10729,-11.795142 l -12.52353,-11.218925 -8.53912,-2.04015 -8.53912,-2.04015 -2.24615,2.193625 c -4.74042,4.629545 -10.23919,6.815542 -17.14417,6.815542 -6.90498,0 -12.40375,-2.185997 -17.14417,-6.815542 l -2.24615,-2.193625 -8.53912,2.04015 -8.53912,2.04015 -12.52353,11.218925 c -6.88794,6.17041 -12.78622,11.478221 -13.10729,11.795142 l -0.58376,0.576215 5.79633,8.969655 c 3.18798,4.933312 5.89955,9.072876 6.02571,9.199032 0.12945,0.129448 2.60277,-0.88416 5.67723,-2.326626 l 5.44786,-2.556005 0.0904,-2.499513 c 0.0814,-2.250498 0.15263,-2.549872 0.71503,-3.005008 0.83559,-0.676227 2.10282,-0.645348 2.86405,0.06979 l 0.61237,0.575289 v 8.155961 8.155963 h 11.62921 c 7.9593,0 11.83268,0.0927 12.27395,0.293759 0.99645,0.454011 1.23225,1.334551 1.23225,4.601491 v 3.01827 l 0.93069,0.1746 c 1.06448,0.1997 1.97973,1.19568 1.97973,2.15437 0,0.8595 -1.35512,2.19293 -2.22861,2.19293 -0.66776,0 -0.68181,0.0382 -0.68181,1.85208 0,1.84203 0.004,1.85213 0.7276,1.8605 1.17367,0.0136 2.18282,1.10809 2.18282,2.36747 0,0.83576 -1.15766,1.85745 -2.10464,1.85745 h -0.80578 v 3.29254 c 0,3.09877 -0.0376,3.33622 -0.63837,4.03489 l -0.63838,0.74236 -11.92933,0.074 -11.92933,0.074 v 16.39632 c 0,10.06892 0.0961,16.39632 0.24896,16.39632 0.13694,0 0.31975,-0.11451 0.40625,-0.25447 0.0865,-0.13996 2.11798,-2.10449 4.51441,-4.36563 3.90581,-3.6853 4.45265,-4.11115 5.27927,-4.11115 0.82399,0 1.36359,0.41539 5.06972,3.90261 6.51372,6.12899 7.36328,6.9211 7.43647,6.93359 0.0378,0.006 2.59522,-2.37414 5.68326,-5.29018 z m -19.64864,-17.85567 c -0.87838,-0.93499 -0.81951,-2.41161 0.12865,-3.22718 2.1575,-1.8558 5.00878,1.15132 3.05927,3.22647 -0.86395,0.91965 -2.32433,0.91997 -3.18792,8e-4 z m 49.741,-41.275703 c -1.95083,-2.076556 0.90212,-5.081977 3.06121,-3.224813 0.53884,0.463497 0.70267,0.846915 0.70267,1.644546 0,2.01584 -2.40578,3.025902 -3.76388,1.580267 z m -10.98544,-8.711991 c -1.40005,-1.400045 -0.42181,-3.848483 1.53761,-3.848483 1.45681,0 2.55109,1.388147 2.19927,2.789896 -0.41979,1.672574 -2.52619,2.269278 -3.73688,1.058587 z m 11.08636,-8.708987 c -1.49179,-1.283185 -0.56095,-3.870746 1.39245,-3.870746 1.30592,0 2.27051,0.955426 2.27051,2.248958 0,1.976295 -2.14614,2.926503 -3.66296,1.621788 z m -48.87407,-4.154533 c -0.53972,-0.424545 -0.69714,-0.780825 -0.69714,-1.577819 0,-0.895807 0.21077,-1.254762 1.62356,-2.765043 l 1.62356,-1.73559 -1.62356,-1.690772 c -1.86323,-1.940359 -2.13123,-3.019486 -1.01119,-4.071702 1.11646,-1.048859 2.12302,-0.787334 4.03462,1.048274 l 1.69077,1.623562 1.73559,-1.623562 c 2.01784,-1.887588 3.08359,-2.132338 4.2418,-0.974127 1.14409,1.144084 0.75914,2.344803 -1.44091,4.494519 l -1.33812,1.307494 1.71423,1.775634 c 0.97444,1.009338 1.71423,2.009733 1.71423,2.318078 0,0.878526 -0.54017,1.810332 -1.23225,2.125665 -1.17531,0.535509 -1.69905,0.323271 -3.50525,-1.420471 l -1.77563,-1.714232 -1.3075,1.338114 c -2.1024,2.151636 -3.1916,2.529329 -4.44681,1.541978 z m 10.89047,44.799934 c -0.0775,-1.76824 -0.0861,-1.78681 -0.87198,-1.87327 -1.18205,-0.13006 -1.98438,-1.00612 -1.98438,-2.16674 0,-1.14137 0.62559,-1.82572 1.90739,-2.08656 0.86788,-0.17661 0.87099,-0.18289 0.94816,-1.91756 l 0.0774,-1.74036 -1.05518,-0.16873 c -2.59862,-0.41554 -2.52186,-3.75758 0.0976,-4.24899 l 0.95856,-0.17983 -0.0779,-1.77174 -0.0779,-1.77174 h -10.31875 -10.31875 l -0.0694,9.85573 -0.0694,9.85572 h 10.46635 10.46635 z"/>
  </g>
</svg>
