<?xml version="1.0" encoding="UTF-8" standalone="no"?>
<svg xmlns="http://www.w3.org/2000/svg" width="63.155869mm" height="63.155869mm" viewBox="0 0 63.155869 63.155868" version="1.1">
   <path
      transform="translate(-50.06492,-69.532648)"
      style="fill:#000000;stroke:none;"
      d="m 69.629935,75.921048 c -0.6881,-0.0306 -1.382081,0.1232 -1.992281,0.4531 -0.008,0.004 -0.016,0.006 -0.0238,0.01 -0.004,0.002 -0.006,0.004 -0.01,0.006 -0.028,0.016 -0.0532,0.0354 -0.0744,0.0592 l -0.001,0.001 c -3.6e-4,3.39e-4 -5.4e-4,5.4e-4 -10e-4,10e-4 -0.0488,0.0566 -0.0726,0.1306 -0.0662,0.20528 -2e-5,0.002 -2e-5,0.004 0,0.006 0.002,0.012 0.004,0.0228 0.006,0.0344 0.002,0.008 0.004,0.018 0.008,0.0258 0.008,0.0242 0.02,0.0474 0.0342,0.0684 0.002,0.002 0.002,0.004 0.004,0.006 0.018,0.0252 0.0406,0.0474 0.0662,0.0654 3.4e-4,3.6e-4 5.4e-4,5.4e-4 10e-4,0.001 l 0.001,10e-4 c 0.053,0.0362 0.117,0.0528 0.1808,0.0468 h 10e-4 c 0.01,-0.001 0.0208,-0.002 0.031,-0.006 0.002,-3.2e-4 0.004,-5.21e-4 0.006,-0.001 0.72362,-0.1696 1.52538,-0.0324 2.15144,0.36912 0.62602,0.40164 1.0845,1.07188 1.23484,1.80204 0.0996,0.48376 0.0728,1.00194 -0.0278,1.50862 -0.1008,0.50744 -0.2744,1.00822 -0.456741,1.51692 -0.788499,2.19954 -1.693619,4.38272 -2.304359,6.67312 -0.611041,2.29152 -0.921721,4.72232 -0.4805,7.08582 0.548779,2.93962 2.287019,5.629442 4.737879,7.331542 2.025941,1.40698 4.508681,2.11552 6.966801,2.026 0.0256,1.52946 0.078,3.0583 0.156,4.58598 -2.95562,0.1536 -5.89364,0.6519 -8.73176,1.49408 2.88662,0.94358 5.898199,1.49702 8.93016,1.6517 0.1178,1.5756 0.25628,3.15038 0.42986,4.72076 -3.16904,0.111 -6.32332,0.62286 -9.36416,1.5252 3.15022,1.02974 6.44904,1.59238 9.76098,1.68072 0.24516,1.8147 0.5246,3.6249 0.84424,5.42788 0.35076,-1.8011 0.65684,-3.6106 0.92588,-5.4258 3.32886,-0.084 6.64535,-0.64782 9.81157,-1.6828 -3.04446,-0.90342 -6.20263,-1.41708 -9.37551,-1.52728 0.1904,-1.57056 0.34204,-3.14496 0.47122,-4.7218 3.02454,-0.1564 6.02877,-0.70728 8.90843,-1.64858 -2.82518,-0.83836 -5.74841,-1.3348 -8.69041,-1.49098 0.0856,-1.52654 0.1414,-3.0542 0.1696,-4.58286 2.39032,0.0442 4.79009,-0.66404 6.76013,-2.03222 2.45088,-1.7021 4.18912,-4.391922 4.737879,-7.331542 0.44124,-2.3635 0.130601,-4.7943 -0.4805,-7.08582 -0.610759,-2.2904 -1.511719,-4.47358 -2.300219,-6.67312 -0.1824,-0.5087 -0.35694,-1.00948 -0.45778,-1.51692 -0.1006,-0.50668 -0.1306,-1.02486 -0.031,-1.50862 0.1504,-0.73016 0.6119,-1.4004 1.23796,-1.80204 0.620439,-0.39808 1.414279,-0.5348 2.132821,-0.37222 0.126198,0.039 0.262078,-0.018 0.324459,-0.1338 0.0664,-0.1224 0.0318,-0.27502 -0.0806,-0.35668 -0.008,-0.006 -0.01799,-0.012 -0.027,-0.018 l -0.0021,-0.002 c -0.008,-0.004 -0.01799,-0.008 -0.0268,-0.012 -0.983999,-0.53448 -2.1933,-0.60742 -3.23438,-0.1948 -1.05026,0.41612 -1.88494,1.30934 -2.23408,2.38682 -0.21292,0.6571 -0.24524,1.34854 -0.1798,2.01354 0.0654,0.6642 0.22638,1.30578 0.39062,1.92854 0.54666,2.07318 1.2016,4.10244 1.55414,6.1796 0.35228,2.07566 0.39064,4.23262 -0.2728,6.19206 -0.602703,1.7805 -1.792383,3.36258 -3.331383,4.435621 -1.31201,0.914801 -2.88069,1.456201 -4.47541,1.563561 -0.1234,-7.114802 -0.86468,-14.218642 -2.22478,-21.202482 -1.24138,7.00224 -1.91662,14.10368 -2.02846,21.214922 -1.66588,-0.0722 -3.31414,-0.6215 -4.683121,-1.576001 -1.538979,-1.073041 -2.724499,-2.655121 -3.327359,-4.435621 -0.663421,-1.95944 -0.6292,-4.1164 -0.276941,-6.19206 0.352541,-2.07716 1.0116,-4.10642 1.558301,-6.1796 0.164199,-0.62276 0.321099,-1.26434 0.386459,-1.92854 0.0654,-0.665 0.0372,-1.35644 -0.1758,-2.01354 -0.34916,-1.07748 -1.187979,-1.9707 -2.238219,-2.38682 -0.393861,-0.1562 -0.8116,-0.24264 -1.23174,-0.2613 z"/>
</svg>
