<?xml version="1.0" encoding="UTF-8" standalone="no"?>
<svg xmlns="http://www.w3.org/2000/svg" width="63.155869mm" height="63.155869mm" viewBox="0 0 63.155869 63.155868" version="1.1">
   <path
      transform="translate(-50.06492,-69.532648)"
      style="fill:#000000;stroke:none;"
      d="m 60.854511,76.28782 c -0.135,0.008 -0.2427,0.1156 -0.25008,0.25092 -0.1214,1.97714 0.167,3.97588 0.83598,5.839541 0.6394,1.781159 1.59524,3.40982 2.48416,5.03594 0.88756,1.62364 1.7001,3.28644 2.4604,4.97688 l 6.53382,14.531399 c -0.51106,0.014 -1.01928,-0.02 -1.51178,-0.1306 -1.41184,-0.31924 -2.68416,-1.2626 -3.40176,-2.52368 l -0.001,-0.001 c -0.004,-0.008 -0.01,-0.016 -0.016,-0.0248 l -0.002,-0.002 c -0.006,-0.008 -0.012,-0.016 -0.018,-0.0228 l -10e-4,-0.001 c -0.006,-0.006 -0.014,-0.014 -0.0218,-0.02 -5.29e-4,-2.6e-4 -0.002,-5.3e-4 -0.002,-0.001 -0.008,-0.006 -0.016,-0.012 -0.0258,-0.018 -0.018,-0.012 -0.0362,-0.02 -0.0558,-0.0268 -0.002,-0.001 -0.006,-0.002 -0.008,-0.004 -0.0202,-0.006 -0.041,-0.01 -0.062,-0.012 -0.01,-5.3e-4 -0.0214,-5.3e-4 -0.032,0 -0.01,5.3e-4 -0.02,0.002 -0.029,0.004 -5.29e-4,-2e-5 -0.002,-2e-5 -0.002,0 -0.001,2.6e-4 -0.002,5.3e-4 -0.004,0.001 -0.01,0.002 -0.018,0.004 -0.0278,0.008 -0.008,0.002 -0.016,0.006 -0.0228,0.008 -0.006,0.002 -0.012,0.006 -0.018,0.008 -0.004,0.002 -0.008,0.004 -0.014,0.008 -0.002,0.002 -0.006,0.004 -0.008,0.006 -0.006,0.004 -0.012,0.008 -0.018,0.012 l -0.002,0.002 c -0.008,0.006 -0.016,0.014 -0.0238,0.0208 l -0.002,0.002 c -0.006,0.006 -0.012,0.012 -0.018,0.018 -3.7e-4,5.3e-4 -5.29e-4,0.002 -0.001,0.002 -0.006,0.008 -0.012,0.016 -0.018,0.0238 -3.44e-4,5.3e-4 -5.29e-4,0.002 -0.001,0.002 -0.006,0.008 -0.01,0.016 -0.014,0.0248 -3.71e-4,0.001 -5.29e-4,0.002 -0.001,0.004 -0.012,0.0252 -0.02,0.0522 -0.0238,0.0798 -3.7e-4,0.002 -5.29e-4,0.006 -0.001,0.008 -0.21196,0.7341 -0.23352,1.52146 -0.0548,2.2645 0.183,0.7602 0.57148,1.46754 1.11292,2.03011 0.72478,0.75308 1.67578,1.20836 2.63194,1.52004 1.11006,0.36184 2.27426,0.54612 3.44,0.55988 l 6.74874,15.00938 c 0.006,0.014 0.012,0.026 0.018,0.0384 0.002,0.004 0.006,0.008 0.008,0.012 0.004,0.004 0.006,0.01 0.01,0.014 0.002,0.004 0.004,0.006 0.008,0.01 0.004,0.004 0.008,0.01 0.014,0.014 0.004,0.004 0.006,0.006 0.01,0.01 0.004,0.004 0.008,0.006 0.012,0.01 0.002,0.001 0.002,0.002 0.004,0.004 0.006,0.006 0.014,0.01 0.0208,0.016 0.01,0.006 0.02,0.01 0.029,0.016 0.001,5.3e-4 0.002,0.002 0.004,0.002 10e-4,2.6e-4 0.002,5.3e-4 0.004,0.001 0.008,0.004 0.018,0.008 0.0268,0.01 h 10e-4 c 5.29e-4,2.6e-4 0.002,5.3e-4 0.002,0.001 0.008,0.002 0.018,0.006 0.0268,0.008 0.008,0.002 0.014,0.002 0.0216,0.004 0.004,5.3e-4 0.006,5.3e-4 0.01,0.001 0.012,10e-4 0.022,0.002 0.033,10e-4 5.29e-4,0 0.002,0 0.002,0 0.01,-5.3e-4 0.018,-0.002 0.0278,-0.004 0.0206,-0.004 0.0408,-0.01 0.06,-0.018 0.001,-2.6e-4 0.002,-5.3e-4 0.004,-0.001 3.7e-4,-2.6e-4 5.29e-4,-5.3e-4 0.001,-0.001 0.01,-0.004 0.0218,-0.01 0.032,-0.016 0.008,-0.004 0.014,-0.01 0.0218,-0.014 l 0.001,-10e-4 c 10e-4,-5.3e-4 0.002,-0.002 0.004,-0.002 0.016,-0.012 0.029,-0.0254 0.0414,-0.0406 10e-4,-0.002 0.002,-0.002 0.004,-0.004 0.006,-0.008 0.01,-0.014 0.016,-0.0218 10e-4,-0.002 0.002,-0.002 0.004,-0.004 0.004,-0.008 0.008,-0.014 0.012,-0.0228 5.3e-4,-0.002 0.002,-0.004 0.002,-0.006 3.71e-4,-5.3e-4 5.29e-4,-0.002 10e-4,-0.002 L 89.8649,108.03582 c 2.146379,0.29568 4.223545,1.11089 5.983045,2.37851 0.002,10e-4 0.004,0.002 0.006,0.004 0.008,0.006 0.016,0.01 0.0228,0.014 0.01,0.006 0.021,0.01 0.032,0.014 0.01,0.004 0.02,0.008 0.03,0.01 0.006,0.001 0.01,0.002 0.016,0.004 0.006,0.001 0.01,0.002 0.016,0.004 0.01,0.002 0.0214,0.002 0.032,0.002 5.3e-4,2e-5 0.002,2e-5 0.002,0 5.3e-4,2e-5 0.002,2e-5 0.002,0 0.0202,-1.2e-4 0.0404,-0.002 0.06,-0.008 0.002,-5.3e-4 0.004,-0.002 0.008,-0.002 0.008,-0.002 0.014,-0.004 0.0208,-0.006 5.3e-4,-2.7e-4 0.002,-5.3e-4 0.002,-10e-4 0.008,-0.004 0.016,-0.006 0.0238,-0.01 10e-4,-2.7e-4 0.002,-5.3e-4 0.004,-0.001 0.002,-0.002 0.006,-0.002 0.008,-0.004 0.006,-0.004 0.014,-0.008 0.02,-0.012 0.008,-0.006 0.016,-0.012 0.0248,-0.018 0.008,-0.006 0.016,-0.014 0.0238,-0.0218 0.006,-0.006 0.012,-0.014 0.016,-0.0206 l 0.004,-0.004 c 5.3e-4,-10e-4 0.002,-0.002 0.002,-0.004 0.001,-0.002 0.002,-0.002 0.004,-0.004 0.004,-0.008 0.01,-0.014 0.014,-0.0228 0.033,-0.0586 0.0426,-0.1274 0.0268,-0.1928 -0.40258,-1.55742 -1.2248,-3.00083 -2.3591,-4.13805 -0.687785,-0.68954 -1.489264,-1.2614 -2.359124,-1.69626 l 5.354144,-11.908877 c 0.76028,-1.690439 1.57282,-3.35324 2.46038,-4.976879 0.888915,-1.626121 1.844755,-3.254801 2.484135,-5.035961 0.66904,-1.86366 0.9532,-3.86238 0.83186,-5.83952 -0.008,-0.1474 -0.1342,-0.26012 -0.28106,-0.25092 -0.1082,0.008 -0.20122,0.0798 -0.23458,0.1836 -0.55098,1.12794 -1.07594,2.27008 -1.56654,3.42574 -0.41178,0.969921 -0.798715,1.93972 -1.296855,2.83784 -1.08052,1.948141 -2.70536,3.594201 -3.94426,5.5492 -0.7143,1.127161 -1.275,2.3203 -1.917884,3.44854 -0.642599,1.12772 -1.379781,2.204401 -2.35086,3.008941 -0.878401,0.72774 -1.94468,1.2281 -3.061819,1.4972 -1.117731,0.26924 -2.28799,0.313719 -3.44101,0.191799 -1.500935,-0.15877 -2.972795,-0.59625 -4.421095,-1.10109 -1.77124,-0.61744 -3.55516,-1.3526 -5.46846,-1.60608 -0.8986,-0.119 -1.77752,-0.1312 -2.56888,-0.38882 -0.66576,-0.21672 -1.28082,-0.60936 -1.80834,-1.09284 -0.52804,-0.48398 -0.9751,-1.05828 -1.37124,-1.673481 -0.79256,-1.230719 -1.38062,-2.621439 -2.19898,-3.90682 -0.8789,-1.380479 -1.97626,-2.571959 -2.75282,-3.9307 -0.50784,-0.888539 -0.88914,-1.861119 -1.29684,-2.833679 -0.48906,-1.166661 -1.01214,-2.315861 -1.57276,-3.449601 -0.0398,-0.0924 -0.1282,-0.1542 -0.22836,-0.1598 -0.01,-5.2e-4 -0.0208,-5.2e-4 -0.031,0 z m 14.39964,22.834501 c 0.24046,0.006 0.48098,0.0214 0.7192,0.059 1.59334,0.25234 3.09986,1.018079 4.7255,1.516919 2.31324,0.70984 4.7965,0.75812 7.163141,0.2592 l -1.197661,2.3806 c -0.1726,0.008 -0.3453,0.01 -0.5177,0.0248 -1.21266,0.101 -2.41824,0.36034 -3.57744,0.6895 -1.63932,0.46552 -3.22508,1.06466 -4.81124,1.6403 l -3.2261,-6.56219 c 0.2411,-0.008 0.48186,-0.014 0.7223,-0.008 z m 8.85988,9.283869 -2.53994,5.04842 -1.8094,-3.6808 c 0.83826,-0.28294 1.66738,-0.58486 2.49658,-0.85022 0.61118,-0.1956 1.22958,-0.36842 1.85276,-0.5174 z"/>
</svg>
