<?xml version="1.0" encoding="UTF-8" standalone="no"?>
<svg xmlns="http://www.w3.org/2000/svg" width="63.155869mm" height="63.155869mm" viewBox="0 0 63.155869 63.155868" version="1.1">
   <path
      transform="translate(-50.06492,-69.532648)"
      style="fill:#000000;stroke:none;"
      d="m 94.191978,75.702293 c -1.075824,-1.4e-4 -2.114803,0.32802 -2.995665,0.94768 a 1.9996418,2.00642 0 0 0 -0.48877,2.794299 1.9996418,2.00642 0 0 0 2.784861,0.493537 c 0.193159,-0.136 0.463584,-0.222957 0.699574,-0.222937 0.23606,4e-5 0.50533,0.0868 0.69854,0.222937 0.13038,0.0918 0.23396,0.20402 0.28933,0.30172 0.0532,0.094 0.0742,0.202377 0.0744,0.263357 1.6e-4,0.0886 -0.0674,0.305897 -0.21906,0.477997 -0.16638,0.1886 -0.4581,0.387937 -0.83185,0.524637 -0.769876,0.28154 -1.905325,0.29174 -3.323235,0.349417 -1.92587,0.0784 -3.91324,0.35368 -5.84665,1.014017 -1.93963,0.662474 -3.8099,1.715728 -5.33102,3.256719 -1.60534,1.626271 -2.71244,3.698939 -3.17134,5.941087 -0.36719,1.794131 -0.30506,3.652719 0.16018,5.41543 -0.98892,1.053154 -1.8716,2.217788 -2.60507,3.50763 -2.85289,5.01708 -2.97575,10.72301 -3.23746,15.81603 -0.0846,1.6449 -0.22568,3.07712 -0.72333,4.11836 -0.24436,0.51126 -0.57798,0.9327 -0.93311,1.19964 -0.3422,0.2572 -0.75637,0.39186 -1.06641,0.38364 -0.254941,-0.006 -0.57466,-0.109 -0.86285,-0.29758 -0.295311,-0.1932 -0.58837,-0.4897 -0.83185,-0.86162 -0.493471,-0.75384 -0.79684,-1.82932 -1.0199,-3.07632 -0.30314,-1.69458 -0.461641,-3.41602 -0.479471,-5.13758 a 1.9996418,2.00642 0 0 0 -2.0233,-1.98348 1.9996418,2.00642 0 0 0 -1.97678,2.026 c 0.0202,1.94574 0.20092,3.88902 0.54354,5.80426 0.254731,1.42408 0.62171,3.055 1.613051,4.56938 0.49893,0.7622 1.14977,1.4738 1.98712,2.02186 0.84445,0.55268 1.848129,0.91548 2.94504,0.94456 1.35079,0.0358 2.58265,-0.43768 3.5702,-1.17994 0.97462,-0.73252 1.66598,-1.68418 2.14005,-2.6761 0.93921,-1.96506 1.02634,-3.96284 1.1129,-5.64768 0.26426,-5.14214 0.50563,-10.14802 2.7146,-14.03269 0.73229,-1.2878 1.68602,-2.44906 2.7952,-3.482762 2.01453,-1.877408 4.54692,-3.327782 7.23754,-4.311176 3.990398,-1.458491 8.329545,-1.994628 12.553057,-1.548011 a 1.9996418,2.00642 0 0 0 2.19896,-1.783348 1.9996418,2.00642 0 0 0 -1.78149,-2.206408 c -4.835982,-0.511377 -9.771677,0.098 -14.340747,1.767808 -2.05537,0.751237 -4.07481,1.746371 -5.92415,3.003725 6.08e-4,-0.520957 0.0484,-1.040114 0.15198,-1.545911 0.29968,-1.464374 1.04409,-2.865445 2.09252,-3.927559 1.00094,-1.014034 2.32784,-1.783691 3.781,-2.280028 1.459399,-0.498417 3.063089,-0.736194 4.718259,-0.803534 1.229302,-0.05 2.814946,0.041 4.534306,-0.587897 0.87085,-0.318477 1.74511,-0.831154 2.45627,-1.638211 0.7258,-0.823694 1.22469,-1.902288 1.22244,-3.142662 -0.001,-0.811934 -0.22046,-1.572593 -0.59729,-2.237513 -0.37466,-0.66112 -0.8865,-1.1976 -1.46836,-1.6071 -0.88077,-0.61988 -1.91991,-0.94758 -2.99568,-0.94768 z" />
</svg>
