<?xml version="1.0" encoding="UTF-8" standalone="no"?>
<svg xmlns="http://www.w3.org/2000/svg" width="63.155869mm" height="63.155869mm" viewBox="0 0 63.155869 63.155868" version="1.1">
   <path
      transform="translate(-50.06492,-69.532648)"
      style="fill:#000000;stroke:none;"
      d="m 81.567428,74.922055 c -0.792901,4.58814 -1.375103,9.21284 -1.748417,13.85434 -1.338091,0.0632 -2.641608,0.2027 -3.905006,0.40646 l -5.123317,-9.97656 0.731608,11.00716 c -0.989555,0.31266 -1.937891,0.67306 -2.840661,1.07626 l -4.967283,-4.49784 1.433248,6.46888 c -3.199882,2.217044 -5.477973,5.258214 -5.767089,8.816295 -3.113453,0.3366 -6.220701,0.73648 -9.315592,1.2152 3.130999,0.4509 6.272547,0.827 9.419958,1.1426 0.363232,2.13682 1.447382,4.07004 3.001863,5.72856 l -6.005792,9.0973 9.561527,-6.23766 c 1.284274,0.7608 2.72771,1.45648 3.92464,1.9192 l -1.358848,6.13604 5.422987,-4.91048 -0.03204,-0.018 c 2.126933,0.44326 4.161907,0.6659 6.149425,0.79224 0.358524,3.46206 0.826106,6.913 1.418783,10.34252 0.02609,-0.1404 0.04878,-0.28144 0.0744,-0.42198 0.0265,0.1452 0.0495,0.29128 0.07646,0.43652 0.592973,-3.43126 1.061222,-6.88392 1.419815,-10.34774 2.138084,-0.0814 4.193659,-0.3508 6.131856,-0.78386 l 5.407488,4.89702 -1.352648,-6.1091 c 1.449089,-0.58132 2.762443,-1.22866 3.941173,-1.93164 l 9.538804,6.2231 -5.99443,-9.07966 c 1.55593,-1.66376 2.63942,-3.60344 2.99669,-5.74724 3.14532,-0.31546 6.28484,-0.69096 9.41376,-1.14156 -3.09624,-0.47892 -6.2049,-0.8785 -9.31972,-1.2152 -0.29939,-3.547441 -2.57421,-6.581191 -5.768128,-8.792435 l 1.438415,-6.49274 -4.987949,4.51756 c -0.896877,-0.40022 -1.838677,-0.75724 -2.821027,-1.06756 l 0.732643,-11.0362 -5.136753,10.00142 c -1.28586,-0.179 -2.670541,-0.33404 -3.891571,-0.40436 -0.37332,-4.64084 -0.955631,-9.26482 -1.748415,-13.85228 -0.02652,0.1428 -0.04834,0.28642 -0.0744,0.42926 -0.02694,-0.1476 -0.04908,-0.2962 -0.07646,-0.44376 z m 2.194822,18.49216 c 4.23655,0.30282 7.998735,1.453304 10.700274,3.056614 2.564582,1.522 4.063613,3.3127 4.53948,5.114761 -5.242772,-0.38038 -10.527478,-0.65644 -15.035152,-0.71336 -0.004,-2.487421 -0.07114,-4.974271 -0.204602,-7.458035 z m -4.239808,0.014 c -0.0064,0.1264 -0.0084,0.25304 -0.01439,0.37948 -0.120079,2.354184 -0.185061,4.710854 -0.189101,7.068175 -1.817597,0.0224 -3.634473,0.0784 -5.450886,0.1492 -3.198614,0.1198 -6.394575,0.30632 -9.58426,0.57442 0.475872,-1.802061 1.974895,-3.592741 4.539477,-5.114761 2.701317,-1.60317 6.463112,-2.753654 10.69924,-3.056614 z m 19.212954,11.448835 c -0.65864,1.53952 -2.073105,3.04409 -4.272872,4.34959 -2.745568,1.62946 -6.585723,2.79371 -10.906943,3.07322 0.154159,-2.36564 0.279027,-4.57283 0.348237,-6.77061 1.686531,-0.02 3.372622,-0.0646 5.058216,-0.1224 3.26099,-0.1064 6.520083,-0.27892 9.773362,-0.52984 z m -34.185068,0.014 c 5.178789,0.34665 10.375856,0.59035 14.831581,0.64183 0.08136,2.31558 0.191479,4.57296 0.350326,6.77786 -0.175781,-0.01 -0.345567,-0.0312 -0.519771,-0.0446 -4.107759,-0.3363 -7.75491,-1.4621 -10.389237,-3.02552 -2.199764,-1.3055 -3.614233,-2.81008 -4.272875,-4.34958 z"/>
</svg>
