<?xml version="1.0" encoding="UTF-8" standalone="no"?>
<svg xmlns="http://www.w3.org/2000/svg" width="63.155869mm" height="63.155869mm" viewBox="0 0 63.155869 63.155868" version="1.1">
   <path
      transform="translate(-50.06492,-69.532648)"
      style="fill:#000000;stroke:none;"
      d="m 80.900771,86.919555 c -6.842315,0.1996 -13.609103,2.79169 -18.86782,7.15213 -4.539567,3.76411 -8.677686,7.860485 -11.033004,12.511585 2.560802,-2.06044 5.232083,-4.18526 7.993929,-6.12672 0.850208,1.0249 1.760103,1.99984 2.729071,2.9125 l -0.501172,5.20704 3.742771,-2.53094 c 0.06458,0.0468 0.12718,0.0958 0.19216,0.142 0.963048,0.68524 1.969548,1.31452 3.010122,1.87772 l 0.19736,4.2604 2.271293,-3.08772 c 1.186068,0.48196 2.40977,0.86548 3.664245,1.12602 l 0.512528,3.91926 1.993322,-3.56676 c 0.952231,0.0772 1.909398,0.0964 2.865468,0.054 l 1.490072,4.54138 1.569659,-4.86488 c 0.0278,-0.004 0.05598,-0.008 0.08378,-0.012 1.011957,-0.1702 2.014878,-0.4025 3.001862,-0.68846 l 2.024316,4.20546 1.01268,-5.30452 c 0.609689,-0.26552 1.210241,-0.55096 1.794917,-0.86678 l 2.416987,2.82022 0.288288,-4.54036 c 1.003382,-0.7478 1.939954,-1.57762 2.831375,-2.45734 l 3.196127,2.8835 v -6.36728 c 0.267872,-0.311115 0.532063,-0.625355 0.797733,-0.938355 0.469,0.2957 0.94434,0.58454 1.43739,0.848155 1.69246,0.90478 3.64857,1.54656 5.59246,1.22242 1.37097,-0.22856 2.64915,-0.9428 3.56606,-1.990715 0.91694,-1.04792 1.45817,-2.41471 1.50662,-3.80834 0.0484,-1.39365 -0.29953,-2.87099 -1.23795,-3.89956 -0.95525,-1.04697 -2.22736,-1.82769 -3.41828,-2.23855 -0.006,-0.002 -0.014,-0.004 -0.02,-0.004 -0.0298,-0.006 -0.0602,-0.006 -0.09,0 -0.02,0.004 -0.0394,0.01 -0.0578,0.02 -0.012,0.006 -0.024,0.012 -0.0352,0.02 -0.012,0.006 -0.0218,0.012 -0.032,0.0206 -0.008,0.008 -0.016,0.014 -0.0228,0.0228 -0.014,0.014 -0.0252,0.0304 -0.0352,0.0478 -0.012,0.018 -0.021,0.0356 -0.028,0.055 v 0.004 c -0.001,0.004 -0.002,0.008 -0.004,0.012 -0.002,0.016 -0.004,0.0312 -0.004,0.0468 -0.002,0.016 -0.002,0.031 0,0.0468 0.001,0.008 0.002,0.016 0.004,0.0238 -4e-5,0.002 -4e-5,0.006 0,0.008 0.004,0.014 0.01,0.029 0.016,0.0426 0.004,0.01 0.01,0.018 0.016,0.028 0.006,0.012 0.014,0.024 0.0228,0.0354 0.008,0.01 0.016,0.018 0.0238,0.0268 0.83335,0.78683 1.49235,1.75546 1.91788,2.82128 0.37221,0.93231 0.55463,1.96108 0.29656,2.88448 -0.12878,0.46057 -0.36725,0.89183 -0.70267,1.21517 -0.33422,0.32218 -0.77236,0.53986 -1.22244,0.58374 -0.51887,0.0506 -1.06739,-0.1226 -1.58206,-0.37224 -1.54594,-0.75012 -2.78276,-2.07197 -4.17883,-3.22144 -2.500381,-2.05871 -5.455192,-3.47106 -8.478552,-4.55381 -4.009001,-1.43571 -8.256939,-2.33104 -12.529296,-2.2064 z m -4.337983,5.09608 h 10.39028 c 0,3.18346 -2.325363,5.7638 -5.194631,5.7638 -2.869266,0 -5.195649,-2.58034 -5.195649,-5.7638 z m -3.620831,1.55111 c 0.519268,5.15911 4.208607,9.161525 8.690424,9.161525 4.390832,-2e-5 8.015984,-3.843355 8.650111,-8.850495 2.801797,1.0327 5.491056,2.45877 8.009442,4.08102 0.300729,0.1938 0.603153,0.39156 0.904182,0.58894 -3.57714,3.040695 -7.841977,5.264155 -12.380484,6.445035 -4.258656,1.10804 -8.741235,1.30178 -13.094536,0.66356 -2.476555,-0.36306 -4.917058,-0.99366 -7.241682,-1.92438 -2.398089,-0.96014 -4.666963,-2.2425 -6.733254,-3.795875 4.212427,-2.88983 8.630394,-5.30594 13.195797,-6.36933 z" />
</svg>
