<?xml version="1.0" encoding="UTF-8" standalone="no"?>
<svg xmlns="http://www.w3.org/2000/svg" width="63.155869mm" height="63.155869mm" viewBox="0 0 63.155869 63.155868" version="1.1">
   <path
      transform="translate(-50.06492,-69.532648)"
      style="fill:#000000;stroke:none;"
      d="m 94.300856,80.518357 c -13.669896,0.012 -26.953246,0.0274 -31.213166,0.028 l -2.94503,4.008439 c 2.37039,-0.002 4.99859,1.2e-4 7.12387,0 l 0.0558,21.224264 -2.25682,3.47862 0.005,0.004 c -0.0533,0.0838 -0.107821,0.1642 -0.160181,0.25092 -0.446889,0.74164 -0.776689,1.4492 -0.974449,2.18257 -0.0989,0.36666 -0.18012,0.73132 -0.14778,1.24524 0.0253,0.4017 0.16364,1.07006 0.70991,1.60398 l 6.83247,7.15842 c 0.0231,-12.60869 -0.0249,-25.825395 -0.0548,-37.147255 h 12.512756 l 0.0796,31.724375 -2.793126,3.33658 c 3.223566,0.002 6.659676,-0.002 9.622486,0 -0.90137,-1.08044 -1.8028,-2.25622 -2.70426,-3.33658 l -0.0765,-31.72023 c 2.45039,10e-4 4.42671,-0.004 6.84281,-0.004 0.34512,0.0324 0.57018,0.093 0.64687,0.137799 0.046,0.0268 0.0985,0.0848 0.11676,0.121401 0.0174,0.035 0.0272,0.1024 0.0238,0.1286 -0.004,0.0306 -0.0349,0.1406 -0.12504,0.28616 -0.0933,0.1508 -0.25177,0.34516 -0.47327,0.5765 -0.44558,0.46536 -1.19505,1.06564 -1.81559,2.11206 -0.78848,1.3296 -0.98766,2.9081 -0.5549,4.3931 0.43276,1.485 1.45007,2.708 2.82825,3.4019 1.37819,0.6939 2.95996,0.78212 4.40516,0.24264 1.445184,-0.53948 2.587494,-1.64318 3.178564,-3.0722 0.42309,-1.02386 -0.0614,-2.19802 -1.08191,-2.62218 -1.01899,-0.4243 -2.187954,0.0596 -2.612304,1.08142 -0.1494,0.36118 -0.51308,0.71492 -0.87834,0.85126 -0.36525,0.1364 -0.87103,0.108 -1.21934,-0.0674 -0.34831,-0.1754 -0.67183,-0.56514 -0.78122,-0.94044 -0.10937,-0.37532 -0.0464,-0.8781 0.15294,-1.21414 0.17382,-0.29308 0.63108,-0.72554 1.26173,-1.38418 0.3166,-0.33066 0.67131,-0.72666 0.98786,-1.238 0.31975,-0.5165 0.59434,-1.14284 0.69132,-1.885 0.11138,-0.85238 -0.035,-1.69648 -0.41438,-2.45316 -0.37857,-0.7551 -0.95835,-1.3669 -1.67504,-1.7865 -0.67942,-0.39778 -1.34434,-0.55908 -1.95303,-0.63456 -0.38682,-0.0582 -0.81139,-0.0636 -1.16768,-0.0714 z"/>
</svg>
