<svg xmlns="http://www.w3.org/2000/svg" width="45.83989mm" height="4.0639997mm" viewBox="0 0 45.83989 4.0639997" style="fill:currentColor">
   <g transform="translate(-57.24676,-133.82012)">
      <path d="m 60.601676,134.35987 q 0,-0.1905 -0.07408,-0.20109 h -0.05292 q -0.179916,0 -0.179916,0.26459 v 0.0635 q 0.01058,0.0952 0.15875,0.0741 0.09525,-0.0212 0.116416,-0.0423 0.03175,-0.0317 0.03175,-0.15875 z m -2.751666,0 q 0,-0.1905 -0.127,-0.1905 -0.0635,0 -0.116417,0.0529 -0.07408,0.0741 -0.07408,0.15875 0,0.0847 0.08467,0.127 0.0635,0.0318 0.105834,0.0318 0.127,0 0.127,-0.17991 z m 2.44475,-0.43392 q 0.15875,-0.0529 0.232833,-0.0529 0.105833,0 0.22225,0.0952 0.127,0.10584 0.127,0.39159 0,0.17991 -0.03175,0.254 -0.02117,0.0635 -0.116417,0.14816 -0.105833,0.0847 -0.127,0.17992 -0.02117,0.0847 -0.02117,0.508 0,0.70908 -0.0635,1.54517 -0.0635,0.8255 -0.116417,0.85725 -0.0635,0.0423 -0.137583,0.0106 -0.0635,-0.0212 -0.0635,-0.40217 0,-0.42333 0.09525,-1.83091 l 0.05292,-0.71967 q -0.0635,-0.0741 -0.211666,-0.22225 -0.137584,-0.14817 -0.211667,-0.22225 H 58.23101 q -0.0635,0.0635 -0.1905,0.20108 -0.127,0.13759 -0.1905,0.20109 l -0.0635,1.12183 q -0.0635,1.23825 -0.105834,1.51342 -0.03175,0.26458 -0.127,0.26458 -0.0635,0 -0.08467,-0.0529 -0.02117,-0.0635 -0.02117,-0.28575 0,-0.30691 0.0635,-1.44991 l 0.0635,-1.13242 -0.15875,-0.14817 q -0.169333,-0.13758 -0.169333,-0.33866 0,-0.16934 0.127,-0.29634 0.137583,-0.13758 0.34925,-0.13758 0.179916,0 0.243416,0.0423 0.07408,0.0318 0.148167,0.15875 0.0635,0.10584 0.137583,0.10584 0.03175,0 0.15875,-0.0212 0.1905,-0.0318 0.9525,-0.0318 h 0.3175 q 0.402167,0 0.433917,-0.0952 0.04233,-0.10583 0.179917,-0.15875 z"/>
      <path d="m 64.382241,137.36553 q 0,-0.15875 -0.07408,-0.15875 -0.0635,0 -0.105834,0.10584 -0.02117,0.0423 -0.02117,0.10583 0,0.127 0.08467,0.127 0.116417,0 0.116417,-0.17992 z m 2.243667,-1.80975 q 0,-0.0741 -0.105834,-0.0847 -0.09525,-0.0106 -0.148166,0.0635 -0.01058,0.0212 -0.01058,0.0423 0,0.0952 0.137584,0.0952 0.127,0 0.127,-0.11642 z m -4.116917,-1.24883 q 0.03175,-0.14817 -0.09525,-0.14817 -0.15875,0 -0.15875,0.15875 0,0.0212 0.02117,0.0847 0.03175,0.0741 0.09525,0.0741 0.116416,0 0.137583,-0.16933 z m -0.338667,-0.35983 q 0.09525,-0.0635 0.22225,-0.0635 0.179917,0 0.28575,0.10583 0.116417,0.11642 0.116417,0.15875 0,0.0423 0.465667,0.0529 0.465666,0.0106 1.0795,0.0529 0.613833,0.0317 0.889,0.127 0.6985,0.22225 1.026583,0.59267 0.179917,0.21167 0.370417,0.26458 0.28575,0.0741 0.28575,0.32809 0,0.0847 -0.02117,0.13758 -0.08467,0.26458 -0.41275,0.26458 -0.179917,0 -0.28575,-0.0952 -0.105833,-0.0952 -0.105833,-0.24341 0,-0.11642 0.05292,-0.21167 0.01058,-0.0212 0.01058,-0.0635 0,-0.23283 -0.5715,-0.51858 -0.5715,-0.29634 -1.058334,-0.29634 h -0.137583 v 2.31775 l 0.137583,0.127 q 0.148167,0.13759 0.148167,0.34925 0,0.1905 -0.127,0.34925 -0.116417,0.14817 -0.296333,0.14817 -0.179917,0 -0.275167,-0.15875 -0.07408,-0.13758 -0.07408,-0.23283 0,-0.0952 0.105833,-0.29634 0.07408,-0.14816 0.08467,-0.37041 0.02117,-0.22225 0.02117,-1.03717 0,-1.17475 -0.04233,-1.21708 -0.02117,-0.0106 -0.656167,-0.0317 -0.179916,-0.0106 -0.402166,-0.0106 -0.22225,0 -0.328084,0.13759 -0.127,0.13758 -0.243416,0.13758 h -0.07408 q -0.201083,-0.0106 -0.296333,-0.20108 -0.05292,-0.0952 -0.05292,-0.24342 0,-0.254 0.15875,-0.35983 z"/>
      <path d="m 70.100052,135.78862 q 0.04233,-0.0423 0,-0.0741 -0.04233,-0.0423 -0.04233,0.0318 0,0.0317 0.01058,0.0529 0.02117,0.0106 0.03175,-0.0106 z m -1.576917,-0.0635 q 0,-0.0847 -0.05292,-0.10584 -0.05292,-0.0212 -0.105834,0.0317 -0.148166,0.14817 0.04233,0.14817 0.116416,0 0.116416,-0.0741 z m 0.846667,-1.397 q 0,-0.0953 -0.05292,-0.13759 -0.04233,-0.0423 -0.09525,0 -0.04233,0.0423 -0.04233,0.16934 0,0.11641 0.07408,0.11641 0.116417,0 0.116417,-0.14816 z m -0.465667,0.11641 q 0,-0.29633 0.15875,-0.45508 0.15875,-0.15875 0.211667,-0.15875 0.15875,0 0.275167,0.16933 0.116416,0.15875 0.116416,0.35984 0,0.14816 -0.07408,0.254 -0.07408,0.10583 -0.275167,0.16933 -0.1905,0.0635 -0.381,0.40217 -0.148166,0.29633 -0.148166,0.37041 0,0.0212 0.01058,0.0317 0.03175,0.0529 0.254,0.0529 0.03175,0 0.116417,0 0.08467,-0.0106 0.137583,-0.0106 0.328083,-0.0212 0.41275,-0.0423 0.09525,-0.0212 0.169333,-0.127 0.116417,-0.14816 0.232834,-0.14816 0.09525,0 0.179916,0.0847 0.08467,0.0847 0.08467,0.30692 0,0.15875 -0.05292,0.26458 -0.0635,0.10584 -0.275166,0.10584 -0.15875,0 -0.22225,-0.0741 -0.07408,-0.0847 -0.5715,-0.0847 -0.508,0 -0.582084,0.0847 -0.0635,0.0741 -0.1905,0.0741 -0.1905,0 -0.296333,-0.13759 -0.105833,-0.13758 -0.105833,-0.26458 0,-0.254 0.338666,-0.33867 0.179917,-0.0529 0.328084,-0.32808 0.148166,-0.27517 0.148166,-0.56092 z m 0.328084,3.1115 q 0.05292,0 0.05292,-0.0423 0,-0.0423 -0.05292,-0.11642 -0.05292,-0.0741 -0.05292,0.0318 0,0.127 0.05292,0.127 z m -0.264584,-0.41275 q 0.0635,-0.13758 0.179917,-0.13758 0.105833,0 0.243417,0.13758 0.116416,0.13759 0.116416,0.37042 0,0.26458 -0.127,0.32808 -0.07408,0.0423 -0.148166,0.0423 -0.137584,0 -0.232834,-0.127 -0.09525,-0.13759 -0.09525,-0.32809 0,-0.13758 0.0635,-0.28575 z"/>
      <path d="m 73.911375,137.36553 q 0,-0.15875 -0.07408,-0.15875 -0.0635,0 -0.105834,0.10584 -0.02117,0.0423 -0.02117,0.10583 0,0.127 0.08467,0.127 0.116417,0 0.116417,-0.17992 z m 2.243666,-1.80975 q 0,-0.0741 -0.105833,-0.0847 -0.09525,-0.0106 -0.148167,0.0635 -0.01058,0.0212 -0.01058,0.0423 0,0.0952 0.137583,0.0952 0.127,0 0.127,-0.11642 z m -4.116916,-1.24883 q 0.03175,-0.14817 -0.09525,-0.14817 -0.15875,0 -0.15875,0.15875 0,0.0212 0.02117,0.0847 0.03175,0.0741 0.09525,0.0741 0.116416,0 0.137583,-0.16933 z m -0.338667,-0.35983 q 0.09525,-0.0635 0.22225,-0.0635 0.179917,0 0.28575,0.10583 0.116417,0.11642 0.116417,0.15875 0,0.0423 0.465667,0.0529 0.465666,0.0106 1.0795,0.0529 0.613833,0.0317 0.889,0.127 0.6985,0.22225 1.026583,0.59267 0.179916,0.21167 0.370416,0.26458 0.28575,0.0741 0.28575,0.32809 0,0.0847 -0.02117,0.13758 -0.08467,0.26458 -0.41275,0.26458 -0.179917,0 -0.28575,-0.0952 -0.105833,-0.0952 -0.105833,-0.24341 0,-0.11642 0.05292,-0.21167 0.01058,-0.0212 0.01058,-0.0635 0,-0.23283 -0.5715,-0.51858 -0.5715,-0.29634 -1.058334,-0.29634 h -0.137583 v 2.31775 l 0.137583,0.127 q 0.148167,0.13759 0.148167,0.34925 0,0.1905 -0.127,0.34925 -0.116417,0.14817 -0.296333,0.14817 -0.179917,0 -0.275167,-0.15875 -0.07408,-0.13758 -0.07408,-0.23283 0,-0.0952 0.105833,-0.29634 0.07408,-0.14816 0.08467,-0.37041 0.02117,-0.22225 0.02117,-1.03717 0,-1.17475 -0.04233,-1.21708 -0.02117,-0.0106 -0.656167,-0.0317 -0.179916,-0.0106 -0.402166,-0.0106 -0.22225,0 -0.328084,0.13759 -0.127,0.13758 -0.243416,0.13758 h -0.07408 q -0.201083,-0.0106 -0.296333,-0.20108 -0.05292,-0.0952 -0.05292,-0.24342 0,-0.254 0.15875,-0.35983 z"/>
      <path d="m 81.79877,134.58212 q -0.15875,-0.15875 -0.338667,-0.15875 h -0.08467 q -0.137584,0.0106 -1.7145,0.0317 -1.386417,0.0212 -1.481667,0.0635 -0.04233,0.0212 -0.07408,0.0529 -0.09525,0.11642 -0.179917,0.11642 -0.0635,0 -0.0635,0.127 0,0.0317 0.02117,0.26458 0.137583,1.397 0.60325,1.88384 0.08467,0.10583 0.433916,0.29633 0.3175,0.15875 0.941917,0.1905 0.169333,0.0106 0.391583,0.0106 0.296334,0 0.550334,-0.10583 0.518583,-0.20108 0.772583,-0.6985 0.264583,-0.49742 0.34925,-1.48167 0.02117,-0.254 0.02117,-0.28575 0,-0.14816 -0.148167,-0.30691 z m 0.201083,-0.14817 q 0.04233,0.0212 0.05292,0.0212 0.105833,0 0.105833,-0.16934 0,-0.127 -0.105833,-0.13758 -0.09525,-0.0318 -0.09525,0.127 0,0.11642 0.04233,0.15875 z m -4.021666,-0.127 q 0,-0.0423 -0.04233,-0.0847 -0.03175,-0.0529 -0.07408,-0.0529 -0.05292,0 -0.05292,0.10583 0,0.13758 0.08467,0.13758 0.08467,0 0.08467,-0.10583 z m -0.328084,-0.381 q 0.08467,-0.0529 0.179917,-0.0529 0.148167,0 0.275167,0.13759 0.137583,0.15875 0.137583,0.1905 0,0.0212 0.73025,0.0212 2.042583,0 2.487083,-0.0635 0.211667,-0.0423 0.3175,-0.14816 0.105834,-0.0952 0.306917,-0.0952 0.137583,0 0.22225,0.0635 0.116417,0.0952 0.116417,0.29633 0,0.13758 -0.07408,0.24342 -0.09525,0.11641 -0.137583,0.68791 -0.07408,1.04775 -0.391583,1.61925 -0.306917,0.56092 -0.963084,0.80434 l -0.4445,0.16933 -0.60325,-0.0635 q -0.931333,-0.0952 -1.439333,-0.51858 -0.592667,-0.49742 -0.73025,-2.11667 -0.0635,-0.6985 -0.0635,-0.91017 0,-0.22225 0.07408,-0.26458 z"/>
      <path d="m 83.963062,134.23287 q 0.02117,-0.0952 -0.0635,-0.0952 -0.08467,0 -0.08467,0.11641 0,0.0952 0.0635,0.0952 0.0635,-0.0106 0.08467,-0.11641 z m 4.360333,0.13758 q 0.08467,-0.0635 0.0635,-0.14817 -0.02117,-0.0847 -0.09525,-0.11641 -0.07408,-0.0423 -0.127,0.0106 -0.04233,0.0423 -0.04233,0.14817 0.01058,0.0952 0.05292,0.11641 0.07408,0.0423 0.148167,-0.0106 z m -4.572,-0.46567 q 0.105833,-0.0212 0.137583,-0.0212 0.15875,0 0.254,0.0952 0.09525,0.0952 0.09525,0.23283 0,0.15875 -0.137583,0.29633 -0.137583,0.13759 -0.137583,0.37042 0,0.0318 0,0.127 0.01058,0.0847 0.01058,0.14817 0.03175,1.49225 0.719667,2.00025 0.402166,0.30691 1.058333,0.30691 0.05292,0 0.15875,0 0.116417,-0.0106 0.179917,-0.0106 0.60325,-0.0212 0.889,-0.10583 0.28575,-0.0847 0.53975,-0.29634 0.391583,-0.33866 0.592666,-0.93133 0.127,-0.37042 0.127,-0.93133 v -0.20109 q -0.01058,-0.22225 -0.04233,-0.28575 -0.02117,-0.0741 -0.105833,-0.11641 -0.169334,-0.0741 -0.169334,-0.30692 0,-0.3175 0.243417,-0.381 0.03175,-0.0106 0.105833,-0.0106 0.211667,0 0.296334,0.11641 0.04233,0.0529 0.04233,0.21167 0,0.20108 -0.05292,0.23283 -0.05292,0.0318 -0.05292,0.61384 0,1.40758 -0.804334,2.13783 -0.3175,0.28575 -0.6985,0.39158 -0.370416,0.10584 -1.058333,0.11642 h -0.243417 q -0.433916,0 -0.772583,-0.14817 -0.60325,-0.26458 -0.846667,-0.75141 -0.3175,-0.635 -0.3175,-1.64042 0,-0.53975 -0.116416,-0.67733 -0.105834,-0.127 -0.105834,-0.21167 0,-0.0953 0.07408,-0.22225 0.07408,-0.127 0.137583,-0.14817 z"/>
      <path d="m 93.604312,137.47137 q 0,-0.0847 -0.0635,-0.11642 -0.05292,-0.0317 -0.09525,0.0317 -0.04233,0.0529 0,0.14817 0.04233,0.0847 0.09525,0.0635 0.0635,-0.0212 0.0635,-0.127 z m -3.291417,-0.10584 q -0.03175,-0.0741 -0.148167,-0.0741 -0.148166,0 -0.179916,0.10583 -0.01058,0.0318 -0.01058,0.0847 0,0.127 0.179917,0.127 0.179917,0 0.179917,-0.15875 0,-0.0212 -0.02117,-0.0847 z m 1.7145,-2.04258 q -0.211667,-0.39158 -0.264583,-0.39158 -0.04233,0 -0.5715,1.016 -0.518584,1.00541 -0.518584,1.06891 0,0.0318 0.338667,0.0318 0.243417,0 0.635,-0.0106 0.402167,-0.0212 0.6985,-0.0423 l 0.306917,-0.0106 q 0.34925,-0.0212 0.34925,-0.0529 0,-0.0953 -0.359834,-0.61384 -0.497416,-0.762 -0.613833,-0.99483 z m -0.179917,-1.13242 q -0.03175,-0.0741 -0.15875,-0.0741 -0.137583,0 -0.169333,0.0741 -0.04233,0.0952 0,0.16934 0.04233,0.0741 0.127,0.0741 0.08467,0 0.148167,-0.0529 0.0635,-0.0635 0.0635,-0.13758 0,-0.0317 -0.01058,-0.0529 z m -0.391583,-0.30691 q 0.09525,-0.0423 0.232833,-0.0423 0.179917,0 0.28575,0.0741 0.15875,0.11641 0.15875,0.3175 0,0.127 -0.0635,0.22225 -0.08467,0.11641 -0.08467,0.20108 0,0.0635 0.359833,0.67733 0.370417,0.60325 0.719667,1.10067 0.381,0.53975 0.508,0.5715 0.137583,0.0423 0.254,0.20108 0.116416,0.15875 0.116416,0.30692 0,0.0106 -0.01058,0.0317 0,0.0212 0,0.0318 -0.0635,0.30692 -0.34925,0.30692 -0.137583,0 -0.243417,-0.0529 -0.201083,-0.0952 -0.201083,-0.42333 0,-0.0741 -0.0635,-0.0952 -0.05292,-0.0212 -0.306917,-0.0212 h -0.296333 q -1.143,0.0318 -1.30175,0.0423 l -0.624417,0.0318 -0.0635,0.1905 q -0.05292,0.17992 -0.148166,0.23284 -0.04233,0.0317 -0.148167,0.0317 -0.3175,0 -0.402167,-0.15875 -0.03175,-0.0635 -0.03175,-0.14817 0,-0.15875 0.127,-0.29633 0.127,-0.14817 0.28575,-0.14817 0.116417,0 0.232834,-0.17992 0.116416,-0.17991 0.53975,-0.99483 0.550333,-1.04775 0.550333,-1.16417 0,-0.0317 -0.04233,-0.0741 -0.127,-0.127 -0.169334,-0.21167 -0.03175,-0.0635 -0.03175,-0.14816 0,-0.33867 0.211667,-0.41275 z"/>
      <path d="m 99.392403,137.33378 q 0,-0.11641 -0.07408,-0.13758 -0.0635,-0.0212 -0.105834,0.0847 -0.07408,0.1905 0.105834,0.1905 0.07408,0 0.07408,-0.13759 z m -3.799417,-0.15875 q -0.03175,-0.0847 -0.105833,-0.0847 -0.116417,0 -0.179917,0.16933 -0.07408,0.15875 0.01058,0.24342 0.08467,0.0847 0.201083,0.0212 0.105833,-0.0635 0.105833,-0.1905 0,-0.0847 -0.03175,-0.15875 z m 3.577167,-2.80458 q 0.03175,0.0317 0.07408,0.0317 0.07408,0 0.07408,-0.13758 0,-0.127 -0.08467,-0.127 -0.0635,0 -0.09525,0.0952 -0.02117,0.0847 0.03175,0.13758 z m -3.608917,-0.13758 q -0.01058,-0.13759 -0.105833,-0.13759 -0.09525,0 -0.09525,0.16934 0,0.0952 0.105833,0.0952 0.127,0 0.09525,-0.127 z m -0.254,-0.3175 q 0.1905,-0.0952 0.211667,-0.0952 0.02117,0 0.127,0.0529 0.201083,0.10584 0.201083,0.35984 0,0.11641 0.09525,0.22225 0.09525,0.0952 0.465667,0.381 0.137583,0.10583 0.28575,0.22225 0.15875,0.11641 0.28575,0.21166 0.137583,0.0953 0.148167,0.10584 l 0.169333,0.11641 0.772583,-0.48683 q 0.560917,-0.35983 0.66675,-0.45508 0.116417,-0.0952 0.116417,-0.23284 0,-0.33866 0.275167,-0.4445 0.15875,-0.0529 0.201083,-0.0529 0.0635,0 0.169333,0.10583 0.105833,0.10583 0.105833,0.32808 0,0.21167 -0.08467,0.30692 -0.09525,0.127 -0.28575,0.127 -0.211667,0 -0.92075,0.4445 -0.719667,0.46567 -0.719667,0.51858 0,0.0847 0.370417,0.35984 1.153583,0.91016 1.312333,0.91016 0.22225,0 0.328083,0.20109 0.05292,0.0952 0.05292,0.23283 0,0.17992 -0.127,0.30692 -0.105833,0.11641 -0.232833,0.11641 -0.137583,0 -0.243417,-0.13758 -0.09525,-0.13758 -0.105833,-0.30692 0,-0.16933 -0.105833,-0.27516 -0.09525,-0.10584 -0.687917,-0.55034 -0.814917,-0.61383 -0.867833,-0.61383 -0.07408,0 -0.497417,0.3175 -0.423333,0.30692 -0.709083,0.5715 -0.15875,0.14817 -0.201084,0.22225 -0.03175,0.0741 -0.03175,0.24342 0,0.55033 -0.433916,0.55033 -0.370417,0 -0.370417,-0.34925 0,-0.0847 0.01058,-0.127 0.03175,-0.17992 0.169334,-0.33867 0.148166,-0.15875 0.28575,-0.15875 h 0.03175 0.02117 q 0.137584,0 0.402167,-0.254 0.359833,-0.33866 0.66675,-0.55033 0.359833,-0.26458 0.359833,-0.32808 0,-0.0529 -0.232833,-0.23284 -0.423333,-0.3175 -0.645583,-0.49741 -0.391584,-0.32809 -0.60325,-0.32809 -0.41275,0 -0.41275,-0.381 0,-0.14816 0.04233,-0.21166 0.04233,-0.0635 0.169333,-0.127 z"/>
      <path d="m 102.8009,135.78862 q 0.0423,-0.0423 0,-0.0741 -0.0423,-0.0423 -0.0423,0.0318 0,0.0317 0.0106,0.0529 0.0212,0.0106 0.0318,-0.0106 z m -1.57692,-0.0635 q 0,-0.0847 -0.0529,-0.10584 -0.0529,-0.0212 -0.10583,0.0317 -0.14817,0.14817 0.0423,0.14817 0.11642,0 0.11642,-0.0741 z m 0.84667,-1.397 q 0,-0.0953 -0.0529,-0.13759 -0.0423,-0.0423 -0.0953,0 -0.0423,0.0423 -0.0423,0.16934 0,0.11641 0.0741,0.11641 0.11642,0 0.11642,-0.14816 z m -0.46567,0.11641 q 0,-0.29633 0.15875,-0.45508 0.15875,-0.15875 0.21167,-0.15875 0.15875,0 0.27516,0.16933 0.11642,0.15875 0.11642,0.35984 0,0.14816 -0.0741,0.254 -0.0741,0.10583 -0.27517,0.16933 -0.1905,0.0635 -0.381,0.40217 -0.14817,0.29633 -0.14817,0.37041 0,0.0212 0.0106,0.0317 0.0318,0.0529 0.254,0.0529 0.0317,0 0.11641,0 0.0847,-0.0106 0.13759,-0.0106 0.32808,-0.0212 0.41275,-0.0423 0.0953,-0.0212 0.16933,-0.127 0.11642,-0.14816 0.23283,-0.14816 0.0953,0 0.17992,0.0847 0.0847,0.0847 0.0847,0.30692 0,0.15875 -0.0529,0.26458 -0.0635,0.10584 -0.27517,0.10584 -0.15875,0 -0.22225,-0.0741 -0.0741,-0.0847 -0.5715,-0.0847 -0.508,0 -0.58208,0.0847 -0.0635,0.0741 -0.1905,0.0741 -0.1905,0 -0.29633,-0.13759 -0.10584,-0.13758 -0.10584,-0.26458 0,-0.254 0.33867,-0.33867 0.17992,-0.0529 0.32808,-0.32808 0.14817,-0.27517 0.14817,-0.56092 z m 0.32808,3.1115 q 0.0529,0 0.0529,-0.0423 0,-0.0423 -0.0529,-0.11642 -0.0529,-0.0741 -0.0529,0.0318 0,0.127 0.0529,0.127 z m -0.26458,-0.41275 q 0.0635,-0.13758 0.17992,-0.13758 0.10583,0 0.24341,0.13758 0.11642,0.13759 0.11642,0.37042 0,0.26458 -0.127,0.32808 -0.0741,0.0423 -0.14817,0.0423 -0.13758,0 -0.23283,-0.127 -0.0953,-0.13759 -0.0953,-0.32809 0,-0.13758 0.0635,-0.28575 z"/>
   </g>
</svg>
