<svg xmlns="http://www.w3.org/2000/svg" width="29.936163mm" height="7.3686285mm" viewBox="0 0 29.936163 7.3686285">
  <g transform="translate(-58.735432,-148.51458)">
      <path d="m 63.660196,149.67861 q -0.248047,1.00769 -0.573609,1.55546 -0.149862,0.25838 -0.294556,0.25838 -0.05684,0 -0.139526,-0.0258 -0.392741,-0.11885 -0.392741,-0.28422 0,-0.0827 0.108521,-0.10852 0.454752,-0.68213 0.537435,-1.63814 -0.284221,-0.25321 -0.537435,-0.25321 -0.537435,-0.005 -1.27124,0.94567 -0.676962,0.88884 -1.173055,2.1084 -0.516765,1.27124 -0.496094,2.11874 0.0052,0.49092 0.294555,0.7338 0.211874,0.1757 0.480591,0.1757 0.15503,0 0.356568,-0.062 0.496093,-0.15503 1.147216,-0.59945 0.620118,-0.42374 1.033529,-0.86299 0.129191,-0.13953 0.155029,-0.35657 0.0155,-0.11369 0.103353,-0.11369 0.07235,0 0.108521,0.093 0.186035,0.46509 0.186035,0.64595 0,0.17054 -0.139527,0.3204 -0.09302,0.093 -0.439249,0.35657 -1.095541,0.82165 -1.881022,1.02319 -0.242879,0.062 -0.444418,0.062 -0.423746,0 -0.645955,-0.28422 -1.00769,-0.37724 -1.00769,-1.15238 0,-1.25057 0.65629,-2.68718 0.563273,-1.2454 1.390096,-2.19108 0.795817,-0.90434 1.291911,-0.94051 0.180868,-0.0155 0.418579,0.14986 0.03101,0.0207 0.480591,0.38757 0.02584,-0.2067 0.139526,-0.2067 0.124024,0 0.418579,0.22738 0.186036,0.14469 0.186036,0.27905 0,0.0879 -0.05684,0.32556 z"/>
      <path d="m 67.096678,152.36578 q -0.01033,0.45992 -0.222209,1.21957 -0.335896,1.19889 -0.950846,1.86035 -0.325561,0.3514 -0.72347,0.3514 -0.155029,0 -0.397908,-0.0672 -0.485759,-0.031 -0.79065,-0.30489 -0.330729,-0.29972 -0.310058,-0.76998 0.02067,-0.54777 0.377238,-1.52962 0.39274,-1.0697 0.816487,-1.53996 0.201538,-0.22738 0.330729,-0.22738 0.1757,0 0.568441,0.36174 0.108521,-0.0517 0.444417,-0.1912 0.170533,-0.0568 0.258383,-0.0568 0.201538,0 0.449585,0.37724 0.160196,0.23254 0.149861,0.51676 z m -0.594279,0.14987 q 0.03617,-0.34624 0.03617,-0.43925 0,-0.21705 -0.134359,-0.21705 -0.05168,0 -0.134359,0.0207 l -0.800984,0.32556 q -0.139527,0.0568 -0.160197,0.0568 -0.04134,0 -0.08268,-0.0982 -0.299723,0.3669 -0.558105,1.05936 -0.201538,0.54261 -0.279053,0.97152 -0.05684,0.28939 -0.05684,0.5271 0,0.79582 0.490926,0.77515 0.196371,-0.005 0.423747,-0.15503 0.434082,-0.29456 0.81132,-1.17823 0.361735,-0.83199 0.444417,-1.64847 z"/>
      <path d="m 73.726764,153.98842 q -0.335897,0.50127 -1.002523,1.76734 -0.06201,0.11369 -0.07751,0.11885 -0.04651,0.0258 -0.217041,-0.0258 -0.356568,-0.10853 -0.356568,-0.20671 0,-0.0568 0.04651,-0.16537 0.387573,-0.90433 0.661458,-1.92753 0.279053,-1.02836 0.268718,-1.57613 0,-0.18086 -0.129191,-0.18086 -0.08785,0 -0.206706,0.0982 -0.43925,0.35657 -1.136881,1.38493 -0.837159,1.24023 -1.183391,2.32027 -0.03617,0.12402 -0.06201,0.13953 -0.03101,0.0155 -0.149862,-0.0258 -0.1757,-0.062 -0.335897,-0.1757 -0.07751,-0.0568 -0.07751,-0.11886 0,-0.0103 0.07751,-0.20153 0.676961,-1.69499 0.676961,-3.28146 0,-0.1602 -0.09302,-0.1602 -0.06718,0 -0.170532,0.0879 -0.552938,0.46509 -1.229899,1.60197 -0.651123,1.08521 -0.971517,2.03606 -0.08268,0.24287 -0.170533,0.24287 -0.103352,0 -0.423746,-0.23254 -0.08268,-0.0465 -0.08268,-0.0982 0,-0.0568 0.113689,-0.1757 0.211873,-0.44959 0.48059,-1.5503 0.304891,-1.25573 0.26355,-1.82418 -0.07751,0.0775 -0.26355,0.25839 -0.186035,0.1757 -0.279052,0.26871 -0.06718,0.0672 -0.118856,0.0672 -0.07752,0 -0.07752,-0.10335 0,-0.0827 0.05684,-0.14469 0.289388,-0.29973 0.573609,-0.70797 0.103353,-0.14469 0.180867,-0.14469 0.05684,0 0.222209,0.16536 0.129191,0.0465 0.258382,0.093 0.108521,0.0517 0.108521,0.1912 0,0.0413 -0.01034,0.0878 -0.129191,0.99736 -0.397908,1.86035 0.914673,-1.64331 1.700154,-2.33577 0.108521,-0.0982 0.211874,-0.0982 0.10852,0 0.330729,0.13953 0.211873,0.093 0.279053,0.16536 0.07751,0.093 0.07751,0.28939 0,1.0542 -0.242879,1.87586 1.00769,-1.59681 1.834513,-2.37195 0.108521,-0.10336 0.227377,-0.10336 0.155029,0 0.382405,0.20671 0.403076,0.062 0.382406,0.49093 -0.06201,1.2454 -0.537435,2.40812 0.258382,-0.30489 0.403076,-0.5271 0.06718,-0.10852 0.155029,-0.10852 0.07752,0 0.07752,0.0827 0,0.0517 -0.04651,0.12402 z"/>
      <path d="m 80.527382,153.98842 q -0.335896,0.50127 -1.002522,1.76734 -0.06201,0.11369 -0.07752,0.11885 -0.04651,0.0258 -0.217041,-0.0258 -0.356567,-0.10853 -0.356567,-0.20671 0,-0.0568 0.04651,-0.16537 0.387574,-0.90433 0.661459,-1.92753 0.279052,-1.02836 0.268717,-1.57613 0,-0.18086 -0.129191,-0.18086 -0.08785,0 -0.206706,0.0982 -0.439249,0.35657 -1.136881,1.38493 -0.837158,1.24023 -1.18339,2.32027 -0.03617,0.12402 -0.06201,0.13953 -0.03101,0.0155 -0.149862,-0.0258 -0.1757,-0.062 -0.335897,-0.1757 -0.07751,-0.0568 -0.07751,-0.11886 0,-0.0103 0.07751,-0.20153 0.676962,-1.69499 0.676962,-3.28146 0,-0.1602 -0.09302,-0.1602 -0.06718,0 -0.170532,0.0879 -0.552938,0.46509 -1.229899,1.60197 -0.651123,1.08521 -0.971517,2.03606 -0.08268,0.24287 -0.170532,0.24287 -0.103353,0 -0.423747,-0.23254 -0.08268,-0.0465 -0.08268,-0.0982 0,-0.0568 0.113688,-0.1757 0.211873,-0.44959 0.480591,-1.5503 0.304891,-1.25573 0.263549,-1.82418 -0.07751,0.0775 -0.263549,0.25839 -0.186036,0.1757 -0.279053,0.26871 -0.06718,0.0672 -0.118856,0.0672 -0.07752,0 -0.07752,-0.10335 0,-0.0827 0.05685,-0.14469 0.289388,-0.29973 0.573608,-0.70797 0.103353,-0.14469 0.180867,-0.14469 0.05684,0 0.222209,0.16536 0.129191,0.0465 0.258382,0.093 0.108521,0.0517 0.108521,0.1912 0,0.0413 -0.01034,0.0878 -0.129191,0.99736 -0.397908,1.86035 0.914673,-1.64331 1.700154,-2.33577 0.108521,-0.0982 0.211874,-0.0982 0.10852,0 0.330729,0.13953 0.211873,0.093 0.279053,0.16536 0.07751,0.093 0.07751,0.28939 0,1.0542 -0.242879,1.87586 1.007691,-1.59681 1.834513,-2.37195 0.108521,-0.10336 0.227377,-0.10336 0.155029,0 0.382405,0.20671 0.403076,0.062 0.382406,0.49093 -0.06201,1.2454 -0.537435,2.40812 0.258382,-0.30489 0.403076,-0.5271 0.06718,-0.10852 0.155029,-0.10852 0.07752,0 0.07752,0.0827 0,0.0517 -0.04651,0.12402 z"/>
      <path d="m 84.377277,152.36578 q -0.01034,0.45992 -0.222208,1.21957 -0.335897,1.19889 -0.950847,1.86035 -0.325561,0.3514 -0.72347,0.3514 -0.155029,0 -0.397908,-0.0672 -0.485759,-0.031 -0.79065,-0.30489 -0.330729,-0.29972 -0.310058,-0.76998 0.02067,-0.54777 0.377238,-1.52962 0.392741,-1.0697 0.816487,-1.53996 0.201538,-0.22738 0.330729,-0.22738 0.1757,0 0.568441,0.36174 0.108521,-0.0517 0.444418,-0.1912 0.170532,-0.0568 0.258382,-0.0568 0.201538,0 0.449585,0.37724 0.160197,0.23254 0.149861,0.51676 z m -0.594279,0.14987 q 0.03617,-0.34624 0.03617,-0.43925 0,-0.21705 -0.134359,-0.21705 -0.05168,0 -0.134359,0.0207 l -0.800984,0.32556 q -0.139527,0.0568 -0.160197,0.0568 -0.04134,0 -0.08268,-0.0982 -0.299723,0.3669 -0.558105,1.05936 -0.201538,0.54261 -0.279053,0.97152 -0.05684,0.28939 -0.05684,0.5271 0,0.79582 0.490926,0.77515 0.196371,-0.005 0.423747,-0.15503 0.434082,-0.29456 0.81132,-1.17823 0.361735,-0.83199 0.444417,-1.64847 z"/>
      <path d="m 88.661253,153.79722 q -0.310059,0.47026 -0.806152,1.36426 -0.09302,0.23254 -0.180868,0.46509 -0.07235,0.16019 -0.191203,0.16019 -0.09302,0 -0.273885,-0.0775 -0.201538,-0.0827 -0.201538,-0.16537 0,-0.0362 0.06718,-0.16019 0.335897,-0.68213 0.599447,-1.70016 0.28422,-1.0697 0.242879,-1.63297 -0.01033,-0.22738 -0.103353,-0.22738 -0.06718,0 -0.201538,0.12919 -1.302246,1.27124 -2.253092,3.40031 -0.118856,0.26355 -0.279053,0.26355 -0.113688,0 -0.377238,-0.12919 -0.103353,-0.0465 -0.10852,-0.0879 0,-0.0207 0.05684,-0.14469 0.299723,-0.65629 0.594279,-1.66398 0.315226,-1.09038 0.356567,-1.70016 0.01033,-0.18603 -0.01033,-0.18603 -0.0052,0 -0.144694,0.13952 -0.139527,0.13953 -0.387573,0.36174 -0.04651,0.0465 -0.103353,0.0465 -0.07235,0 -0.07235,-0.0569 0,-0.0413 0.05168,-0.093 0.222209,-0.28422 0.583944,-0.70796 0.07751,-0.0879 0.160197,-0.0879 0.124023,0 0.217041,0.18086 0.418579,0.12403 0.392741,0.38241 -0.05684,0.56844 -0.583944,2.05155 0.346232,-0.66662 1.00769,-1.48828 0.661459,-0.82682 0.981853,-0.97668 0.160197,-0.0724 0.227376,-0.0724 0.06718,0 0.217041,0.11369 0.428914,0.14986 0.423747,0.49609 0,0.36174 -0.1757,1.16272 -0.139527,0.66146 -0.258382,1.02836 0.149861,-0.1912 0.382405,-0.49609 0.04134,-0.0517 0.08268,-0.0517 0.07752,0 0.07752,0.0982 0,0.031 -0.01033,0.062 z"/>
  </g>
</svg>
