<svg xmlns="http://www.w3.org/2000/svg" width="35.837605mm" height="11.017415mm" viewBox="0 0 35.837604 11.017415" fill="currentcolor">
  <g transform="translate(-80.130951,-165.48054)">
      <path d="m 81.226491,167.98167 h 0.124024 l 0.248047,0.12403 h 1.663981 l 0.74414,0.0207 0.320394,0.26355 v 0.0465 q -0.08268,0.16536 -0.1757,0.16536 h -1.064534 q -0.103353,0.0362 -0.103353,0.1757 v 1.03353 q 0,0.55811 0.165364,1.04386 v 0.74414 q -0.165364,0.32557 -0.165364,0.48576 v 1.5813 l -0.04134,0.0775 -0.124024,0.91984 v 0.38757 q -0.05168,0.12402 -0.06201,0.12402 v -0.0207 q -0.08268,0 -0.124024,-0.33589 -0.124023,-0.25322 -0.124023,-0.41858 v -0.18087 l -0.04134,-0.062 v -1.70532 l 0.04134,-0.062 v -1.60197 l -0.04134,-0.062 v -1.02836 q 0.165364,-0.39791 0.165364,-0.71313 v -0.0465 l 0.04134,-0.062 v -0.13953 l -0.10852,-0.13436 h -0.253215 q -0.527099,0.031 -0.527099,0.21704 v 0.18604 q 0.08268,0.0879 0.08268,0.43408 v 0.30489 l 0.04134,0.062 v 0.0517 l -0.04134,0.062 v 0.0775 l -0.04134,0.49609 q 0.04651,0.30489 0.08268,0.3514 v 0.71313 q -0.165364,0.37207 -0.165364,1.33326 l -0.04134,0.0413 v 0.45475 q 0,0.1757 -0.113688,0.1757 h -0.103353 q -0.03617,0 -0.05168,-0.23771 l 0.02067,-1.07487 q 0,-0.32556 -0.149862,-0.55811 l -0.0155,-0.0879 v -1.21956 l -0.02067,-0.0775 0.02067,-0.0775 v -0.44442 q 0.165365,-0.21704 0.165365,-0.30489 v -0.53743 q 0,-0.1757 -0.273886,-0.21188 l -0.02584,-0.0258 h -0.180867 l -0.06201,0.0413 -0.382406,0.0207 q -0.253214,-0.14987 -0.397908,-0.41858 v -0.14986 q 0,-0.093 0.361735,-0.093 h 0.485758 z"/>
      <path d="m 84.911021,166.72077 h 0.04134 q 0.108521,0.11369 0.382406,0.23771 l 0.392741,0.39274 q 0,0.0568 0.103352,0.0982 0,0.031 0.227377,0.23254 0,0.0724 0.08785,0.0724 0.180867,0.24288 0.692464,0.74931 l 0.211873,0.1912 q 0,0.2067 0.165365,0.3359 0,0.0672 0.697632,0.75447 l 0.03617,0.0362 q 0.165365,0.31522 0.335897,0.43924 l 0.08785,0.12403 v 0.10852 l -0.118856,0.13436 h -0.09819 q -0.186035,-0.16537 -0.325562,-0.16537 -0.341064,-0.48576 -0.397908,-0.49609 -0.134359,-0.0982 -0.134359,-0.20671 h -0.227376 v 0.13953 q 0.165364,0.14469 0.165364,0.20154 v 0.16019 l -0.103353,0.43409 v 0.0879 q 0,0.0878 0.06201,0.16536 v 0.4961 q -0.03617,0.0517 -0.09819,0.40824 l -0.02584,0.0258 v 1.21956 l -0.04134,0.78548 -0.04134,0.0413 v 0.0413 q 0,0.67696 -0.08268,0.76481 v 0.16536 q 0,0.60462 -0.09302,0.79065 -0.09302,0.0517 -0.09302,0.53227 v 0.14469 q 0,0.0775 -0.07235,0.13436 h -0.0052 q -0.08785,-0.0517 -0.08785,-0.1757 l 0.04134,-1.2609 0.04134,-0.0413 v -0.86299 l -0.04134,-0.062 -0.02067,-0.59945 0.103353,-0.66146 q 0,-0.18087 -0.103353,-0.71313 v -0.0982 l -0.02067,-0.60978 q -0.06201,0 -0.08268,-0.42375 v -0.24804 q 0,-0.27906 0.08268,-0.43925 l 0.02067,-0.30489 v -0.46509 l 0.103353,-0.26872 q 0,-0.17053 -0.966349,-1.08004 -0.563274,-0.5271 -0.563274,-0.82165 -0.10852,0 -0.191202,-0.37207 -0.118856,-0.0724 -0.118856,-0.15503 v -0.0568 z m 0.558105,2.29443 q 0.196371,0.0413 0.196371,0.19637 0.04134,0.0517 0.06718,0.23255 0.26355,0.0413 0.26355,0.0982 0.144694,0.15503 0.144694,0.22738 v 0.0103 q -0.103353,0.3204 -0.103353,0.96119 v 2.80086 q -0.165364,0.36173 -0.165364,0.5271 v 0.37724 l -0.04134,0.062 v 0.22221 q 0,0.1757 -0.191202,0.57877 l -0.07751,0.031 h -0.03101 l -0.08268,-0.0827 q 0.07235,-0.12403 0.07235,-0.25839 v -0.12402 q 0,-1.43144 -0.04134,-2.38745 -0.08268,0 -0.08268,-1.00252 l -0.04134,-0.0413 v -0.27389 l 0.04134,-0.062 v -0.19637 l 0.04134,-0.37724 q -0.02067,-0.89917 -0.08268,-0.89917 v -0.47542 q 0.06201,-0.12919 0.113688,-0.1447 z"/>
      <path d="m 90.574757,165.97146 h 0.258382 q 0.454753,0.19637 0.454753,0.42375 -0.04134,0.0465 -0.289388,0.0775 0,0.11369 -0.139526,0.13953 h -0.304891 q -0.118856,0 -0.289388,-0.1447 l -0.971517,-0.0207 -0.09302,-0.093 q 0,-0.11369 0.315226,-0.11369 0.165365,-0.12402 0.397909,-0.12402 h 0.304891 q 0.26355,-0.1447 0.356567,-0.1447 z m -0.527099,1.08004 q 0.294555,0.26355 0.382405,0.26355 l 0.248047,-0.0207 0.640788,0.0207 q 0.186035,0 0.423747,-0.12403 h 0.02067 q 0.08268,0.0362 0.08268,0.093 0,0.19121 -0.320393,0.21704 -0.06718,0 -0.165365,0.10336 -0.08268,0 -0.377238,0.1912 l -0.06718,0.0362 h -0.139527 l -0.227376,-0.16536 h -0.563273 q -0.113688,-0.0362 -0.320394,-0.20671 h -0.248047 l -0.521932,-0.0207 -0.0052,-0.0207 q 0,-0.031 0.211873,-0.0672 0.06201,-0.1602 0.211873,-0.1602 h 0.320394 z m 0.48059,1.25574 h 0.149862 q 0.03617,0.0413 0.26355,0.062 l 0.222209,0.25838 v 0.0724 q -0.03617,0.0879 -0.124024,0.12402 h -0.0155 l -0.06201,-0.0413 h -0.346232 q -0.180867,0 -0.552937,-0.0982 -0.201539,-0.17053 -0.459921,-0.17053 h -0.248047 l -0.05168,-0.0517 v -0.093 q 0.0052,-0.0207 0.07235,-0.0207 h 1.090373 z"/>
      <path d="m 93.205088,165.48054 h 0.031 l 0.227377,0.0413 h 0.201538 q 0.356567,0.14469 0.578776,0.18603 l 0.124023,0.0362 q 0.103353,0.1292 0.335897,0.18087 0.0155,0.0827 0.28422,0.16537 l 0.186036,0.28422 q 0,0.12919 0.304891,0.37207 0.253214,0.27388 0.279052,0.47025 0.09302,0.062 0.139527,0.16537 v 0.18087 q 0.10852,0.62528 0.186035,0.62528 0,0.031 0.180867,0.062 l 0.377238,-0.12402 h 0.01034 q 0.124023,0 0.155029,0.0827 v 0.0827 q -0.07235,0.18604 -0.217041,0.18604 -0.37207,0.41341 -0.552938,0.41341 l -0.206706,-0.0413 -0.366902,0.0155 q 0,-0.0775 -0.279053,-0.0775 h -0.124023 q -0.217042,0.0207 -0.217042,0.19637 0,0.1912 0.165365,0.39274 l 0.02067,0.14986 q 0,0.12402 -0.165365,0.30489 l -0.04134,0.99736 -0.04134,0.062 v 0.51159 q 0,0.23255 -0.08268,0.35657 v 0.78032 q 0,0.31522 -0.08268,0.58911 l -0.02067,-0.12919 q -0.05168,-0.0207 -0.124024,-0.24288 v -0.13436 q 0,-0.27905 -0.08268,-0.70797 l -0.02067,-0.26355 v -0.37207 q 0,-0.28939 -0.144694,-0.69246 v -0.39274 l 0.124024,-0.26872 v -0.27905 q -0.06201,-0.0775 -0.06201,-0.25839 l 0.144694,-0.39274 v -0.0413 q -0.07751,-0.16536 -0.258382,-0.16536 h -1.219564 q -0.279053,0 -0.573608,-0.18604 l -0.0155,-0.0568 q 0,-0.0879 0.160197,-0.0879 0.113688,-0.16537 0.387573,-0.16537 h 0.475423 l 0.310059,0.0207 0.351399,-0.0207 h 1.116211 l 0.05168,-0.1912 q 0,-0.32556 -0.129191,-0.50643 l -0.03617,-0.0672 v -0.15503 q 0,-0.24288 -0.165364,-0.39274 0,-0.14986 -0.206706,-0.39274 0,-0.0465 -0.09302,-0.13436 -0.253214,-0.45475 -0.434082,-0.45475 -0.124023,-0.12402 -0.351399,-0.12402 h -0.06718 q -0.222208,-0.16537 -0.325561,-0.16537 h -0.165365 l -0.09302,-0.093 v -0.0465 z m 1.111043,1.6123 h 0.113688 q 0.118856,0.0413 0.227376,0.24805 v 0.0207 q -0.129191,0.28939 -0.537435,0.28939 0,0.062 -0.175699,0.062 h -0.03617 q -0.387573,-0.0982 -0.387573,-0.19121 l -0.03617,-0.0568 q 0.05684,-0.1757 0.160197,-0.20671 h 0.237712 q 0.232544,0 0.434082,-0.16536 z"/>
      <path d="m 99.313242,167.14968 0.361735,0.3204 q 0.06718,0 0.335893,0.25838 0.62529,0.49609 0.62529,0.69246 0.093,0 0.14986,0.22221 l 0.50643,0.53227 q 0.11369,0.0775 0.27905,0.32039 0.0568,0 0.1602,0.18604 h 0.0413 l 0.22738,0.35657 v 0.0465 l -0.0569,0.0723 h -0.0672 q -0.0362,-0.0207 -0.33589,-0.47542 -0.062,0 -0.13436,-0.11369 -0.11369,-0.0413 -0.24805,-0.2067 -0.47026,-0.29973 -0.62012,-0.49093 -0.33589,-0.28422 -0.40824,-0.28422 l -0.397909,-0.35657 q -0.310059,-0.28939 -0.583944,-0.48576 0,-0.0568 -0.377238,-0.14986 h -0.129191 q -0.06201,0 -0.1757,0.18604 -0.06201,0 -0.186035,0.2067 -0.10852,0 -0.155029,0.21704 -0.09819,0.0207 -0.165365,0.40308 -0.04651,0 -0.08785,0.17053 l -0.04651,0.0465 v 1.13171 q 0.258382,0.36174 0.485758,0.4961 0.03101,0.0723 0.341065,0.22221 0,0.0827 0.258382,0.0827 h 0.413411 q 0.201538,0 0.387573,-0.1447 h 0.04651 l 0.05168,0.0517 v 0.005 q -0.180868,0.25321 -0.382406,0.25321 h -0.744141 q -0.248046,0 -0.45992,-0.16536 -0.165364,0 -0.273885,-0.20671 -0.05684,0 -0.434082,-0.42374 0,-0.1757 -0.186035,-0.37207 v -1.1989 q 0,-0.12402 0.160197,-0.26355 l 0.02584,-0.14469 v -0.11369 l 0.139526,-0.24288 q 0.03617,-0.16536 0.304891,-0.40307 0.108521,-0.28422 0.325562,-0.43409 h 0.06718 q 0.149862,0 0.237712,0.1602 0.310058,0.0362 0.310058,0.16536 l 0.211874,0.031 z m -0.516764,1.14722 h 0.02584 l 0.289388,0.0775 q 0.09819,0.10335 0.279053,0.18086 0.02067,0.0465 0.258382,0.19637 0.0052,0.0517 0.201538,0.12919 0,0.0413 0.232543,0.22221 0.0465,0.13953 0.13953,0.21704 0.20154,0.10852 0.2067,0.1292 v 0.031 l -0.0879,0.0775 q -0.005,0 -0.15503,-0.21705 l -0.428911,-0.18086 q -0.02584,-0.0879 -0.382405,-0.24805 v -0.0568 h -0.07235 q -0.310059,0 -0.418579,-0.10852 l -0.149862,-0.17054 -0.02067,-0.17053 q 0,-0.0724 0.08268,-0.10852 z"/>
      <path d="m 107.09571,168.11087 q 0.0413,0 0.0517,0.19637 0,0.16536 -0.1602,0.28422 l -0.37724,0.16019 h -0.11885 q -0.11369,-0.0827 -0.32556,-0.0827 h -0.062 q -0.13953,0 -0.22738,0.0827 h -0.0413 q -0.0775,-0.062 -0.20671,-0.062 -0.17053,0 -0.24288,0.24805 -0.0568,0 -0.2067,0.20154 -0.47026,0.33589 -0.47026,0.59428 0,0.0879 -0.45992,0.3979 l -0.27905,0.37724 q -0.11886,0 -0.14469,0.28939 -0.0672,0.0413 -0.14987,0.18087 v 0.14986 l -0.16536,0.3514 q 0,0.28422 -0.12402,1.03869 v 0.0724 l -0.0414,0.062 v 0.22221 q 0.16537,0.1602 0.16537,0.39274 v 0.15503 q 0.26355,0.51677 0.7028,0.80099 0,0.12919 0.26872,0.12919 0,0.062 0.27905,0.062 h 0.031 q 0.24805,-0.10335 0.62529,-0.10335 l 0.0362,0.0465 v 0.0207 q -0.0258,0.11885 -0.17053,0.11885 -0.26872,0.16537 -0.43925,0.16537 h -0.2067 q -0.13436,0 -0.43925,-0.16537 -0.13436,0 -0.35657,-0.1757 -0.26872,-0.18087 -0.51677,-0.55294 0,-0.0672 -0.10852,-0.15502 -0.0465,-0.21188 -0.18603,-0.39275 l -0.0155,-0.062 v -0.29455 l -0.1447,-0.43408 -0.0207,-0.38241 0.0207,-0.32556 q 0.0258,-0.005 0.1447,-0.47543 v -0.29455 q 0.16019,-0.1912 0.2067,-0.47542 l 0.34623,-0.47026 q 0.0413,-0.093 0.6873,-0.59945 0,-0.0465 0.18603,-0.16536 0,-0.0517 0.27389,-0.25838 l 0.0568,-0.0827 v -0.14986 h -0.0982 l -0.39274,0.0413 h -0.5116 q -0.0982,0 -0.31523,-0.16536 h -0.38757 q -0.0724,0.062 -0.22737,0.062 h -0.0362 q -0.28422,-0.0517 -0.28422,-0.15503 v -0.0827 q 0,-0.11886 0.26355,-0.20154 0.1447,-0.11885 0.44959,-0.11885 h 0.66145 q 0.19121,0 0.37207,0.14469 h 0.11886 q 0.10852,-0.0827 0.21187,-0.0827 h 0.1602 l 0.062,-0.0413 h 0.98185 l 0.062,0.0413 h 0.36173 l 0.0879,0.0207 0.25838,-0.062 z"/>
      <path d="m 108.06206,167.43907 0.53744,0.0413 h 0.82165 q 0.031,0.0413 0.24805,0.0413 0.45475,0.12403 0.76998,0.12403 h 0.0672 q 0.15503,0.10852 0.49609,0.23771 l 0.0155,0.0258 q -0.0155,0.0362 -0.1757,0.0878 h -0.062 q 0,-0.031 -0.5271,-0.0827 l -0.74414,0.0413 -0.0413,0.0413 h -0.0413 q -0.0568,-0.0517 -0.26872,-0.062 -0.21187,0.0103 -0.26871,0.062 h -0.78549 l -0.2067,0.16536 q -0.0362,0 -0.23771,-0.27388 v -0.34107 q 0.0568,-0.10852 0.40307,-0.10852 z m 1.14722,0.82682 h 0.093 q 0.38757,0.43409 0.51676,0.43409 l 0.13436,0.13436 v 0.14469 q 0,0.0103 -0.23771,0.0827 l -0.031,0.0982 0.0207,0.25321 -0.0207,0.7028 -0.0413,0.0413 v 0.38241 q -0.12402,0.27905 -0.12402,0.44441 v 0.27906 q -0.0517,0.16536 -0.0724,0.16536 l -0.0568,0.0413 q -0.10336,0 -0.18087,-0.67696 v -0.71313 q -0.0827,-0.11886 -0.0827,-0.48059 v -0.0362 l -0.0413,-0.062 v -0.031 l 0.0413,-0.062 v -0.14986 q -0.062,0 -0.062,-0.0517 l -0.14987,-0.031 -0.66662,0.0207 q -0.0517,0 -0.093,-0.0672 v -0.0517 q 0.0413,-0.0775 0.25321,-0.21187 h 0.23255 q 0.25838,0 0.5271,-0.23254 v -0.0517 l -0.0413,-0.18087 q 0.0413,-0.11885 0.0827,-0.13436 z"/>
      <path d="m 112.36671,165.48054 h 0.031 l 0.22738,0.0413 h 0.20154 q 0.35657,0.14469 0.57877,0.18603 l 0.12403,0.0362 q 0.10335,0.1292 0.3359,0.18087 0.0155,0.0827 0.28422,0.16537 l 0.18603,0.28422 q 0,0.12919 0.30489,0.37207 0.25322,0.27388 0.27905,0.47025 0.093,0.062 0.13953,0.16537 v 0.18087 q 0.10852,0.62528 0.18604,0.62528 0,0.031 0.18086,0.062 l 0.37724,-0.12402 h 0.0103 q 0.12402,0 0.15503,0.0827 v 0.0827 q -0.0724,0.18604 -0.21705,0.18604 -0.37207,0.41341 -0.55293,0.41341 l -0.20671,-0.0413 -0.3669,0.0155 q 0,-0.0775 -0.27905,-0.0775 h -0.12403 q -0.21704,0.0207 -0.21704,0.19637 0,0.1912 0.16537,0.39274 l 0.0207,0.14986 q 0,0.12402 -0.16537,0.30489 l -0.0413,0.99736 -0.0413,0.062 v 0.51159 q 0,0.23255 -0.0827,0.35657 v 0.78032 q 0,0.31522 -0.0827,0.58911 l -0.0207,-0.12919 q -0.0517,-0.0207 -0.12402,-0.24288 v -0.13436 q 0,-0.27905 -0.0827,-0.70797 l -0.0207,-0.26355 v -0.37207 q 0,-0.28939 -0.1447,-0.69246 v -0.39274 l 0.12403,-0.26872 v -0.27905 q -0.062,-0.0775 -0.062,-0.25839 l 0.14469,-0.39274 v -0.0413 q -0.0775,-0.16536 -0.25838,-0.16536 h -1.21957 q -0.27905,0 -0.5736,-0.18604 l -0.0155,-0.0568 q 0,-0.0879 0.1602,-0.0879 0.11369,-0.16537 0.38757,-0.16537 h 0.47543 l 0.31005,0.0207 0.3514,-0.0207 h 1.11622 l 0.0517,-0.1912 q 0,-0.32556 -0.12919,-0.50643 l -0.0362,-0.0672 v -0.15503 q 0,-0.24288 -0.16537,-0.39274 0,-0.14986 -0.2067,-0.39274 0,-0.0465 -0.093,-0.13436 -0.25322,-0.45475 -0.43408,-0.45475 -0.12403,-0.12402 -0.3514,-0.12402 h -0.0672 q -0.22221,-0.16537 -0.32556,-0.16537 h -0.16537 l -0.093,-0.093 v -0.0465 z m 1.11104,1.6123 h 0.11369 q 0.11886,0.0413 0.22738,0.24805 v 0.0207 q -0.12919,0.28939 -0.53744,0.28939 0,0.062 -0.1757,0.062 h -0.0362 q -0.38758,-0.0982 -0.38758,-0.19121 l -0.0362,-0.0568 q 0.0569,-0.1757 0.1602,-0.20671 h 0.23771 q 0.23254,0 0.43408,-0.16536 z"/>
  </g>
</svg>
