<svg xmlns="http://www.w3.org/2000/svg" width="41.015583mm" height="7.3587236mm" viewBox="0 0 41.015584 7.3587237" fill="currentColor">
  <g transform="translate(-23.434523,-156.63499)">
      <path d="m 24.803948,156.73835 q -0.0155,0.0103 -0.03617,0.0413 0.06201,0.0465 0.103352,0.0465 0.02067,0 0.03617,-0.0103 0.06201,-0.0207 0.129191,-0.0517 0.06718,-0.0362 0.144694,-0.0517 h 0.02067 q 0.06201,0 0.113688,0.0672 0.356567,0.0362 0.733805,0.0362 0.149862,0 0.294556,-0.005 0.532267,-0.0155 1.069702,-0.0413 0.542602,-0.031 1.07487,-0.0413 0.129191,-0.005 0.263549,-0.005 0.387574,0 0.754476,0.0258 -0.134358,0.093 -0.1757,0.24288 -0.03617,0.14986 -0.03617,0.25838 0.0052,0.1757 0.0052,0.34624 0,0.36173 -0.02584,0.74414 -0.04651,0.56844 -0.07751,1.13688 -0.02584,0.56844 -0.03617,1.12138 v 0.13436 q 0,0.48059 0.06718,0.9095 -0.03101,0.062 -0.03101,0.13436 0,0.0207 0.0052,0.0465 0.0155,0.093 0.02584,0.18087 0.01034,0.0827 0.0155,0.17053 v 0.0258 q 0,0.0775 -0.02584,0.14986 0.0052,0.0517 0.0052,0.0982 0,0.13953 -0.02067,0.28422 -0.03101,0.20154 -0.03101,0.40308 0,0.1757 0.06201,0.3514 0.06201,0.17053 0.253215,0.27905 -0.04651,0.0672 -0.15503,0.0672 h -0.04651 q -0.05168,-0.005 -0.09302,-0.005 -0.09302,0 -0.165365,0.0207 -0.232544,0 -0.490926,0.031 -0.253214,0.0258 -0.516764,0.0465 -0.26355,0.0207 -0.5271,0.0258 h -0.03101 q -0.24288,0 -0.459921,-0.0724 0.15503,-0.031 0.299724,-0.1757 0.144694,-0.14986 0.155029,-0.3669 0.08785,-0.17053 0.08785,-0.38241 0,-0.21187 0.02584,-0.37724 -0.07235,-0.0362 -0.07751,-0.0672 v -0.0207 q 0,-0.0258 0.0052,-0.0672 0.0155,-0.0465 0.02584,-0.0982 0.0052,-0.0103 0.0052,-0.0258 0,-0.0362 -0.03101,-0.0775 0.0052,-0.0568 0.0052,-0.11886 0,-0.18603 -0.02584,-0.35657 -0.01034,-0.0879 -0.01034,-0.18603 0,-0.1602 0.03101,-0.34623 l 0.118856,0.0517 q -0.02584,-0.13436 -0.02584,-0.31522 0,-0.19121 0.06718,-0.34107 0.0155,-0.0413 0.0155,-0.0723 0,-0.0465 -0.02584,-0.0775 -0.04651,-0.0517 -0.07752,-0.11886 l -0.05684,0.0517 q 0.02067,-0.3669 0.06718,-0.75964 0.02584,-0.25838 0.02584,-0.50126 0,-0.11369 -0.0052,-0.22221 -0.03101,-0.14986 -0.03101,-0.3204 0,-0.0982 0.0155,-0.2067 0.03101,-0.28422 0.113688,-0.51677 -0.02067,-0.0413 -0.02067,-0.0879 0,-0.0207 0.0052,-0.0465 v -0.0207 q 0,-0.0517 -0.06718,-0.0775 -0.02584,-0.12919 -0.04651,-0.23771 -0.0155,-0.11369 -0.134359,-0.16537 -0.423746,0.0207 -0.888834,0.0362 -0.149862,0.005 -0.304891,0.005 -0.294556,0 -0.568441,-0.0207 -0.06201,0.0517 -0.06201,0.10852 v 0.0103 q 0.0052,0.062 0.03101,0.11886 0.03101,0.0568 0.05684,0.11885 0.03101,0.0569 0.03101,0.11369 0.248047,0.26355 0.490926,0.5271 0.242879,0.26355 0.397909,0.56327 0.103353,0.0568 0.139526,0.13436 0.04134,0.0775 0.07751,0.15503 0.04134,0.0724 0.07751,0.14469 0.04134,0.0672 0.129191,0.0879 v 0.093 q -0.129191,0 -0.289388,-0.031 -0.155029,-0.031 -0.310058,-0.0517 -0.06718,-0.0103 -0.134359,-0.0103 -0.08268,0 -0.155029,0.0155 -0.134359,0.031 -0.237712,0.15503 -0.129191,-0.0103 -0.211873,-0.0724 -0.07751,-0.0672 -0.134359,-0.15503 -0.05168,-0.093 -0.10852,-0.1912 -0.05684,-0.10336 -0.144694,-0.1757 -0.299724,-0.19637 -0.516765,-0.45475 -0.217041,-0.25839 -0.418579,-0.5271 -0.201538,-0.27389 -0.423746,-0.5271 -0.222209,-0.25839 -0.521932,-0.47026 0.09819,0 0.175699,-0.0724 0.07751,-0.0775 0.165365,-0.13952 0.09302,-0.0672 0.186035,-0.0827 h 0.02584 q 0.08268,0 0.191203,0.0827 z"/>
      <path d="m 33.025668,158.22146 q -0.08785,0.10335 -0.124023,0.22738 -0.03101,0.11885 -0.03101,0.26355 v 0.26871 q 0,0.1447 -0.03617,0.26872 0.0155,0.0775 0.0155,0.15503 0,0.0724 -0.01033,0.13953 -0.02067,0.16536 -0.02067,0.29972 0,0.19637 0.02584,0.38241 0.0052,0.062 0.0052,0.12402 0,0.11886 -0.03101,0.24805 0.02584,0.31006 0.02584,0.62011 v 0.15503 q -0.01034,0.38758 -0.01034,0.77515 0,0.38757 0.0155,0.76998 0.02067,0.3824 0.09819,0.77515 0.04134,0.0413 0.07751,0.0827 0.01033,0.0155 0.01033,0.031 0,0.031 -0.02584,0.062 -0.05684,0 -0.06201,0.0465 0,0.0413 -0.03617,0.0775 -0.04134,-0.0724 -0.103353,-0.0775 -0.06201,-0.0103 -0.144694,-0.0103 -0.06718,0 -0.139526,0.0103 -0.04134,0.005 -0.06718,0.005 -0.03101,0 -0.05168,-0.005 -0.279053,0.005 -0.490926,0.0207 -0.129191,0.005 -0.273885,0.005 h -0.206706 q -0.02067,-0.0258 -0.02067,-0.0568 0,-0.0258 0.031,-0.0465 0.06201,-0.0413 0.06201,-0.0982 0.05168,-0.45992 0.09818,-0.84749 0.0155,-0.12919 0.0155,-0.26355 0,-0.26872 -0.06201,-0.56844 0,-0.0724 0.0155,-0.15503 0.02067,-0.0879 0.03617,-0.17053 0.0052,-0.0258 0.0052,-0.0465 0,-0.0568 -0.02067,-0.10852 -0.02584,-0.0724 -0.08785,-0.10335 -0.180867,-0.0672 -0.341064,-0.0672 -0.04651,0 -0.09302,0.005 -0.206706,0.0258 -0.418579,0.0672 -0.165365,0.0568 -0.330729,0.1447 -0.165365,0.0879 -0.294556,0.18603 0.04134,-0.16536 0.04651,-0.38757 0.01034,-0.22221 0.124023,-0.39791 0.103353,-0.0775 0.211874,-0.0775 h 0.03101 q 0.129191,0.0103 0.258382,0.0362 l 0.857829,-0.0413 q 0.02067,-0.27905 0.02067,-0.56327 V 160.18 q -0.01034,-0.38758 -0.01034,-0.76481 -0.02067,-0.24288 -0.05684,-0.50126 -0.03101,-0.25839 -0.07751,-0.49093 -0.05684,-0.0258 -0.05684,-0.0879 0,-0.031 0.0052,-0.0568 0.07751,-0.0413 0.180867,-0.062 0.103353,-0.0207 0.217041,-0.0207 0.113688,-0.005 0.211874,-0.0103 0.103352,-0.005 0.206705,-0.0413 0.09819,0.0155 0.211874,0.0155 0.09302,0 0.19637,-0.0103 0.04651,-0.0103 0.09819,-0.0103 0.165365,0 0.320394,0.0827 z"/>
      <path d="m 37.650708,158.18012 q 0.07235,-0.0258 0.139527,-0.0258 0.04651,0 0.09819,0.0155 0.06718,0.0258 0.144694,0.0258 0.05684,0 0.124023,-0.0155 -0.160197,0.062 -0.248046,0.13953 -0.07235,0.062 -0.180868,0.062 h -0.07751 q -0.521932,0.36173 -1.054199,0.7183 -0.527099,0.35657 -0.961181,0.83716 -0.09302,0.12919 -0.217041,0.22221 -0.124024,0.093 -0.248047,0.18603 -0.124024,0.093 -0.237712,0.19121 -0.10852,0.0982 -0.149862,0.2222 0.149862,0.20671 0.341065,0.38758 0.191203,0.18086 0.382406,0.36173 0.191202,0.18087 0.361735,0.37724 0.170532,0.1912 0.279052,0.41858 0.227377,0.0724 0.382406,0.21704 0.160197,0.13953 0.310058,0.30489 0.149862,0.16537 0.304891,0.32039 0.15503,0.14987 0.356568,0.23255 0.129191,0.19637 0.330729,0.31006 0.201538,0.10852 0.397908,0.23254 -0.211873,0.031 -0.434082,0.031 -0.118855,0 -0.227376,-0.0103 -0.346232,-0.0207 -0.640788,-0.0413 -0.129191,0.031 -0.289388,0.0465 -0.02584,0.005 -0.05168,0.005 -0.129191,0 -0.211873,-0.093 -0.07235,0.0362 -0.129192,0.0362 -0.04134,0 -0.06718,-0.0258 -0.06201,-0.0465 -0.103353,-0.1292 -0.03617,-0.0827 -0.07751,-0.16536 -0.03617,-0.0879 -0.124024,-0.12919 -0.08785,-0.14986 -0.206706,-0.23255 -0.113688,-0.0879 -0.222208,-0.15502 -0.108521,-0.0672 -0.227376,-0.14987 -0.113689,-0.0827 -0.206706,-0.24288 -0.330729,-0.36173 -0.687297,-0.73897 -0.351399,-0.3824 -0.713134,-0.69246 -0.02067,-0.0362 -0.02067,-0.0724 0,-0.031 0.02067,-0.0517 0.03617,-0.0465 0.103352,-0.0775 0.06718,-0.0362 0.139527,-0.0672 0.07751,-0.0362 0.118856,-0.0827 0.04134,-0.0879 0.124023,-0.16537 0.08268,-0.0775 0.186035,-0.0827 0.26355,-0.28422 0.511597,-0.51676 0.253214,-0.23772 0.501261,-0.53227 0.08268,-0.0258 0.144694,-0.0879 0.06201,-0.062 0.124024,-0.12919 0.06201,-0.0672 0.118855,-0.12403 0.05684,-0.0568 0.149862,-0.0775 0.06718,-0.11369 0.1757,-0.20671 0.113688,-0.093 0.217041,-0.18603 0.103353,-0.093 0.165364,-0.20671 0.04651,-0.093 0.04651,-0.21187 0,-0.031 -0.0052,-0.062 0.05684,-0.0827 0.139526,-0.10335 0.06718,-0.0207 0.129191,-0.0207 h 0.03617 q 0.08268,0.005 0.170532,0.005 0.09819,0 0.1757,-0.0362 0.09302,0.0155 0.180867,0.0155 0.05684,0 0.108521,-0.005 0.03101,-0.005 0.06718,-0.005 0.103353,0 0.211873,0.0362 z"/>
      <path d="m 39.857293,158.21629 v -0.0827 q 0.09819,0.0568 0.160197,0.12919 0.06201,0.0672 0.113688,0.14986 0.05168,0.0827 0.113688,0.14987 0.06718,0.0672 0.170532,0.0982 0.02584,0.10852 0.09302,0.14469 0.06718,0.0362 0.09819,0.13436 0.392741,0.59945 0.935343,1.15756 0.542603,0.55293 1.111044,1.02319 0.0052,0.0103 0.0052,0.0155 0,0.0155 -0.01033,0.0155 -0.02067,0.0103 -0.02584,0.0258 -0.124024,-0.0568 -0.237712,-0.062 -0.10852,-0.005 -0.242879,-0.031 -0.149862,-0.062 -0.310059,-0.11886 -0.155029,-0.0568 -0.299723,-0.10335 l -0.04651,-0.1447 q -0.237711,-0.2067 -0.485758,-0.40307 -0.242879,-0.20154 -0.423747,-0.46509 -0.03101,0.0155 -0.05168,0.0155 -0.0155,0 -0.02584,-0.0103 -0.02067,-0.0207 -0.04134,-0.0568 -0.0155,-0.0413 -0.03617,-0.0775 -0.02067,-0.0362 -0.06718,-0.0413 l -0.211874,-0.19121 q -0.05684,0.11369 -0.06201,0.24805 0,0.13436 0,0.23771 l 0.06201,0.0775 q 0,0.093 -0.04134,0.17053 -0.03617,0.0724 -0.06718,0.1602 -0.03101,0.0879 -0.04134,0.16019 v 0.0103 q 0,0.0775 0.08785,0.12919 -0.02584,0.22738 -0.02584,0.40308 0,0.17053 0.05684,0.37723 0.0052,0.0879 0.0052,0.18087 0,0.3359 -0.04651,0.66146 -0.04134,0.28939 -0.04134,0.59428 0,0.14986 0.01033,0.29972 0.04651,0.0465 0.04651,0.11369 v 0.0155 q -0.0052,0.0775 -0.0052,0.14986 0.180868,-0.0103 0.366903,-0.0103 0.134359,0 0.279053,0.005 h 0.05684 q 0.289388,0 0.583944,-0.10852 0.05684,0.0155 0.103352,0.0155 0.08268,0 0.149862,-0.0362 0.108521,-0.0465 0.201538,-0.11886 0.09819,-0.0775 0.196371,-0.14469 0.09819,-0.0672 0.222208,-0.0982 0.06718,-0.031 0.124024,-0.0982 0.03617,-0.0362 0.09302,-0.0362 0.03101,0 0.07235,0.0155 -0.06718,0.26872 -0.201538,0.5116 -0.134359,0.23771 -0.253214,0.48576 -0.134359,0.0517 -0.279053,0.0517 h -0.03617 q -0.165364,-0.0103 -0.320393,-0.0207 -0.15503,-0.0103 -0.315227,-0.031 h -0.06718 q -0.124023,0 -0.242879,0.0362 -0.232544,-0.0103 -0.465088,-0.0103 -0.232544,0 -0.449585,0.0103 -0.04651,-0.0207 -0.09302,-0.0207 -0.04651,0 -0.08785,0.0155 -0.04134,0.0155 -0.07751,0.0155 -0.05168,0 -0.09818,-0.0258 -0.124024,0.0465 -0.299724,0.0465 -0.180867,0 -0.335897,0.0258 l -0.155029,-0.0568 q 0.07752,-0.34623 0.09302,-0.69763 v -0.30489 q 0,-0.20154 -0.0052,-0.39791 -0.0155,-0.35657 -0.02067,-0.70797 v -0.0517 q 0,-0.3204 0.04651,-0.63562 0.103353,-0.0258 0.118856,-0.10852 0.02067,-0.0879 0.03617,-0.17053 l -0.149862,0.0207 q -0.0052,-0.56328 -0.0052,-1.10071 0,-0.5426 0.0052,-1.17306 0.201538,-0.15503 0.428914,-0.23254 0.227377,-0.0775 0.397909,-0.23771 0.113688,0.0362 0.160197,0.11885 z"/>
      <path d="m 49.686149,158.2473 q -0.0155,0.13436 -0.07235,0.27388 -0.05168,0.13436 -0.08785,0.26872 -0.031,0.12919 -0.03617,0.27389 v 0.031 q 0,0.12919 0.05684,0.24805 -0.02584,0.13436 -0.02584,0.28422 0,0.0724 0.0155,0.14469 v 0.0568 q 0,0.19637 -0.103353,0.38757 0.06201,0.29972 0.06718,0.65112 0.0052,0.34624 0.02067,0.62529 l -0.0052,-0.0258 v 0.0982 q 0,0.25321 -0.03617,0.54777 -0.02067,0.15503 -0.02067,0.28422 0,0.18603 0.03617,0.34623 0.02067,0.25838 0.02067,0.54777 0.0052,0.28422 0.144694,0.54777 -0.03617,0.0568 -0.06718,0.0568 -0.03617,0 -0.08785,-0.005 -0.04651,-0.0103 -0.08785,-0.0103 -0.03617,0 -0.07235,0.0413 h -0.05684 q -0.08785,0 -0.165365,0.0207 -0.06718,0.0155 -0.139526,0.0155 -0.04651,0 -0.09819,-0.0103 l -0.02584,-0.10852 q -0.149862,0.0775 -0.3514,0.0827 -0.06718,0.005 -0.134359,0.005 -0.124023,0 -0.237712,-0.0103 0.01034,-0.14986 0.05168,-0.27905 0.04651,-0.13436 0.07751,-0.26355 0.03617,-0.12919 0.04134,-0.25838 v -0.0155 q 0,-0.11886 -0.05684,-0.25322 0.06718,-0.18603 0.06718,-0.38757 0,-0.0465 -0.0052,-0.0879 -0.0155,-0.16537 -0.0155,-0.3204 0,-0.0723 0.0052,-0.14986 -0.06718,-0.12919 -0.06718,-0.26871 0,-0.13953 0.0155,-0.27906 0.0155,-0.13952 0.02584,-0.27388 v -0.0413 q 0,-0.11369 -0.02584,-0.22738 0.0052,-0.36173 0.02584,-0.75448 0.02067,-0.3979 0.09819,-0.7493 l 0.04134,-0.031 q -0.05684,-0.0207 -0.06201,-0.0465 -0.0052,-0.0258 -0.0052,-0.0517 v -0.062 q 0,-0.0413 -0.0155,-0.0672 -0.05684,-0.0465 -0.07235,-0.11368 -0.01034,-0.0724 -0.02584,-0.13436 -0.01034,-0.062 -0.04134,-0.11369 -0.02584,-0.0568 -0.103353,-0.0568 l -0.289388,0.005 q -0.118856,0.10336 -0.118856,0.20154 0,0.11369 0.03101,0.22221 0.03101,0.10852 0.05684,0.21704 0.0052,0.0258 0.0052,0.0517 0,0.0879 -0.05684,0.17053 0.04134,0.0517 0.04134,0.10335 0,0.031 -0.0155,0.0568 -0.0052,0.031 -0.0052,0.0517 0,0.0517 0.03617,0.0879 -0.03101,0.34107 -0.04651,0.6873 -0.0155,0.34623 -0.07751,0.6873 0.05684,0.093 0.05684,0.18603 0,0.0362 -0.01033,0.062 -0.02067,0.0827 -0.02067,0.16537 0,0.0413 0.0052,0.093 0.03101,0.12403 0.03101,0.25322 0,0.0465 -0.0052,0.093 -0.0155,0.1757 -0.03617,0.34623 -0.02067,0.16536 -0.02584,0.34106 v 0.031 q 0,0.16536 0.03617,0.3514 0.0052,0.0775 0.0052,0.14469 v 0.062 q -0.0052,0.0879 -0.01034,0.18087 -0.0052,0.062 -0.0052,0.12403 v 0.0568 q 0.0052,0.093 0.05684,0.20671 -0.04651,0.0155 -0.07751,0.0723 -0.02584,0.0517 -0.09819,0.0517 -0.08785,-0.062 -0.186035,-0.062 -0.03101,0 -0.06201,0.0103 -0.04134,0.005 -0.08785,0.005 -0.08785,0 -0.1757,-0.031 -0.211873,0.0155 -0.43925,0.0568 -0.06718,0.0103 -0.134358,0.0103 -0.15503,0 -0.304891,-0.062 0.0052,-0.12919 0.103353,-0.18087 0.103353,-0.0517 0.149861,-0.18603 -0.01033,-0.0879 -0.01033,-0.1912 0,-0.1602 0.02584,-0.32557 0.04651,-0.25321 0.08785,-0.52193 l -0.06718,-0.0879 q 0.02584,-0.24288 0.02584,-0.49609 0,-0.20154 -0.0155,-0.40824 -0.0155,-0.18604 -0.0155,-0.38241 0,-0.26355 0.03101,-0.52193 0.02584,-0.13953 0.02584,-0.28422 0,-0.0879 -0.01034,-0.1757 -0.02584,-0.22738 -0.05168,-0.44959 -0.02584,-0.22221 -0.02584,-0.45475 0,-0.22738 0.09302,-0.43408 -0.07751,-0.12919 -0.222209,-0.1602 -0.144694,-0.031 -0.273885,-0.0879 -0.165364,0.031 -0.325561,0.031 -0.129191,0 -0.253215,-0.0207 -0.07235,-0.0103 -0.134359,-0.0103 -0.217041,0 -0.418579,0.093 0.05168,0.21187 0.1757,0.40307 0.129191,0.18604 0.253215,0.3514 0.103353,0.0362 0.113688,0.11369 0.0155,0.0775 0.04134,0.13436 0.03617,0.11886 0.103353,0.21187 0.07235,0.093 0.149862,0.18604 0.08268,0.0879 0.149861,0.18087 0.07235,0.0879 0.09819,0.2067 -0.02067,0.0362 -0.02067,0.0672 0,0.0517 0.05684,0.0982 -0.08785,0.0155 -0.186035,0.0155 -0.103353,0 -0.211874,-0.0155 -0.118855,-0.0103 -0.227376,-0.0103 -0.103353,0 -0.201538,0.0103 -0.04134,-0.0465 -0.08268,-0.0465 h -0.09302 q -0.03617,0 -0.07751,-0.0258 -0.04134,-0.031 -0.05168,-0.0982 -0.118856,-0.19121 -0.26355,-0.37724 -0.144694,-0.19121 -0.294555,-0.36174 -0.149862,-0.1757 -0.304891,-0.35657 -0.15503,-0.18603 -0.268718,-0.37207 -0.07235,-0.10335 -0.170532,-0.1912 -0.09818,-0.0878 -0.186035,-0.18603 -0.08785,-0.0982 -0.139527,-0.20671 -0.04651,-0.0775 -0.04651,-0.18087 0,-0.0258 0.0052,-0.062 0.764812,0.0103 1.493449,0.0258 0.211874,0.0103 0.418579,0.0103 0.54777,0 1.157552,-0.0362 0.490926,0.0258 0.997355,0.0258 0.511597,0 1.028361,-0.0258 0.294556,-0.0568 0.620118,-0.0568 h 0.08268 q 0.37207,0.0103 0.687296,0.14986 z"/>
      <path d="m 53.443025,158.51085 q -0.05684,0.31006 -0.08785,0.65112 -0.01034,0.10336 -0.01034,0.20671 0,0.23254 0.05168,0.45475 -0.07752,0.22738 -0.07752,0.48059 v 0.52193 q 0.01034,0.26355 0.01034,0.5116 0,0.25321 -0.05168,0.48059 0.01033,0.22221 0.0155,0.47026 0.0052,0.24804 0.02067,0.50643 0.04134,0.093 0.04651,0.1912 v 0.0672 q 0,0.0672 -0.0052,0.13436 -0.0052,0.0517 -0.0052,0.10335 0,0.0517 0.0052,0.0982 0.0052,0.0982 0.07235,0.18087 -0.01034,0.031 -0.01034,0.0568 0,0.0465 0.03617,0.0775 0.05168,0.0517 0.09819,0.093 0.04651,0.0413 0.06201,0.0775 v 0.005 q 0,0.0362 -0.113688,0.0724 -0.144694,-0.0155 -0.273886,-0.0207 -0.124023,-0.0103 -0.242879,-0.0465 l -0.155029,0.0362 q 0.01033,-0.005 0.01033,-0.0103 0,-0.0103 -0.01033,-0.0103 -0.01034,-0.0103 -0.01034,-0.0207 0,-0.0103 0.0052,-0.0207 -0.237711,0.0672 -0.501261,0.0724 h -0.108521 q -0.217041,0 -0.444417,-0.0103 0.07751,-0.062 0.196371,-0.11369 0.118855,-0.0517 0.144694,-0.18086 -0.02584,-0.10852 -0.02584,-0.21705 v -0.0517 q 0.01034,-0.13436 0.03101,-0.25322 0.02584,-0.12402 0.03101,-0.25321 v -0.0155 q 0,-0.11886 -0.05168,-0.23772 0.05168,-0.10335 0.05168,-0.21704 v -0.0207 q -0.0052,-0.12402 -0.03101,-0.24804 -0.02067,-0.12403 -0.02067,-0.23772 0,-0.12402 0.06718,-0.24287 -0.0155,-0.17054 -0.0155,-0.3359 v -0.0827 q 0.0052,-0.20671 0.01033,-0.41858 0.0052,-0.10336 0.0052,-0.21188 0,-0.10852 -0.0052,-0.21187 -0.0052,-0.21187 -0.04651,-0.42891 -0.1757,0.15503 -0.310059,0.34623 -0.134359,0.18603 -0.242879,0.3824 -0.108521,0.19121 -0.237712,0.38241 -0.124023,0.1912 -0.28422,0.3514 -0.04134,-0.0103 -0.07751,-0.0103 -0.03617,0 -0.05684,0.005 -0.06201,0.0207 -0.118856,0.062 -0.05168,0.0413 -0.09819,0.0775 -0.04651,0.0362 -0.10852,0.0517 l -0.346233,0.0879 q -0.0052,-0.0207 -0.0052,-0.0465 0,-0.062 0.03617,-0.11369 0.04651,-0.0724 0.113689,-0.12919 0.07235,-0.0568 0.113688,-0.12403 0.04134,-0.0517 0.04134,-0.12919 v -0.0258 q 0.191203,-0.17053 0.304891,-0.36173 0.113688,-0.19637 0.330729,-0.3204 0.217041,-0.28938 0.397908,-0.59944 0.186036,-0.31006 0.480591,-0.57361 0.124024,-0.31523 0.346232,-0.5271 0.227377,-0.21704 0.434082,-0.49609 0.04651,-0.093 0.124024,-0.093 0.02067,0 0.04651,0.0103 0.10852,0.0413 0.201538,0.12403 0.03101,0.10852 0.129191,0.12919 0.09819,0.0155 0.118855,0.10852 z"/>
      <path d="m 58.858717,158.16462 q -0.08268,0.12919 -0.217041,0.25838 -0.134359,0.12402 -0.134359,0.33073 -0.09302,0.0155 -0.09302,0.0827 0,0.0568 -0.05168,0.0982 -0.03617,-0.0568 -0.113688,-0.0724 -0.07235,-0.0155 -0.139526,-0.0207 -0.06201,-0.005 -0.113689,-0.0207 -0.05168,-0.0207 -0.05168,-0.10336 -0.06201,-0.0465 -0.134359,-0.0465 -0.06718,0 -0.134358,0.0103 -0.06718,0.0103 -0.134359,0.0207 h -0.02067 q -0.06201,0 -0.10852,-0.0517 -0.02584,-0.005 -0.04651,-0.005 -0.03617,0 -0.05684,0.0155 -0.04134,0.031 -0.08268,0.0568 -0.160197,-0.0362 -0.33073,-0.0362 h -0.06201 q -0.206706,0.0103 -0.3514,0.0775 0.242879,0.22737 0.45992,0.49092 0.222209,0.26355 0.444418,0.51677 -0.01034,0.0362 -0.01034,0.0672 0,0.10335 0.09819,0.13952 0.124024,0.0413 0.211874,0.0982 0.201538,0.21704 0.465088,0.45475 0.26355,0.23771 0.496093,0.44958 0.01034,0.0155 0.01034,0.031 0,0.005 -0.0052,0.0103 -0.0052,0.0155 -0.02584,0.0362 -0.02067,0.0155 -0.03101,0.0258 v 0.005 q 0,0.005 0.02584,0.0103 -0.08268,0.0982 -0.232544,0.18604 -0.144694,0.0879 -0.186035,0.22737 -0.294556,0.18087 -0.599446,0.43408 -0.299724,0.24805 -0.625285,0.43409 -0.191203,0.13952 -0.335897,0.30489 -0.139526,0.16536 -0.279053,0.3514 -0.134359,0.18086 -0.26355,0.37207 -0.124023,0.18603 -0.279052,0.36173 0.0052,0.0155 0.0052,0.031 0,0.0827 -0.103353,0.11885 -0.08785,0.0207 -0.175699,0.0207 -0.03617,0 -0.07751,-0.005 l -0.800985,-0.031 q -0.03617,0.0517 -0.10852,0.0517 -0.02067,0 -0.04134,-0.005 -0.01034,-0.031 -0.01034,-0.062 0,-0.0362 0.02067,-0.0672 0.03101,-0.0413 0.09302,-0.062 0.06201,-0.0258 0.129191,-0.0465 0.06718,-0.0207 0.103352,-0.062 0.346233,-0.32557 0.692465,-0.58395 0.346232,-0.25838 0.651123,-0.62011 0.258382,-0.19637 0.470255,-0.40308 0.217041,-0.20671 0.444417,-0.40824 -0.01034,-0.0258 -0.01034,-0.0465 0,-0.0568 0.04134,-0.062 0.04651,-0.005 0.06201,-0.0672 -0.103353,-0.0982 -0.206706,-0.21188 -0.103353,-0.11885 -0.103353,-0.27905 -0.04651,-0.0517 -0.124023,-0.0879 -0.06201,-0.0258 -0.129191,-0.0258 h -0.03101 l -0.02584,-0.0517 q -0.217041,-0.24805 -0.43925,-0.45993 -0.217041,-0.21704 -0.449585,-0.47025 -0.134358,-0.031 -0.242879,-0.13953 -0.10852,-0.10852 -0.211873,-0.22221 -0.103353,-0.11368 -0.211874,-0.21704 -0.10852,-0.10335 -0.258382,-0.13952 -0.180867,-0.16537 -0.310058,-0.35657 -0.124024,-0.1912 -0.299724,-0.3514 -0.01034,-0.0258 -0.01034,-0.0465 0,-0.0413 0.04134,-0.0517 0.05684,-0.0103 0.108521,-0.062 0.134358,0.0155 0.258382,0.0155 0.10852,0 0.217041,-0.0103 0.227376,-0.0207 0.439249,-0.0517 0.211874,-0.0362 0.43925,-0.0517 0.06718,-0.0103 0.134359,-0.0103 0.165364,0 0.341064,0.0362 0.06718,0 0.118856,0.0155 0.05684,0.0103 0.113688,0.0207 0.06201,0.005 0.129191,0.005 0.05684,0 0.129191,-0.0413 0.05168,0.0258 0.113689,0.0258 0.03617,0 0.07751,-0.0103 0.02067,-0.0103 0.04651,-0.0103 0.06718,0 0.10852,0.062 0.06201,-0.0207 0.134359,-0.0207 h 0.07752 q 0.113688,0.0207 0.206706,0.0362 0.118855,-0.0775 0.273885,-0.0879 0.160197,-0.0103 0.325561,-0.0103 h 0.341065 q 0.165364,0 0.294555,-0.0775 0.05168,0.0258 0.09302,0.0258 0.0155,0 0.03101,-0.005 h 0.03617 q 0.04134,0 0.07751,0.0258 z"/>
      <path d="m 62.481234,158.20079 q -0.04651,0.0672 -0.05685,0.16537 -0.01033,0.0982 -0.02584,0.1912 -0.01033,0.093 -0.03101,0.18087 -0.0155,0.0827 -0.06718,0.14469 0.05168,0.062 0.05168,0.11886 0,0.062 -0.0155,0.11368 -0.0155,0.0517 -0.02584,0.11369 v 0.0103 q 0,0.0517 0.04134,0.093 -0.02067,0.0207 -0.02067,0.0672 v 0.0362 q 0.0052,0.0207 0.0052,0.0413 0,0.0465 -0.02584,0.0775 v 0.27389 q 0,0.11885 -0.08268,0.22737 0.02584,0.0517 0.02584,0.11369 v 0.0517 q -0.02067,0.0827 -0.02067,0.1757 0,0.093 0.03101,0.16536 0.03617,0.0672 0.134359,0.093 0.09819,-0.0258 0.242879,-0.0413 h 0.03101 q 0.118856,0 0.201538,0.0879 0.03617,0.005 0.07752,0.005 0.180868,0 0.346232,-0.0724 0.149862,-0.062 0.320394,-0.062 h 0.103353 q 0.129191,-0.0827 0.279053,-0.0879 0.155029,-0.0103 0.299723,-0.062 0.02584,-0.0413 0.06201,-0.0465 0.04134,-0.005 0.08785,-0.0258 -0.03101,0.20154 -0.124024,0.39791 -0.09302,0.19637 -0.217041,0.34106 l 0.03101,0.0258 q -0.08268,0.0103 -0.1757,0.0103 -0.08268,0 -0.180867,-0.0103 -0.191203,-0.0207 -0.372071,-0.0258 v -0.0465 q -0.129191,0.0258 -0.279052,0.0258 h -0.294556 q -0.155029,0 -0.299723,0.0155 -0.139527,0.0103 -0.26355,0.0827 0.0052,0.0672 0.0052,0.12919 0,0.2067 -0.04134,0.40824 -0.02067,0.10336 -0.02067,0.19637 0,0.16537 0.05684,0.32556 0,0.18087 -0.02067,0.34624 -0.02067,0.16019 -0.02584,0.33073 -0.0052,0.0827 -0.0052,0.17053 0,0.0827 0.0052,0.16536 0.0052,0.16537 0.07235,0.34623 l 0.1757,0.19121 q -0.04134,0.10335 -0.124024,0.13952 -0.08268,0.0362 -0.206705,0.0362 -0.09819,0 -0.211874,-0.0155 -0.04651,-0.0103 -0.09302,-0.0103 -0.06201,0 -0.108521,0.0155 h -0.521932 q -0.263549,0 -0.470255,-0.0207 0.02067,-0.12919 0.118856,-0.25321 0.103352,-0.12403 0.103352,-0.26355 0.05168,-0.33073 0.05168,-0.66146 0,-0.1602 -0.01034,-0.32556 -0.02067,-0.22221 -0.02067,-0.44959 0,-0.27905 0.02584,-0.56327 -0.0052,-0.0207 -0.0052,-0.0413 0,-0.0207 0.0052,-0.0413 0.02067,-0.0362 0.04134,-0.0775 0.02067,-0.0413 0.02584,-0.0775 v -0.0103 q 0,-0.0258 -0.02584,-0.0672 -0.08785,-0.0207 -0.180867,-0.0207 -0.108521,0 -0.222209,0.031 -0.149861,0.0517 -0.320394,0.0517 h -0.09302 q -0.206706,0.062 -0.418579,0.1757 -0.211874,0.11369 -0.408244,0.16537 -0.0052,-0.0568 -0.0052,-0.11886 0,-0.14469 0.03101,-0.30489 0.04134,-0.22737 0.129191,-0.41341 0.04134,-0.0207 0.08268,-0.0207 0.04134,0 0.07235,0.0155 0.07235,0.0362 0.134359,0.062 0.103353,0.005 0.211874,0.005 0.191202,0 0.366902,-0.0207 0.09819,-0.0155 0.206706,-0.0155 0.170532,0 0.356567,0.031 0.03617,-0.24805 0.03617,-0.5116 0,-0.12919 -0.01033,-0.26872 -0.0052,-0.0879 -0.0052,-0.1757 0,-0.29972 0.06718,-0.58911 v -0.11369 q 0,-0.19637 -0.02067,-0.40824 -0.03101,-0.26355 -0.227377,-0.43408 0.304891,-0.093 0.609782,-0.093 0.09819,0 0.201538,0.0103 0.403076,0.0413 0.837159,0.0724 z"/>
  </g>
</svg>
