<svg xmlns="http://www.w3.org/2000/svg" width="30.644123mm" height="14.665771mm" viewBox="0 0 30.644124 14.665772">
  <g transform="translate(-23.455193,-154.19587)">
      <path d="m 26.974358,158.65038 q 0.08785,0.24287 0.149862,0.48059 0.113688,0.42891 0.149861,0.82165 0.0155,0.17053 0.0155,0.3359 0,0.47542 -0.134358,0.88367 -0.06718,0.36173 -0.113689,0.47542 -0.07235,0.26872 -0.07235,0.48576 -0.310058,0.57877 -0.785481,1.27124 -0.454753,0.66146 -0.96635,1.07487 h -0.113688 q -0.01033,-0.0517 -0.08268,-0.0827 -0.0155,0.0207 -0.05684,0.0207 -0.02067,-0.0103 -0.06201,-0.0103 0,-0.031 -0.01033,-0.062 -0.0155,-0.0724 -0.09819,-0.13436 -0.113688,-0.093 -0.180868,-0.22738 -0.129191,-0.0207 -0.160197,-0.093 -0.04651,-0.062 -0.07235,-0.1447 -0.04651,-0.10335 -0.06718,-0.14469 -0.02584,-0.0517 -0.124023,-0.10336 -0.04134,-0.15502 -0.170533,-0.48575 -0.10852,-0.24805 -0.222208,-0.48576 -0.129191,-0.33073 -0.186036,-0.4961 l -0.03101,-0.11368 q -0.04651,-0.18087 -0.07751,-0.37207 -0.04651,-0.33073 -0.04651,-0.64596 0,-0.65112 0.211874,-1.20406 0.335896,-0.83716 0.950846,-1.47795 0.01033,0.031 0.02067,0.0569 0.0052,0.0258 0.0052,0.0517 0,0.0258 -0.0052,0.0465 -0.02584,0.0724 -0.07235,0.11369 -0.05684,0.031 -0.103352,0.093 -0.03617,0.0362 -0.03617,0.11369 v 0.0207 q -0.315226,0.54777 -0.377238,1.12654 -0.03617,0.23255 -0.03617,0.48059 0,0.37207 0.07751,0.79065 0.03101,0.15503 0.06718,0.30489 0.134358,0.50127 0.377238,1.00769 0.299723,0.63046 0.780314,1.21957 0.129191,0.1757 0.222208,0.1757 0.09302,0 0.160197,-0.093 l 0.129191,-0.1757 q 0.06201,-0.11369 0.144694,-0.12402 0.33073,-0.5271 0.511597,-1.08521 0.217041,-0.62011 0.335897,-1.18856 -0.07235,-0.25838 -0.07235,-0.49609 0,-0.15503 -0.02584,-0.48576 -0.02067,-0.25838 -0.07751,-0.48576 -0.06718,-0.24804 -0.237712,-0.48575 0,-0.0413 -0.0052,-0.0724 -0.0155,-0.0517 -0.04651,-0.0827 -0.01033,-0.0103 -0.04134,-0.0517 -0.03101,-0.0413 -0.04651,-0.0517 -0.03617,-0.0517 -0.07235,-0.11368 l -0.0052,-0.0207 q -0.0052,-0.0258 -0.0052,-0.0672 0,-0.0362 0.0052,-0.0878 0.113689,-0.15503 0.170533,-0.25839 0.08268,-0.14469 0.186035,-0.21704 h 0.04134 q 0.08268,0 0.144694,0.031 0.05168,0.0413 0.09302,0.12402 0.03101,0.062 0.06201,0.1757 0.04651,0.11369 0.08785,0.1447 z"/>
      <path d="m 30.85009,154.29922 v 0.0155 q 0,0.0982 -0.134358,0.12919 -0.134359,0.031 -0.139527,0.13436 l -0.279053,0.18604 q -0.03617,-0.005 -0.07235,-0.005 -0.175699,0 -0.299723,0.0982 -0.129191,0.0827 -0.258382,0.25838 -0.113688,0.15503 -0.191203,0.34106 -0.124023,0.22738 -0.201538,0.3204 -0.299723,1.00252 -0.397908,2.18074 -0.03101,0.50643 -0.03101,1.00252 0,0.6718 0.05684,1.33326 0.01033,0.42374 0.01033,0.8785 0.0052,0.40307 0.04134,0.89917 0.1757,-0.42375 0.511597,-1.0232 0.325561,-0.5581 0.682129,-0.98185 0.387573,-0.47542 0.847493,-0.84749 0.490926,-0.39274 1.007691,-0.63046 0.09819,-0.0207 0.155029,-0.0413 0.03101,0 0.08785,-0.0155 0.05684,-0.0155 0.09819,-0.0258 0.04134,-0.0103 0.07751,-0.0103 0.06201,0 0.10852,0.0207 0.06718,0.0103 0.15503,0.0827 0.139526,0.24805 0.191202,0.39274 0.05684,0.16536 0.08785,0.27905 0.0155,0.0568 0.02584,0.10336 0.03617,0.13435 0.07751,0.3824 0.01033,0.10335 0.04651,0.23771 0.02067,0.0879 0.05684,0.18604 0,0.11369 0.03101,0.22737 0.02584,0.16537 0.04134,0.25839 l -0.02067,0.84749 q 0,0.32039 -0.05684,0.83716 -0.06718,0.41341 -0.232544,0.76481 -0.160197,0.3514 -0.496093,0.65112 -0.232544,0.20671 -0.444418,0.4961 -0.180867,0.25838 -0.516764,0.46508 -0.06201,0.15503 -0.289388,0.22738 -0.248047,0.0724 -0.423747,0.0724 -0.242879,-0.12403 -0.501261,-0.33073 -0.227376,-0.18604 -0.330729,-0.41341 -0.05168,-0.11369 -0.07752,-0.22221 -0.04651,-0.16537 -0.04651,-0.32556 v -0.031 q 0.03101,-0.23771 0.144694,-0.46509 0.103353,-0.19637 0.26355,-0.41341 0.186035,-0.25838 0.258382,-0.3824 0.160197,-0.0827 0.227377,-0.1447 0.139526,-0.10335 0.222208,-0.14469 0.113688,-0.0413 0.242879,-0.062 0.124024,0 0.310059,0.0827 0.02067,-0.005 0.04134,-0.005 0.08268,0 0.129191,0.0672 0.06201,0.0724 0.160197,0.093 0.01034,0.0362 0.01034,0.062 0,0.0672 -0.05168,0.10335 -0.02584,0.0103 -0.07235,0.0362 -0.04134,0.0258 -0.06201,0.0362 -0.09302,0.0413 -0.134358,0.0827 -0.03617,0.0413 -0.03617,0.12402 -0.06718,0.0879 -0.144694,0.0879 -0.02067,0 -0.04134,-0.005 -0.155029,-0.0517 -0.217041,-0.0827 -0.144694,-0.0723 -0.227376,-0.0827 -0.02584,-0.0103 -0.05684,-0.0103 -0.07235,0 -0.160197,0.062 -0.04651,0.2067 -0.07752,0.58911 -0.0052,0.0362 -0.0052,0.0724 0,0.0879 0.02584,0.1757 0.04651,0.18086 0.19637,0.37207 0.113688,0.14469 0.289388,0.26871 0.149862,0.093 0.315226,0.25839 0.1757,-0.0827 0.325562,-0.20671 0.155029,-0.12402 0.268717,-0.27905 h 0.08268 q 0.242879,-0.24805 0.361735,-0.57878 0.129191,-0.33073 0.165364,-0.66146 0.02067,-0.24804 0.02067,-0.46508 0,-0.12403 -0.0052,-0.23772 -0.02584,-0.37207 -0.03101,-0.74414 0.0052,-0.0517 0.0052,-0.10335 0,-0.15503 -0.03617,-0.31006 -0.02067,-0.16019 -0.02067,-0.30489 0,-0.0568 0.0052,-0.10852 -0.10852,-0.16536 -0.160197,-0.36173 -0.0155,-0.062 -0.04651,-0.19121 -0.02584,-0.12919 -0.03617,-0.1912 -0.01033,-0.0827 -0.03101,-0.15503 -0.02584,-0.10335 -0.06718,-0.18603 -0.05168,-0.15503 -0.268717,-0.29973 -0.366903,0.0207 -0.640788,0.18604 -0.242879,0.13436 -0.511597,0.40307 -0.222209,0.24805 -0.392741,0.53744 -0.206705,0.32039 -0.320394,0.57878 -0.258382,0.36173 -0.413411,0.82682 -0.149862,0.46509 -0.258382,0.8785 -0.149862,0.59944 -0.248047,0.88883 -0.149862,0.43408 -0.403076,0.80615 -0.222209,0.20671 -0.418579,0.44442 -0.211874,0.24805 -0.465088,0.38241 0.155029,-0.15503 0.227376,-0.42375 0.07751,-0.28939 0.09302,-0.5271 0.02584,-0.18603 0.04651,-0.5581 0.02067,-0.27906 0.108521,-0.5271 -0.0155,-0.1602 -0.0155,-0.32557 0,-0.16536 0.0155,-0.33589 0.01033,-0.10336 0.01033,-0.21188 0,-0.21187 -0.04134,-0.43925 0.03101,-0.0723 0.03101,-0.19637 -0.02067,-0.14469 -0.03617,-0.21704 -0.02067,-0.14469 -0.03101,-0.22737 -0.0052,-0.0258 -0.0052,-0.0569 0,-0.0723 0.03101,-0.14986 l -0.0155,-0.062 q -0.05168,-0.1912 -0.05168,-0.39274 -0.0052,-0.0362 -0.0052,-0.093 0,-0.11886 0.02584,-0.33073 0.02067,-0.2067 0.02067,-0.34106 0,-0.0517 -0.0052,-0.093 0,-0.19637 -0.05168,-0.38241 l -0.0155,-0.062 q 0.06201,-0.3514 0.06201,-0.69246 0.02067,-0.39274 0.124024,-0.66146 -0.02067,-0.11886 -0.02067,-0.23254 0,-0.13953 0.03101,-0.27389 0.04651,-0.24805 0.124023,-0.45475 0.08785,-0.25838 0.1757,-0.43408 0.103353,-0.26872 0.124024,-0.45476 l 0.563273,-0.68213 q 0.268717,-0.33072 0.609782,-0.60978 -0.02067,-0.031 -0.02584,-0.0517 v -0.0207 q 0.0052,-0.0155 0.02584,-0.0155 0.01034,0 0.03101,0.005 0.03617,0.0103 0.06718,0.0103 0.04134,0 0.06201,-0.0207 0.05684,-0.031 0.155029,-0.11369 0.09819,-0.093 0.1757,-0.12403 0.08785,-0.0517 0.160197,-0.0517 0.113688,0 0.253214,0.10335 z"/>
      <path d="m 35.087558,158.423 q 0.144694,0.10335 0.237711,0.19637 0.139527,0.12402 0.222209,0.20671 0.160197,0.12402 0.232544,0.16536 0.07751,0.0413 0.155029,0.0413 0.03617,0 0.06718,-0.0103 0.160197,-0.10336 0.366902,-0.25839 0.129191,-0.10335 0.372071,-0.23771 0.165364,-0.10335 0.423746,-0.18603 0.248047,-0.0827 0.485759,-0.0827 0.310058,0.15503 0.56844,0.39275 0.237712,0.23771 0.428915,0.5271 0.19637,0.29972 0.304891,0.59944 0.09818,0.25322 0.155029,0.47026 0.02067,0.0723 0.03101,0.13952 0.07751,0.44959 0.07751,0.87334 0,0.56844 -0.139527,1.1007 -0.242879,0.94051 -0.91984,1.5813 -0.06201,0.10335 -0.149862,0.13436 l -0.191203,0.093 -0.186035,0.10335 q -0.103353,0.0517 -0.165364,0.15503 -0.170533,0.0207 -0.346233,0.062 -0.05684,0.0103 -0.113688,0.0103 -0.139526,0 -0.294555,-0.0724 -0.0155,-0.031 -0.02584,-0.062 -0.01033,-0.0413 -0.01033,-0.0724 0,-0.0568 0.02584,-0.093 0.02584,-0.093 0.108521,-0.1757 l 0.170532,-0.16536 q 0.07751,-0.093 0.103353,-0.23771 0.06718,0.0207 0.191203,0.10335 0.08268,0.0827 0.186035,0.1447 0.06201,0.0517 0.160197,0.0723 h 0.0155 q 0.07751,0 0.139526,-0.0827 0.06201,-0.0724 0.144694,-0.11369 0.06201,-0.0413 0.170532,-0.10335 0.07235,-0.031 0.129191,-0.10335 0.03617,-0.0413 0.09302,-0.1447 0.07235,0 0.07235,-0.031 0.01033,-0.0413 0.01033,-0.0517 l -0.02584,-0.093 q -0.0052,-0.0207 -0.0052,-0.0568 v -0.0362 q 0.02584,-0.062 0.06718,-0.10335 l 0.07235,-0.10335 q 0.04651,-0.062 0.05684,-0.13436 0.01033,-0.0103 0.01033,-0.031 0,-0.0155 -0.0052,-0.031 -0.01034,-0.0465 -0.06201,-0.11369 0.07235,-0.0724 0.07235,-0.14986 v -0.0155 q 0.0052,-0.062 0.0052,-0.10852 0,-0.0465 -0.0052,-0.0775 -0.0052,-0.0517 -0.0052,-0.20671 0.0052,-0.062 0.05684,-0.18603 -0.01033,-0.0413 -0.06718,-0.33073 -0.05684,-0.28939 -0.07752,-0.44442 -0.04134,-0.2067 -0.09302,-0.40307 -0.05684,-0.19637 -0.118856,-0.38241 -0.134359,-0.3824 -0.3514,-0.72347 -0.222208,-0.33073 -0.625285,-0.59945 -0.124023,-0.0723 -0.227376,-0.0723 -0.103353,0 -0.186035,0.031 -0.113688,0.0413 -0.180868,0.062 -0.06718,0.0207 -0.211873,0.0207 -0.06718,0.093 -0.186035,0.15503 -0.129191,0.0517 -0.149862,0.2067 0.284221,0.36174 0.382406,0.69247 0.04134,0.11368 0.07751,0.24287 0.05685,0.21188 0.08785,0.44959 0.04134,0.29972 0.04134,0.5426 0,0.0724 -0.0052,0.13953 l -0.0052,0.67179 q -0.0155,0.0517 -0.08785,0.1757 -0.02584,0.0465 -0.02584,0.11369 0,0.0517 0.0155,0.11369 -0.124023,0.12402 -0.19637,0.26872 -0.08268,0.12402 -0.108521,0.33072 l -0.366903,0.48576 q -0.19637,0.26872 -0.403076,0.45476 -0.222208,0.21704 -0.490926,0.37207 -0.294555,0.1757 -0.589111,0.22737 -0.211873,-0.24804 -0.346232,-0.5271 -0.144694,-0.31006 -0.232544,-0.63045 -0.08268,-0.29972 -0.118856,-0.64079 -0.01033,-0.11369 -0.01033,-0.22221 0,-0.18086 0.03101,-0.34623 0,-0.42375 0.139526,-0.75447 0.134359,-0.34107 0.3514,-0.65113 0.19637,-0.31006 0.454752,-0.57877 l 0.485759,-0.51677 q -0.08785,-0.19637 -0.279053,-0.37207 -0.134359,-0.11369 -0.413411,-0.32039 l -0.573609,-0.19637 q -0.02067,-0.0879 -0.02067,-0.16537 0,-0.11369 0.05168,-0.19637 0.03101,0.0103 0.06718,0.0103 0.05168,0 0.103353,-0.0207 0.06718,-0.062 0.09819,-0.10336 0.05168,-0.0723 0.07235,-0.11368 0.03617,-0.0517 0.09819,-0.0517 0.03617,-0.0207 0.08785,-0.0207 0.03101,0 0.06718,0.0103 0.08268,0.0103 0.180868,0.062 0.144694,0.0723 0.165364,0.0827 0.06718,0.0207 0.118856,0.0207 z m 0.258382,1.52962 -0.470256,0.59945 q -0.237711,0.32039 -0.325561,0.68213 -0.134359,0.43925 -0.134359,0.94051 0,0.17053 0.0155,0.3514 0.02067,0.21704 0.07751,0.42891 0.129191,0.47543 0.439249,0.92501 0.15503,0.031 0.279053,0.031 0.206706,0 0.330729,-0.0827 0.196371,-0.14469 0.289388,-0.37207 0.103353,-0.26871 0.149862,-0.51676 0.05684,-0.25838 0.149862,-0.48576 0,-0.12402 -0.07752,-0.75448 -0.04134,-0.27905 -0.06201,-0.74414 -0.02584,-0.0413 -0.06201,-0.13435 -0.03101,-0.093 -0.05684,-0.1447 -0.07235,-0.18603 -0.118855,-0.28939 -0.04651,-0.13436 -0.160197,-0.24804 -0.09302,-0.11369 -0.26355,-0.18604 z"/>
      <path d="m 42.756341,158.88809 q 0.191202,0.28939 0.28422,0.58911 0.07752,0.28939 0.118856,0.56844 0.03617,0.19637 0.05168,0.56844 0.0052,0.20671 0.05168,0.62012 l -0.237712,0.80615 q -0.07751,0.25838 -0.206706,0.81649 -0.273885,0.47542 -0.37207,0.62011 -0.19637,0.34107 -0.465088,0.57878 -0.242879,0.23771 -0.599446,0.38241 -0.237712,0.093 -0.516765,0.093 -0.129191,0 -0.268717,-0.0207 -0.284221,-0.10335 -0.490926,-0.32039 -0.165365,-0.15503 -0.377238,-0.48576 0.01033,-0.16536 0.05168,-0.31006 0.05684,-0.16536 0.186035,-0.22737 0.06718,-0.093 0.118856,-0.21705 0.04651,-0.14469 0.191203,-0.1757 -0.02584,0.0465 -0.02584,0.10336 0,0.0465 0.0155,0.093 l 0.01033,0.031 q 0.07235,0.20671 0.08785,0.24805 0.129191,0.1757 0.392741,0.36173 0.263549,0.16537 0.516764,0.22738 0.08268,-0.0103 0.253215,-0.0258 0.170532,-0.0155 0.248046,-0.0258 0.253215,-0.031 0.377238,-0.22737 0.160197,-0.19637 0.217041,-0.38241 0.07751,-0.1757 0.113688,-0.42375 0.02067,-0.14469 0.08785,-0.43408 0.04651,-0.18603 0.144694,-0.42374 0.01034,-0.093 0.01034,-0.19121 0,-0.23254 -0.05168,-0.48059 -0.07751,-0.3514 -0.07751,-0.67179 0.02067,0 0.05684,0.062 0.02584,0.0517 0.07751,0.0517 h 0.02067 q -0.165365,-0.31006 -0.320394,-0.57878 -0.160197,-0.27905 -0.315226,-0.58911 -0.160197,-0.10335 -0.299723,-0.27905 -0.124024,-0.1757 -0.356568,-0.23772 -0.139526,-0.062 -0.242879,-0.062 -0.04651,0 -0.08785,0.0103 -0.134359,0.0413 -0.268717,0.15503 -0.149862,0.14469 -0.222209,0.22737 -0.08268,0.11369 -0.248047,0.18604 v -0.0155 q 0,-0.24805 0.191203,-0.5116 0.186035,-0.25838 0.428914,-0.3514 0.191203,-0.1757 0.454753,-0.32039 0.124023,-0.0672 0.268717,-0.0672 0.139527,0 0.299724,0.0672 0.232543,0.062 0.39274,0.23771 0.108521,0.12402 0.33073,0.3514 z"/>
      <path d="m 47.159173,155.0537 q -0.04651,0.062 -0.124024,0.093 -0.09302,0.031 -0.144694,0.0724 l -0.124023,0.0724 q -0.05684,0.0362 -0.05684,0.12919 v 0.0155 q -0.144694,0.031 -0.289388,0.031 h -0.04134 q -0.09302,0 -0.237711,-0.031 -0.387573,0.20671 -0.682129,0.5271 -0.310059,0.3514 -0.454753,0.73381 -0.03617,0.18603 -0.129191,0.45475 -0.08785,0.24805 -0.134358,0.41341 -0.118856,0.36174 -0.129191,0.79582 -0.02584,0.43408 -0.09819,0.79581 -0.07235,0.29973 -0.09302,0.62012 v 0.59945 l 0.03617,0.60978 q 0.01034,0.19637 0.02584,0.63045 l 0.134359,1.2299 q 0.02584,0.29456 0.108521,0.60462 0.08268,0.31522 0.227376,0.64595 0.06201,0.12402 0.129191,0.1757 0.08268,0.0517 0.155029,0.0517 0.04134,0.0103 0.08268,0.0103 0.03617,0 0.07235,-0.0103 0.113688,0 0.180867,0.0103 0.191203,-0.12402 0.366903,-0.1757 0.186035,-0.0413 0.377238,-0.16536 h 0.155029 q 0.304891,-0.1757 0.454753,-0.27905 0.155029,-0.10336 0.449585,-0.33073 0.206705,-0.1757 0.346232,-0.40308 0.139526,-0.23771 0.155029,-0.53743 0.211873,-0.38241 0.211873,-0.86817 0,-0.10335 -0.01033,-0.21704 -0.03617,-0.39791 -0.144694,-0.79065 -0.06201,-0.24805 -0.155029,-0.49092 -0.180868,-0.25839 -0.273885,-0.40308 -0.139527,-0.20671 -0.341065,-0.42375 -0.170532,-0.1757 -0.418579,-0.33073 -0.232544,-0.13436 -0.45992,-0.13436 -0.139526,0.0517 -0.186035,0.1447 -0.06718,0.11369 -0.07751,0.22737 -0.0052,0.12403 -0.0052,0.20671 v 0.0724 q 0.02067,0.11369 0.02067,0.23254 v 0.0465 q 0.05168,0.19637 0.144694,0.34106 0.08785,0.1757 0.279053,0.31006 0.103353,0.0413 0.258382,0.12403 0.217041,0.11368 0.28422,0.13436 -0.01033,0.0723 -0.08268,0.10335 -0.06718,0.031 -0.139526,0.062 -0.103353,0.0724 -0.113688,0.0827 -0.04134,0.031 -0.04134,0.093 0,0.0207 0.0052,0.0413 -0.170532,0.062 -0.366903,0.062 h -0.04134 q -0.180867,0 -0.341064,-0.16536 -0.03101,0.005 -0.06201,0.005 -0.09819,0 -0.165365,-0.0775 -0.05168,-0.0724 -0.201538,-0.2067 -0.03101,-0.093 -0.05684,-0.18604 -0.06718,-0.24805 -0.06718,-0.50126 0,-0.0724 0.0052,-0.14986 0.04651,-0.40308 0.304891,-0.71314 l 0.485758,-0.43408 q 0.232544,-0.20671 0.552938,-0.3514 0.191203,-0.031 0.377238,-0.031 h 0.03617 q 0.160197,0 0.356568,0.0827 0.356567,0.24804 0.583943,0.5271 0.26355,0.33073 0.408244,0.63045 0.139526,0.27388 0.211873,0.53743 0.0155,0.0672 0.03101,0.13436 0.08268,0.31006 0.08268,0.62529 v 0.0362 q 0.02067,0.11369 0.02067,0.24288 0,0.15503 -0.03101,0.32556 -0.03617,0.1757 -0.149861,0.5271 -0.08268,0.26872 -0.217041,0.50643 l -0.24288,0.48576 q -0.04134,0.10335 -0.134358,0.18603 l -0.196371,0.15503 q -0.06718,0.0517 -0.186035,0.15503 -0.08268,0.0724 -0.124023,0.19637 -0.232544,0.24805 -0.532268,0.44442 -0.263549,0.16536 -0.589111,0.31006 -0.19637,0.10335 -0.630452,0.26872 l -0.682129,0.22737 q -0.165365,0.031 -0.397909,0.093 -0.07235,0.0207 -0.149861,0.0207 -0.144694,0 -0.320394,-0.0724 0.03617,-0.0568 0.03617,-0.11885 0,-0.031 -0.01034,-0.0672 -0.02067,-0.0724 -0.07751,-0.19637 -0.05168,-0.12403 -0.06718,-0.18604 -0.01034,-0.0413 -0.01034,-0.0879 0,-0.0568 0.0155,-0.11885 -0.139527,-0.63046 -0.201538,-1.33325 l -0.103353,-1.35393 q 0.03101,-0.57877 0.03101,-0.99218 v -0.19638 q -0.0052,-0.0982 -0.0052,-0.19637 0,-0.47025 0.103353,-0.98185 0.0155,-0.24804 0.08268,-0.53743 0.04134,-0.22738 0.134359,-0.4961 l 0.155029,-0.47542 q 0.02067,-0.0827 0.124023,-0.5271 0.304891,-0.5271 0.563274,-0.84749 0.310058,-0.38241 0.702799,-0.65113 0.227376,-0.22737 0.470256,-0.39274 0.242879,-0.18603 0.56844,-0.27905 0.124024,0.031 0.237712,0.031 0.113688,0 0.206706,0.15503 z"/>
      <path d="m 54.099317,157.60651 q -0.0052,0.24805 -0.170532,0.47542 -0.149862,0.18604 -0.253215,0.44442 -0.10852,0.28939 -0.237712,0.51677 l -0.232543,0.50643 q -0.09819,0.24804 -0.170533,0.5271 -0.03617,0.15502 -0.03617,0.32556 0,0.14469 0.02584,0.29455 -0.0155,0.12919 -0.0155,0.27389 0,0.17053 0.02067,0.35656 0.03617,0.29973 0.05684,0.6718 -0.03617,0.24805 -0.03617,0.50126 0,0.28939 0.04651,0.58394 l 0.149862,1.13688 q 0.06718,0.5271 0.06718,0.98702 v 0.1602 q 0,0.50643 -0.237712,0.95085 0.0052,0.031 0.0052,0.062 0,0.14469 -0.06201,0.23771 -0.05168,0.0724 -0.124023,0.25838 -0.09302,0.12403 -0.273885,0.45476 -0.129191,0.27905 -0.273885,0.48575 -0.129191,0.20671 -0.335897,0.40308 -0.19637,0.18604 -0.465088,0.25838 -0.1757,0.0413 -0.346232,0.1447 -0.129191,0.0827 -0.346232,0.1757 -0.149862,0.062 -0.320394,0.062 h -0.05168 q -0.201538,-0.0103 -0.43925,-0.19637 l -0.258382,-0.16537 q 0.0052,-0.0103 0.03617,-0.0827 0.03617,-0.0724 0.06201,-0.12402 l 0.129191,-0.21704 q 0.06718,-0.093 0.1757,-0.15503 0.07235,-0.0465 0.160197,-0.0465 0.03101,0 0.06718,0.005 0.165365,0.16536 0.366903,0.21704 0.129191,0.0465 0.279053,0.0465 0.05168,0 0.103353,-0.005 0.201538,-0.0207 0.351399,-0.0724 l 0.320394,-0.11369 q 0.144694,-0.0517 0.242879,-0.1757 l 0.170533,-0.21704 q 0.08268,-0.11369 0.144694,-0.23771 0.04651,-0.093 0.170532,-0.23771 0.0052,-0.0362 0.0052,-0.0827 v -0.0672 q 0,-0.0672 0.07235,-0.0775 0.06201,-0.60978 0.118856,-1.29191 0.0052,-0.093 0.0052,-0.18603 0,-0.45992 -0.129191,-0.93535 -0.02584,-0.11368 -0.06201,-0.22221 0.05684,-0.10852 0.05684,-0.24804 0,-0.031 -0.0052,-0.062 -0.0155,-0.16537 -0.06201,-0.34107 -0.03101,-0.11369 -0.07235,-0.34106 -0.01034,-0.0569 -0.01034,-0.10852 0,-0.11369 0.04134,-0.21188 -0.03101,-0.0413 -0.04134,-0.0723 -0.0052,-0.0155 -0.0052,-0.0258 0,-0.0413 0.04134,-0.0775 -0.03101,-0.41341 -0.07235,-0.69246 -0.05684,-0.39274 -0.06718,-0.71314 0,-0.3824 0.04651,-0.68212 0.05168,-0.34107 0.227377,-0.59945 0.02067,-0.32039 0.201538,-0.59945 0.1757,-0.27905 0.253214,-0.60978 -0.05684,-0.093 -0.09819,-0.093 -0.01033,-0.005 -0.02067,-0.005 -0.03617,0 -0.07751,0.0258 -0.02584,0.0103 -0.09819,0.0517 -0.03617,0.0207 -0.118856,0.0207 -0.397909,0.24805 -0.7028,0.54777 -0.335896,0.33073 -0.558105,0.68213 -0.113688,0.32039 -0.253215,0.53743 l -0.289388,0.4961 q -0.09819,0.16536 -0.253214,0.51676 -0.09302,0.27906 -0.155029,0.58911 -0.232544,0.36174 -0.33073,0.75448 -0.06718,0.22738 -0.268717,0.78548 -0.124023,0.031 -0.155029,0.11369 -0.04651,0.12402 -0.06201,0.18603 -0.03617,0.093 -0.09819,0.13436 -0.02584,0.0207 -0.06718,0.0207 -0.06718,0 -0.170532,-0.0517 0.299724,-0.42375 0.45992,-0.8785 0.180868,-0.47026 0.180868,-0.91984 v -0.093 q 0.08785,-0.33073 0.08785,-0.68213 v -0.10335 q -0.0052,-0.0827 -0.0052,-0.1602 0,-0.32039 0.05168,-0.63562 -0.02067,-0.0827 -0.04134,-0.1757 -0.02067,-0.093 -0.04134,-0.20154 -0.0155,-0.10852 -0.03101,-0.17053 -0.04134,-0.26872 -0.118856,-0.54777 -0.07751,-0.28939 -0.180868,-0.56844 -0.103353,-0.26872 -0.325561,-0.54777 -0.01034,-0.031 -0.02067,-0.062 -0.01033,-0.0517 -0.01033,-0.093 0,-0.0568 0.0155,-0.10335 0.02584,-0.10335 0.118856,-0.20671 0.04134,-0.0413 0.180867,-0.1757 0.09819,-0.062 0.165365,-0.15503 0.201538,0.21704 0.299723,0.4961 0.04651,0.13436 0.180867,0.51676 0,0.0775 0.01034,0.12919 l 0.01034,0.0362 q 0.0155,0.0517 0.05684,0.13435 0.05168,0.0724 0.07235,0.1447 0.01033,0.0207 0.0155,0.0413 0.0052,0.0258 0.0052,0.0465 0,0.0362 -0.01034,0.0672 0.0155,0.25838 0.06201,0.43408 0.03101,0.10335 0.03101,0.19637 0,0.0982 -0.03101,0.18604 0.0052,0.093 0.02584,0.17053 l 0.0155,0.0672 q 0.0052,0.0258 0.0052,0.0517 0,0.062 -0.04134,0.11369 0.0155,0.0465 0.03101,0.0879 0.01034,0.0413 0.0155,0.0775 -0.0052,0.0207 -0.01034,0.0672 -0.0052,0.0465 -0.0052,0.0672 -0.0052,0.0362 -0.0052,0.0827 v 0.093 q 0.01033,0.0413 0.06201,0.0827 0.28422,-0.55811 0.666626,-1.17823 0.387573,-0.59944 0.816487,-1.04386 0.253215,-0.20671 0.630453,-0.53743 0.315226,-0.28939 0.676961,-0.48576 v -0.0207 q 0,-0.0568 0.05684,-0.0724 0.01034,0 0.103353,-0.031 0.02067,0 0.06718,-0.005 0.04651,-0.005 0.06718,-0.005 0.05684,-0.0103 0.08268,-0.0724 z"/>
  </g>
</svg>
