<svg xmlns="http://www.w3.org/2000/svg" width="34.569962mm" height="8.8370829mm" viewBox="0 0 34.569962 8.8370829">
  <g transform="translate(-24.037773,-156.29004)">
      <path d="m 26.567189,159.40154 q 0,-1.49225 -0.02117,-1.75683 -0.01058,-0.26458 -0.116417,-0.26458 -0.105833,0 -0.127,0.27516 -0.01058,0.26459 -0.01058,1.79917 v 2.06375 l -0.28575,0.254 q -0.232834,0.20108 -0.232834,0.30692 0,0.10583 0.254,0.10583 0.201084,0 0.201084,0.0741 0,0.0529 0.22225,0.0529 0.28575,0 0.656166,-0.0741 0.381,-0.0741 0.433917,-0.14817 0.02117,-0.0212 0.02117,-0.10583 0,-0.21167 -0.169334,-0.51859 -0.105833,-0.1905 -0.1905,-0.51858 -0.08467,-0.32808 -0.08467,-0.55033 0,-0.16934 0.07408,-0.42334 0.07408,-0.254 0.127,-0.254 0.03175,0 0.179917,-0.10583 0.07408,-0.0529 0.07408,-0.0635 0,-0.0318 -0.264583,-0.0423 h -0.328084 v 0.86783 q 0,0.60325 -0.02117,0.74083 -0.02117,0.13759 -0.116417,0.15875 -0.137583,0.0423 -0.137583,0.0952 0,0.0635 -0.07408,0.0635 -0.0635,0 -0.0635,-2.032 z m -1.513416,-2.91041 q 0.211666,-0.20109 0.486833,-0.20109 0.179917,0 0.328083,0.10584 0.137584,0.0847 0.5715,0.24341 0.41275,0.127 0.486834,0.22225 0.04233,0.0741 0.359833,0.0741 0.497416,0 0.635,-0.11642 0.116416,-0.10583 0.15875,-0.10583 0.03175,0 0.03175,0.0317 0,0.0635 -0.07408,0.21166 -0.0635,0.14817 -0.08467,0.14817 -0.04233,0 -0.3175,0.254 -0.232833,0.22225 -0.41275,0.22225 h -0.03175 q -0.02117,0 -0.05292,0 -0.02117,-0.0106 -0.03175,-0.0106 -0.0635,0 -0.08467,0.0847 -0.01058,0.0741 -0.03175,0.41275 v 0.20109 q 0,0.32808 0.15875,0.49741 0.169333,0.1905 0.275166,0.1905 0.08467,0 0.127,0.0847 0.02117,0.0847 0.306917,0.0847 h 0.0635 0.34925 q -0.08467,0.0741 -0.254,0.23283 -0.15875,0.14817 -0.232834,0.23283 l 0.03175,0.65617 q 0.03175,0.66675 0.116417,0.68792 0.07408,0.0212 0.07408,0.35983 0,0.5715 -0.455083,0.92075 -0.179916,0.127 -0.306916,0.254 -0.148167,0.127 -0.201084,0.127 -0.05292,0 -0.127,0.11642 -0.05292,0.11641 -0.582083,0.11641 h -0.264583 q -0.783167,-0.0212 -0.79375,-0.0953 -0.02117,-0.0741 -0.116417,-0.0741 -0.137583,0 -0.465667,-0.1905 -0.3175,-0.20108 -0.34925,-0.30692 -0.04233,-0.13758 -0.04233,-0.33866 0,-0.29634 0.105833,-0.55034 0.105834,-0.254 0.264584,-0.33866 0.137583,-0.0847 0.232833,-0.1905 0.03175,-0.0318 0.04233,-0.0318 0.01058,0 0.01058,0.0423 0,0.0106 -0.02117,0.24342 -0.02117,0.254 -0.02117,0.32808 0,0.46567 0.296334,0.60325 0.105833,0.0635 0.1905,0.0635 0.137583,0 0.137583,-0.29633 0,-0.17992 0.07408,-0.254 0.07408,-0.0741 0.116417,-0.73025 0.01058,-0.15875 0.01058,-0.381 0,-0.27517 -0.08467,-0.27517 -0.09525,0 -0.1905,-0.14817 -0.09525,-0.127 -0.338667,-0.1905 l -0.243417,-0.0423 0.232834,-0.11642 q 0.232833,-0.11641 0.433916,-0.11641 0.211667,0 0.211667,-0.127 0,-0.127 -0.22225,-0.17992 -0.105833,-0.0317 -0.1905,-0.0741 -0.08467,-0.0529 -0.169333,-0.0741 -0.08467,-0.0317 -0.275167,-0.0317 h -0.34925 l 0.169333,-0.13758 q 0.34925,-0.3175 0.740834,-0.3175 0.02117,0 0.04233,0.0106 0.02117,0 0.04233,0 0.105834,0.0212 0.116417,0.0212 0.07408,0 0.07408,-0.24342 0,-0.28575 -0.09525,-0.35983 -0.105833,-0.10583 -0.105833,-0.27517 0,-0.28575 -0.09525,-0.41275 -0.09525,-0.127 -0.338667,-0.16933 -0.0635,-0.0106 -0.179916,-0.0106 -0.211667,0 -0.370417,0.0741 -0.179917,0.0741 -0.22225,0.127 -0.03175,0.0529 -0.03175,0.254 0,0.28575 0.137583,0.32808 0.137584,0.0423 0.137584,0.10584 0,0.0529 0.22225,0.0318 0.211666,-0.0106 0.306916,-0.1905 l 0.08467,-0.16934 v 0.16934 q 0,0.13758 -0.127,0.22225 -0.127,0.0741 -0.3175,0.0741 -0.328083,0 -0.560917,-0.20108 -0.148166,-0.127 -0.148166,-0.26459 0,-0.1905 0.264583,-0.45508 0.275167,-0.27517 0.275167,-0.32808 0,-0.0529 0.127,-0.0953 0.105833,-0.0529 0.34925,-0.254 z"/>
      <path d="m 31.19872,159.21104 q -0.179916,-0.21166 -0.34925,-0.21166 -0.105833,0 -0.127,0.0741 -0.02117,0.0741 -0.02117,0.45508 v 0.23284 0.24341 q 0,0.32809 0.01058,0.41275 0.01058,0.0741 0.0635,0.0741 0.04233,0 0.07408,-0.0106 0.169334,-0.0423 0.34925,-0.0423 h 0.179917 v -0.508 q 0,-0.33867 -0.03175,-0.45508 -0.03175,-0.11642 -0.148167,-0.26459 z m -0.941916,3.54542 q -0.04233,0 -0.15875,-0.13758 -0.116417,-0.13759 -0.179917,-0.13759 -0.0635,0 -0.116416,-0.11641 -0.05292,-0.127 -0.105834,-0.127 -0.03175,0 -0.04233,0.0106 -0.09525,0.0423 -0.148167,-0.0317 -0.04233,-0.0741 0.03175,-0.0741 0.08467,0 0.423334,-0.16934 0.296333,-0.13758 0.433916,-0.13758 0.05292,0 0.07408,0.0106 0.127,0.0317 0.243417,0.21167 0.127,0.16933 0.127,0.3175 0,0.10583 0.09525,0.10583 0.105833,0 0.105833,0.10584 0,0.0952 0.0635,0.0952 0.07408,0 0.07408,-0.26459 0,-0.26458 0.09525,-0.30691 0.105833,-0.0423 0.105833,-0.49742 0,-0.42333 -0.09525,-0.56092 -0.08467,-0.13758 -0.402167,-0.13758 -0.169333,0 -0.264583,0.0106 -0.497416,0.0423 -0.518583,0.11642 -0.02117,0.0741 -0.15875,0.0741 -0.08467,0 -0.105833,-0.0741 -0.02117,-0.0741 -0.02117,-0.37042 0,-0.42333 0.105833,-0.60325 0.07408,-0.11641 0.07408,-0.14816 0,-0.0317 -0.07408,-0.0952 -0.105833,-0.10584 -0.105833,-0.3175 0,-0.21167 -0.07408,-0.26459 -0.105834,-0.0635 0,-0.13758 0.0635,-0.0317 0.148166,-0.0317 0.127,0 0.243417,-0.13758 0.127,-0.14817 0.338666,-0.17992 0.243417,-0.0423 0.275167,-0.0952 0.04233,-0.0635 0.148167,-0.0635 0.116416,0 0.211666,-0.16933 0.09525,-0.17992 0.3175,-0.17992 0.09525,0 0.09525,0.0741 0,0.0635 0.08467,0.0635 0.09525,0 0.15875,0.15875 0.07408,0.14817 0.22225,0.22225 0.148167,0.0741 0.148167,0.29634 0,0.22225 -0.105834,0.254 -0.09525,0.0318 -0.09525,0.60325 v 0.55033 l 0.232834,0.14817 q 0.243416,0.15875 0.306916,0.15875 0.09525,0 0.116417,-0.20109 0.02117,-0.21166 0.02117,-0.889 0,-1.09008 0.07408,-1.09008 0.0635,0 0.169333,-0.10583 0.127,-0.10584 0.243417,-0.10584 0.127,0 0.127,-0.0635 0,-0.0635 0.169333,-0.0635 0.08467,0 0.116417,0.0317 0.03175,0.0212 0.03175,0.11642 0,0.0212 -0.02117,0.27517 -0.05292,0.43391 -0.127,0.47625 -0.105833,0.0741 -0.105833,0.762 0,0.78316 0.137583,0.78316 0.04233,0 0.127,-0.11641 0.09525,-0.14817 0.211667,-0.14817 0.07408,0 0.07408,0.0953 0,0.10583 -0.09525,0.10583 -0.07408,0 -0.137583,0.10584 -0.04233,0.0952 -0.179917,0.0952 -0.09525,0 -0.116416,0.127 -0.02117,0.127 -0.02117,0.75141 0,0.74084 -0.07408,0.98425 -0.0635,0.23284 -0.296334,0.3175 -0.15875,0.0635 -0.243416,0.0635 -0.116417,0 -0.116417,-0.30691 0,-0.0635 0.02117,-0.59267 l 0.05292,-0.92075 -0.296333,-0.0212 q -0.1905,-0.0212 -0.254,-0.0212 -0.03175,0 -0.0635,0 l -0.03175,0.0106 q -0.04233,0.0106 -0.0635,0.51858 -0.01058,0.48684 -0.0635,0.66675 -0.05292,0.16934 -0.1905,0.1905 -0.148167,0.0212 -0.232833,0.1905 -0.08467,0.15875 -0.3175,0.27517 -0.201084,0.0952 -0.296334,0.1905 -0.05292,0.0635 -0.09525,0 -0.03175,-0.0423 -0.179916,-0.11642 -0.09525,-0.0318 -0.15875,-0.22225 -0.04233,-0.16933 -0.127,-0.16933 z"/>
      <path d="m 37.3311,157.20021 q 0.338667,-0.23283 0.433917,-0.23283 0.05292,0 0.05292,0.0741 0,0.0212 -0.02117,0.10583 -0.0635,0.20109 -0.09525,0.22225 -0.04233,0.0317 -0.08467,0.74084 l -0.03175,0.70908 0.41275,-0.0423 q 0.232833,-0.0212 0.243417,-0.0212 0.07408,0 0.07408,0.0106 0,0.0212 -0.04233,0.0318 -0.15875,0.0635 -0.15875,0.13759 0,0.0635 -0.105834,0.0635 -0.09525,0 -0.137583,0.0952 -0.04233,0.10583 -0.169333,0.13758 -0.08467,0.0212 -0.116417,0.13758 -0.02117,0.11642 -0.02117,0.55034 v 0.67733 l 0.275167,-0.0423 q 0.05292,-0.0106 0.137583,-0.0106 0.127,0 0.127,0.0423 0,0.0423 -0.15875,0.0847 -0.381,0.0952 -0.381,0.4445 0,0.21167 -0.0635,0.24342 -0.0635,0.0423 -0.0635,0.53975 0,0.34925 0.03175,0.45508 0.03175,0.10584 0.169334,0.24342 l 0.201083,0.20108 -0.359833,0.254 q -0.338667,0.23284 -0.47625,0.23284 -0.127,0 -0.22225,-0.1905 -0.105834,-0.20109 -0.211667,-0.20109 -0.09525,0 0.02117,-0.16933 0.01058,-0.0212 0.03175,-0.0423 0.105833,-0.13759 0.127,-0.29634 0.02117,-0.15875 0.03175,-0.67733 v -0.762 l -0.179917,-0.0212 q -0.179917,-0.0212 -0.179917,-0.0741 0,-0.0529 0.1905,-0.15875 l 0.211667,-0.11642 v -1.30175 h -0.338667 q -0.232833,0 -0.28575,0.0317 -0.05292,0.0318 -0.08467,0.17992 -0.04233,0.23283 -0.04233,1.79917 0,1.32291 -0.04233,1.80975 -0.03175,0.47625 -0.137583,0.47625 -0.09525,0 -0.09525,0.0847 0,0.0847 -0.09525,0.27517 -0.05292,0.0952 -0.0635,0.127 -0.01058,0.0317 0.02117,0.0423 0.03175,0.0106 0.127,-0.0212 0.232834,-0.0741 0.306917,-0.10584 0.02117,-0.0106 0.105833,-0.0106 0.243417,0 0.687917,0.0847 0.4445,0.0952 0.486833,0.15875 0.07408,0.0741 0.359834,0.0952 l 0.3175,0.0423 -0.22225,0.10583 q -0.22225,0.0952 -0.3175,0.1905 -0.08467,0.0847 -0.338667,0.0847 -0.296333,0 -0.60325,-0.10583 -0.381,-0.127 -0.889,-0.127 -0.381,0 -0.41275,0.0847 -0.04233,0.10584 -0.169333,0.0847 -0.05292,0 -0.05292,-0.0423 0,-0.0318 0.137583,-0.21167 0.137584,-0.17992 0.137584,-0.40217 0,-0.22225 0.0635,-0.26458 0.07408,-0.0529 0.07408,-1.27 0,-1.016 -0.0635,-1.13242 -0.04233,-0.0952 -0.105833,-0.9525 l -0.05292,-0.8255 0.201083,-0.10583 q 0.5715,-0.28575 0.772584,-0.46567 0.148166,-0.16933 0.402166,-0.23283 l 0.243417,-0.0635 -0.03175,-0.55033 q 0,-0.0635 -0.01058,-0.15875 0,-0.0953 0,-0.127 0,-0.22225 0.07408,-0.3175 0.08467,-0.10584 0.4445,-0.33867 z"/>
      <path d="m 41.011786,158.59721 q 0.0635,-0.0635 0.232833,-0.0635 0.148167,0 0.148167,0.0635 0,0.0741 0.201083,0.13758 0.1905,0.0635 0.1905,0.16934 0,0.0952 -0.15875,0.22225 -0.169333,0.127 -0.169333,0.21166 0,0.0741 -0.105834,0.11642 -0.09525,0.0529 -0.09525,0.24342 0,0.1905 -0.05292,0.1905 -0.0635,0 -0.116417,-0.27517 -0.03175,-0.20108 -0.116417,-0.32808 -0.08467,-0.13759 -0.169333,-0.13759 -0.07408,0 -0.116417,0.10584 -0.04233,0.0953 -0.04233,0.26458 0,0.29633 0.09525,0.39158 0.264583,0.254 0.53975,0.381 0.137583,0.0635 0.137583,0.13759 0,0.0741 -0.137583,0.0741 -0.09525,0 -0.09525,0.0635 0,0.0741 -0.232833,0.14817 -0.1905,0.0635 -0.243417,0.16933 -0.05292,0.0953 -0.09525,0.508 -0.05292,0.45508 -0.08467,0.59267 -0.02117,0.14816 -0.02117,0.16933 0,0.0847 0.04233,0.11642 0.05292,0.0317 0.201083,0.0741 0.137584,0.0423 0.47625,0.0741 0.116417,0 0.116417,0.0212 0.01058,0.0106 -0.02117,0.0212 -0.105833,0.0423 -0.137583,0.0953 -0.05292,0.0529 -0.264583,0.10583 -0.15875,0.0423 -0.211667,0.10583 -0.05292,0.0529 -0.08467,0.22225 -0.01058,0.0741 -0.01058,0.34925 0,0.29634 0.01058,0.4445 0.01058,0.127 0.01058,0.29634 0,0.24341 -0.105834,0.34925 -0.127,0.127 -0.328083,0.22225 -0.201083,0.10583 -0.328083,0.10583 -0.05292,0 -0.07408,-0.0212 -0.07408,-0.0847 0,-0.127 0.07408,-0.0423 0.09525,-0.79375 0.01058,-0.27516 0.01058,-0.635 0,-0.28575 -0.03175,-0.34925 -0.03175,-0.0741 -0.137584,-0.0741 h -0.02117 -0.169334 l 0.169334,-0.16933 q 0.116416,-0.10584 0.148166,-0.20109 0.03175,-0.0953 0.03175,-0.33866 0,-0.381 -0.07408,-0.381 -0.0635,0 -0.0635,-0.24342 0,-0.23283 0.0635,-0.23283 0.0635,0 0.201083,-0.13759 0.127,-0.127 0.381,-0.24341 0.243417,-0.11642 0.243417,-0.17992 0,-0.0635 -0.243417,-0.16933 -0.232833,-0.10584 -0.465666,-0.14817 l -0.275167,-0.0423 0.179917,-0.1905 q 0.179916,-0.17992 0.179916,-0.33867 0,-0.10583 -0.07408,-0.17992 -0.08467,-0.0847 0.105833,-0.254 0.1905,-0.16933 0.264584,-0.16933 0.04233,0 0.275166,-0.17992 0.232834,-0.17991 0.423334,-0.35983 z"/>
      <path d="m 44.87652,159.08404 q 0,0.0212 0.201083,0.127 0.211667,0.10584 0.211667,0.13759 0,0.0529 0.232833,0.10583 0.232834,0.0529 0.232834,0.11642 0,0.0423 -0.127,0.0423 -0.137584,0 -0.275167,0.13758 -0.137583,0.13759 -0.1905,0.13759 -0.04233,0 -0.116417,0.0635 -0.0635,0.0529 -0.0635,0.11641 0,0.0423 0.04233,0.0741 0.137583,0.0847 0.370416,0.56091 0.08467,0.16934 0.08467,0.23284 0,0.0318 -0.04233,0.11641 -0.08467,0.10584 -0.08467,0.29634 0,0.15875 -0.09525,0.27516 -0.105833,0.10584 -0.105833,0.13759 0,0.0318 -0.08467,0.13758 -0.254,0.28575 -0.254,0.37042 0,0.0635 -0.05292,0.0847 -0.09525,0.0318 -0.275166,0.40217 -0.169334,0.35983 -0.201084,0.58208 -0.02117,0.1905 -0.02117,0.28575 0,0.64559 0.243416,0.94192 0.169334,0.1905 0.169334,0.26458 0,0.16934 0.41275,0.16934 0.201083,0 0.201083,0.0847 0,0.0423 -0.116417,0.0423 -0.243416,0 -0.709083,-0.127 -0.465667,-0.11642 -0.560917,-0.21167 -0.08467,-0.0847 -0.179916,-0.33867 -0.05292,-0.13758 -0.05292,-0.26458 0,-0.127 0.05292,-0.28575 0.105833,-0.30692 0.137583,-0.35983 0.04233,-0.0529 0.08467,-0.24342 0.04233,-0.11642 0.179916,-0.30692 0.137584,-0.20108 0.169334,-0.30691 0.0635,-0.16934 0.179916,-0.26459 0.116417,-0.0952 0.15875,-0.32808 0.05292,-0.21167 0.116417,-0.254 0.0635,-0.0318 0.0635,-0.33867 0,-0.30691 -0.0635,-0.30691 -0.0635,0 -0.105833,-0.16934 -0.04233,-0.13758 -0.22225,-0.33866 -0.169334,-0.21167 -0.275167,-0.254 -0.05292,-0.0212 -0.05292,-0.0423 0,-0.0847 0.465667,-0.30691 0.391583,-0.1905 0.391583,-0.254 0,-0.0529 -0.22225,-0.0953 -0.243416,-0.0635 -0.497416,-0.16934 l -0.275167,-0.127 0.3175,-0.20108 q 0.211667,-0.13758 0.264583,-0.20108 0.05292,-0.0741 0.0635,-0.23284 0,-0.24341 -0.127,-0.3175 -0.116416,-0.0847 -0.15875,-0.28575 -0.04233,-0.20108 -0.105833,-0.20108 -0.05292,0 -0.148167,0.13758 -0.105833,0.15875 -0.116416,2.32834 l -0.01058,2.16958 -0.169333,0.13758 q -0.243417,0.1905 -0.275167,0.22225 -0.08467,0.0847 -0.232833,0.16934 -0.137583,0.0741 -0.211667,0.0741 -0.07408,0 -0.07408,-0.13758 0,-0.13759 0.0635,-0.16934 0.07408,-0.0318 0.07408,-0.67733 0,-0.62442 0.05292,-0.67733 0.05292,-0.0741 0.05292,-1.06892 0,-1.02658 -0.05292,-1.05833 -0.05292,-0.0318 -0.05292,-0.40217 0,-0.381 -0.07408,-0.41275 -0.08467,-0.0423 -0.07408,-0.10583 0.02117,-0.0741 0.127,-0.11642 0.02117,-0.0106 0.05292,-0.0212 0.04233,-0.0212 0.0635,-0.0317 0.03175,-0.0106 0.04233,-0.0212 0.04233,-0.0423 0.28575,-0.15875 0.243416,-0.11642 0.391583,-0.15875 0.179917,-0.0635 0.306917,-0.16934 0.15875,-0.127 0.47625,-0.26458 0.306916,-0.127 0.370416,-0.127 0.07408,0 0.07408,0.21167 0,0.21166 0.105833,0.42333 0.09525,0.16933 0.09525,0.3175 0,0.1905 -0.232833,0.41275 -0.243417,0.22225 -0.243417,0.26458 z"/>
      <path d="m 48.686025,159.21104 q -0.179916,-0.21166 -0.34925,-0.21166 -0.105833,0 -0.127,0.0741 -0.02117,0.0741 -0.02117,0.45508 v 0.23284 0.24341 q 0,0.32809 0.01058,0.41275 0.01058,0.0741 0.0635,0.0741 0.04233,0 0.07408,-0.0106 0.169334,-0.0423 0.34925,-0.0423 h 0.179917 v -0.508 q 0,-0.33867 -0.03175,-0.45508 -0.03175,-0.11642 -0.148167,-0.26459 z m -0.941916,3.54542 q -0.04233,0 -0.15875,-0.13758 -0.116417,-0.13759 -0.179917,-0.13759 -0.0635,0 -0.116417,-0.11641 -0.05292,-0.127 -0.105833,-0.127 -0.03175,0 -0.04233,0.0106 -0.09525,0.0423 -0.148167,-0.0317 -0.04233,-0.0741 0.03175,-0.0741 0.08467,0 0.423333,-0.16934 0.296334,-0.13758 0.433917,-0.13758 0.05292,0 0.07408,0.0106 0.127,0.0317 0.243417,0.21167 0.127,0.16933 0.127,0.3175 0,0.10583 0.09525,0.10583 0.105833,0 0.105833,0.10584 0,0.0952 0.0635,0.0952 0.07408,0 0.07408,-0.26459 0,-0.26458 0.09525,-0.30691 0.105834,-0.0423 0.105834,-0.49742 0,-0.42333 -0.09525,-0.56092 -0.08467,-0.13758 -0.402167,-0.13758 -0.169333,0 -0.264583,0.0106 -0.497417,0.0423 -0.518583,0.11642 -0.02117,0.0741 -0.15875,0.0741 -0.08467,0 -0.105834,-0.0741 -0.02117,-0.0741 -0.02117,-0.37042 0,-0.42333 0.105833,-0.60325 0.07408,-0.11641 0.07408,-0.14816 0,-0.0317 -0.07408,-0.0952 -0.105833,-0.10584 -0.105833,-0.3175 0,-0.21167 -0.07408,-0.26459 -0.105833,-0.0635 0,-0.13758 0.0635,-0.0317 0.148167,-0.0317 0.127,0 0.243417,-0.13758 0.127,-0.14817 0.338666,-0.17992 0.243417,-0.0423 0.275167,-0.0952 0.04233,-0.0635 0.148167,-0.0635 0.116416,0 0.211666,-0.16933 0.09525,-0.17992 0.3175,-0.17992 0.09525,0 0.09525,0.0741 0,0.0635 0.08467,0.0635 0.09525,0 0.15875,0.15875 0.07408,0.14817 0.22225,0.22225 0.148166,0.0741 0.148166,0.29634 0,0.22225 -0.105833,0.254 -0.09525,0.0318 -0.09525,0.60325 v 0.55033 l 0.232833,0.14817 q 0.243417,0.15875 0.306917,0.15875 0.09525,0 0.116417,-0.20109 0.02117,-0.21166 0.02117,-0.889 0,-1.09008 0.07408,-1.09008 0.0635,0 0.169333,-0.10583 0.127,-0.10584 0.243417,-0.10584 0.127,0 0.127,-0.0635 0,-0.0635 0.169333,-0.0635 0.08467,0 0.116417,0.0317 0.03175,0.0212 0.03175,0.11642 0,0.0212 -0.02117,0.27517 -0.05292,0.43391 -0.127,0.47625 -0.105833,0.0741 -0.105833,0.762 0,0.78316 0.137583,0.78316 0.04233,0 0.127,-0.11641 0.09525,-0.14817 0.211667,-0.14817 0.07408,0 0.07408,0.0953 0,0.10583 -0.09525,0.10583 -0.07408,0 -0.137583,0.10584 -0.04233,0.0952 -0.179917,0.0952 -0.09525,0 -0.116417,0.127 -0.02117,0.127 -0.02117,0.75141 0,0.74084 -0.07408,0.98425 -0.0635,0.23284 -0.296333,0.3175 -0.15875,0.0635 -0.243417,0.0635 -0.116416,0 -0.116416,-0.30691 0,-0.0635 0.02117,-0.59267 l 0.05292,-0.92075 -0.296333,-0.0212 q -0.1905,-0.0212 -0.254,-0.0212 -0.03175,0 -0.0635,0 l -0.03175,0.0106 q -0.04233,0.0106 -0.0635,0.51858 -0.01058,0.48684 -0.0635,0.66675 -0.05292,0.16934 -0.1905,0.1905 -0.148167,0.0212 -0.232834,0.1905 -0.08467,0.15875 -0.3175,0.27517 -0.201083,0.0952 -0.296333,0.1905 -0.05292,0.0635 -0.09525,0 -0.03175,-0.0423 -0.179916,-0.11642 -0.09525,-0.0318 -0.15875,-0.22225 -0.04233,-0.16933 -0.127,-0.16933 z"/>
      <path d="m 52.934571,159.03113 q 0.148167,-0.0529 1.312334,-0.0529 1.026583,0 1.026583,0.0423 0,0.0529 -0.0635,0.0529 -0.07408,0 -0.07408,0.27517 0,0.26458 -0.0635,0.26458 -0.07408,0 -0.07408,1.55575 v 1.54517 l -0.306916,0.29633 q -0.328084,0.28575 -0.359834,0.28575 -0.01058,0 -0.01058,-0.24342 0,-0.45508 0.02117,-0.762 l 0.05292,-1.016 -0.169333,-0.10583 q -0.179917,-0.11642 -0.41275,-0.11642 -0.232833,0 -0.232833,-0.0635 0,-0.0529 0.179916,-0.14816 0.169334,-0.0847 0.275167,-0.1905 0.09525,-0.0741 0.1905,-0.0741 0.09525,0 0.09525,-0.49741 -0.01058,-0.48684 -0.105833,-0.60325 -0.09525,-0.127 -0.465667,-0.127 h -0.370417 l -0.05292,0.59266 q -0.02117,0.16934 -0.02117,0.75142 0,0.65617 0.02117,0.96308 0.03175,0.55034 0.03175,0.79375 0,0.32809 -0.137584,0.53975 -0.15875,0.21167 -0.359833,0.30692 -0.264583,0.11642 -0.275167,0.127 -0.05292,0.0212 -0.01058,-0.26458 0.148167,-0.99484 0.148167,-2.61409 0,-0.27516 -0.01058,-0.34925 -0.0635,-0.48683 -0.148166,-0.62441 -0.0635,-0.10584 -0.0635,-0.20109 0,-0.15875 0.148166,-0.15875 0.105834,0 0.105834,-0.0529 0,-0.0529 0.179916,-0.127 z m 2.201334,-0.98425 q 0,-0.0635 0.0635,-0.0635 0.05292,0 0.05292,0.0529 0,0.16934 -0.243416,0.32809 -0.179917,0.127 -0.243417,0.22225 -0.05292,0.0741 -0.624417,0.0741 h -0.4445 q -1.005416,-0.0317 -1.005416,-0.13758 0,-0.0423 0.201083,-0.17992 0.201083,-0.10583 0.201083,-0.16933 0,-0.0635 0.338667,-0.0635 0.391583,0 0.4445,0.0741 0.05292,0.0741 0.550333,0.0741 0.508,0 0.508,-0.0741 0,-0.0635 0.105834,-0.0635 0.09525,0 0.09525,-0.0741 z"/>
      <path d="m 56.935568,161.16896 q 0.169333,-0.11642 0.338667,-0.11642 0.148166,0 0.179916,0.0847 0.0635,0.20108 0.0635,0.64558 0,0.22225 -0.03175,0.22225 -0.0635,0 -0.0635,-0.10583 0,-0.14817 -0.169333,-0.26458 -0.15875,-0.127 -0.34925,-0.13759 -0.232833,-0.0212 -0.232833,-0.0423 0,-0.11642 0.264583,-0.28575 z m 0.92075,-1.48167 q -0.0635,-0.20108 -0.105833,-0.20108 -0.04233,0 -0.105834,-0.16933 -0.0635,-0.17992 -0.09525,-0.17992 -0.07408,0 -0.116416,-0.11642 -0.07408,-0.17991 -0.47625,-0.60325 -0.08467,-0.0847 -0.08467,-0.15875 0,-0.0741 -0.0635,-0.0741 -0.07408,0 -0.07408,-0.29633 0,-0.30692 0.127,-0.34925 0.127,-0.0318 0.169333,-0.15875 0.04233,-0.11642 0.254,-0.23284 0.201083,-0.11641 0.201083,-0.1905 0,-0.0635 0.105834,-0.0635 0.09525,0 0.09525,0.0423 0,0.0423 -0.137584,0.17991 -0.105833,0.0847 -0.105833,0.23284 0,0.10583 0.01058,0.17991 0.0635,0.29634 0.09525,0.3175 0.02117,0.0106 0.09525,0.17992 0.07408,0.15875 0.116417,0.15875 0.0635,0 0.0635,0.10583 0,0.0952 0.09525,0.14817 0.07408,0.0423 0.22225,0.26458 0.15875,0.22225 0.15875,0.27517 0,0.0318 0.127,0.15875 0.179917,0.15875 0.179917,0.40217 0,0.381 -0.34925,0.56091 -0.15875,0.0952 -0.15875,0.1905 0.01058,0.10584 0.137583,0.26459 0.127,0.15875 0.201083,0.15875 0.08467,0 0.04233,0.11641 -0.03175,0.0953 -0.05292,0.73025 -0.02117,0.46567 -0.0635,0.60325 -0.04233,0.13759 -0.211667,0.20109 -0.116416,0.0423 -0.116416,0.11641 0,0.0741 -0.105834,0.0741 -0.105833,0 -0.105833,0.0952 0,0.10583 -0.0635,0.10583 -0.05292,0 -0.232833,0.17992 -0.127,0.127 -0.232834,0.127 -0.08467,0 -0.08467,-0.11642 0,-0.0741 -0.116417,-0.15875 -0.116416,-0.0952 -0.232833,-0.10583 -0.127,0 -0.127,-0.0635 0,-0.0635 -0.148167,-0.0635 -0.08467,0 -0.08467,-0.0212 0,-0.0317 0.169333,-0.1905 0.232833,-0.21167 0.53975,-0.21167 0.211666,0 0.243416,0.11642 0.05292,0.0952 0.148167,0.0952 0.09525,0 0.09525,-0.49742 0,-0.92075 -0.169333,-1.00541 -0.105834,-0.0741 -0.179917,-0.13759 -0.0635,-0.0741 -0.15875,-0.1905 -0.09525,-0.11641 -0.1905,-0.21166 -0.264583,-0.26459 -0.264583,-0.33867 0,-0.0741 -0.137583,-0.0741 -0.127,0 -0.127,-0.0529 0,-0.127 0.486833,-0.37042 0.179916,-0.0952 0.22225,-0.0952 0.04233,0 0.15875,0.0847 0.148166,0.127 0.148166,0.17992 0,0.0741 0.08467,0.15875 l 0.211667,0.26458 q 0.127,0.17992 0.1905,0.13758 0.0635,-0.0317 0.0635,-0.16933 0,-0.13758 -0.0635,-0.13758 -0.04233,0 -0.116417,-0.20109 z"/>
  </g>
</svg>
