<svg xmlns="http://www.w3.org/2000/svg" width="100px" height="100px" viewBox="0 0 100 100" version="1.1">
    <path transform="translate(0,-197)" style="fill:#000000;" d="M 34.248156,289.67474 C 14.931346,287.53462 4.3243964,276.48948 4.3897234,258.58279 c 0.01419,-3.88931 0.253564,-5.93201 1.017981,-8.68694 1.327816,-4.7854 5.0331406,-12.09105 8.8560156,-17.46108 3.24174,-4.5537 9.027004,-11.45976 9.808968,-11.70929 0.249419,-0.0796 1.643937,0.91038 3.09893,2.19994 1.454992,1.28955 4.090931,3.02854 5.857644,3.86442 8.174697,3.86766 15.898766,2.68441 23.743942,-3.63733 1.703374,-1.3726 3.196887,-2.49564 3.318917,-2.49564 0.450456,0 7.773086,8.8102 10.217203,12.2928 2.685225,3.82616 6.333205,10.68738 7.545506,14.19178 3.372911,9.75012 2.309869,21.09719 -2.726888,29.10728 -2.221281,3.53257 -7.134914,7.69358 -11.441711,9.68919 -7.805639,3.61684 -18.391846,4.96064 -29.438075,3.73682 z m 56.467586,-53.2922 c -0.16273,-0.25205 -0.47694,-1.52333 -0.698249,-2.82505 -0.63181,-3.71626 -2.319971,-6.73166 -5.407876,-9.65959 -4.477935,-4.24594 -10.137743,-6.65947 -17.384653,-7.41337 -3.198108,-0.3327 -3.70008,-0.28202 -5.180862,0.52302 -1.354303,0.73628 -1.739472,0.7943 -2.213261,0.3334 -0.804617,-0.78274 0.647321,-1.85502 5.623515,-4.15308 5.723593,-2.6432 8.692585,-3.26169 14.615611,-3.04465 4.375656,0.16033 5.217939,0.3244 7.951041,1.54877 4.841454,2.16886 8.526524,5.42954 7.378394,6.52865 -0.31642,0.30292 -1.18084,-0.18253 -2.78763,-1.56549 -4.42318,-3.80703 -8.665593,-5.1452 -15.150465,-4.77885 -3.81536,0.21554 -10.457669,1.76236 -10.457669,2.43532 0,0.16693 1.015683,0.4325 2.25707,0.59015 6.41931,0.81519 13.737721,4.36285 17.617156,8.54005 3.499169,3.76775 6.248908,11.27179 4.700868,12.82865 -0.38986,0.39208 -0.65961,0.42711 -0.86299,0.11207 z M 38.504694,224.84681 c -2.4686,-0.55478 -6.370328,-2.67776 -8.712876,-4.74077 -2.014632,-1.77423 -2.026793,-1.80207 -3.873206,-8.86897 -1.018726,-3.89904 -1.852229,-7.19758 -1.852229,-7.3301 0,-0.13252 0.846572,0.31463 1.881272,0.99366 6.886112,4.51912 14.914967,6.15212 21.993661,4.47333 3.49712,-0.82938 8.045796,-2.73725 10.09713,-4.23507 0.824036,-0.6017 1.603494,-0.99324 1.732119,-0.87011 0.128626,0.12314 -0.573447,3.33644 -1.560162,7.14067 -1.782366,6.8718 -1.80703,6.92819 -3.793857,8.67168 -4.854357,4.25984 -10.559489,5.96856 -15.911852,4.76568 z"/>
</svg>
