<svg xmlns="http://www.w3.org/2000/svg" width="100px" height="100px" viewBox="0 0 100 100" version="1.1">
  <g transform="translate(0,-197)">
    <path style="fill:#000000;" transform="matrix(0.26458333,0,0,0.26458333,0,197)" d="M 191.78516 15.453125 C 182.48587 15.453125 175 23.513586 175 33.525391 L 175 185.81055 L 161.74805 185.81055 C 161.75895 185.52723 161.78711 185.24936 161.78711 184.96289 L 161.78711 70.587891 C 161.78711 60.027266 154.29929 51.525391 145 51.525391 C 135.70071 51.525391 128.21484 60.027266 128.21484 70.587891 L 128.21484 184.96289 C 128.21484 185.24934 128.24105 185.52725 128.25195 185.81055 L 128.21484 185.81055 L 128.21484 231.19336 L 88.378906 178.83984 C 82.747776 171.43936 72.255948 170.0134 64.855469 175.64453 C 57.45499 181.27566 56.030979 191.76749 61.662109 199.16797 L 135.19336 295.80273 C 135.51923 296.231 135.86382 296.63346 136.2207 297.02148 C 148.8118 322.37624 174.97257 339.73828 205.35938 339.73828 L 225.04883 339.73828 C 267.7874 339.73828 302.19336 305.41165 302.19336 262.77344 C 302.19336 261.87637 302.1727 260.98514 302.14258 260.0957 L 302.19336 260.0957 L 302.19336 185.81055 L 302.14258 185.81055 L 302.14258 89.738281 C 302.14258 80.438995 294.65671 72.953125 285.35742 72.953125 C 276.05814 72.953125 268.57227 80.438995 268.57227 89.738281 L 268.57227 185.81055 L 255.35742 185.81055 L 255.35742 55.810547 C 255.35742 46.511261 247.87155 39.023438 238.57227 39.023438 C 229.27298 39.023438 221.78516 46.511261 221.78516 55.810547 L 221.78516 185.81055 L 208.57227 185.81055 L 208.57227 33.525391 C 208.57227 23.513586 201.08444 15.453125 191.78516 15.453125 z "/>
  </g>
</svg>
